%TF.GenerationSoftware,KiCad,Pcbnew,9.0.5*%
%TF.CreationDate,2025-11-16T19:12:02-08:00*%
%TF.ProjectId,measurementcircuit,6d656173-7572-4656-9d65-6e7463697263,rev?*%
%TF.SameCoordinates,Original*%
%TF.FileFunction,Soldermask,Bot*%
%TF.FilePolarity,Negative*%
%FSLAX46Y46*%
G04 Gerber Fmt 4.6, Leading zero omitted, Abs format (unit mm)*
G04 Created by KiCad (PCBNEW 9.0.5) date 2025-11-16 19:12:02*
%MOMM*%
%LPD*%
G01*
G04 APERTURE LIST*
%ADD10C,1.700000*%
%ADD11R,1.700000X1.700000*%
%ADD12C,2.400000*%
%ADD13C,2.000000*%
%ADD14C,1.600000*%
%ADD15C,1.800000*%
G04 APERTURE END LIST*
D10*
%TO.C,J21*%
X-88040000Y48000000D03*
D11*
X-85500000Y48000000D03*
%TD*%
%TO.C,J30*%
X-85500000Y-28500000D03*
D10*
X-88040000Y-28500000D03*
%TD*%
D11*
%TO.C,J22*%
X-85500000Y39500000D03*
D10*
X-88040000Y39500000D03*
%TD*%
D11*
%TO.C,J33*%
X-85500000Y-54000000D03*
D10*
X-88040000Y-54000000D03*
%TD*%
D11*
%TO.C,J16*%
X-69784999Y-112990000D03*
D10*
X-69784999Y-110450000D03*
%TD*%
D12*
%TO.C,R14*%
X-108300000Y-47500000D03*
X-133700000Y-47500000D03*
%TD*%
D11*
%TO.C,J35*%
X-85500000Y-72500000D03*
D10*
X-88040000Y-72500000D03*
%TD*%
D13*
%TO.C,J7*%
X-68789999Y-43057961D03*
X-68789999Y-51257960D03*
X-61289999Y-43057961D03*
X-61289999Y-51257960D03*
%TD*%
D11*
%TO.C,J42*%
X-85500000Y-130500000D03*
D10*
X-88040000Y-130500000D03*
%TD*%
D11*
%TO.C,J9*%
X-70154999Y19907761D03*
D10*
X-70154999Y22447761D03*
%TD*%
D12*
%TO.C,R19*%
X-102500000Y-88500000D03*
X-143140000Y-88500000D03*
%TD*%
D11*
%TO.C,J1*%
X-85500000Y64222761D03*
D10*
X-88040000Y64222761D03*
%TD*%
D12*
%TO.C,R22*%
X-102500000Y-114000000D03*
X-143140000Y-114000000D03*
%TD*%
D14*
%TO.C,R9*%
X-127335651Y-4000000D03*
X-132415651Y-4000000D03*
%TD*%
D12*
%TO.C,R1*%
X-104180000Y64000000D03*
X-144820000Y64000000D03*
%TD*%
D11*
%TO.C,J25*%
X-85500000Y14000000D03*
D10*
X-88040000Y14000000D03*
%TD*%
D12*
%TO.C,R5*%
X-110300000Y28500000D03*
X-135700000Y28500000D03*
%TD*%
D11*
%TO.C,J27*%
X-85500000Y-3000000D03*
D10*
X-88040000Y-3000000D03*
%TD*%
D11*
%TO.C,J26*%
X-85500000Y4000000D03*
D10*
X-88040000Y4000000D03*
%TD*%
D14*
%TO.C,R18*%
X-127335651Y-80500000D03*
X-132415651Y-80500000D03*
%TD*%
D12*
%TO.C,R17*%
X-108800000Y-73500000D03*
X-134200000Y-73500000D03*
%TD*%
D11*
%TO.C,J28*%
X-85500000Y-11500000D03*
D10*
X-88040000Y-11500000D03*
%TD*%
D13*
%TO.C,J18*%
X-68789999Y-69993882D03*
X-68789999Y-78193881D03*
X-61289999Y-69993882D03*
X-61289999Y-78193881D03*
%TD*%
D11*
%TO.C,J12*%
X-69500000Y-60540000D03*
D10*
X-69500000Y-58000000D03*
%TD*%
D14*
%TO.C,R21*%
X-127335651Y-105500000D03*
X-132415651Y-105500000D03*
%TD*%
D12*
%TO.C,R2*%
X-111300000Y54500000D03*
X-136700000Y54500000D03*
%TD*%
D14*
%TO.C,R6*%
X-127335651Y21500000D03*
X-132415651Y21500000D03*
%TD*%
D12*
%TO.C,R23*%
X-109800000Y-124000000D03*
X-135200000Y-124000000D03*
%TD*%
D11*
%TO.C,J15*%
X-70284999Y-87475921D03*
D10*
X-70284999Y-84935921D03*
%TD*%
D11*
%TO.C,J2*%
X-85500000Y55000000D03*
D10*
X-88040000Y55000000D03*
%TD*%
D11*
%TO.C,J10*%
X-69789999Y-6948160D03*
D10*
X-69789999Y-4408160D03*
%TD*%
D14*
%TO.C,R24*%
X-127335651Y-131000000D03*
X-132415651Y-131000000D03*
%TD*%
%TO.C,R15*%
X-127335651Y-55000000D03*
X-132415651Y-55000000D03*
%TD*%
D11*
%TO.C,J32*%
X-85500000Y-47000000D03*
D10*
X-88040000Y-47000000D03*
%TD*%
D12*
%TO.C,R10*%
X-104500000Y-12000000D03*
X-145140000Y-12000000D03*
%TD*%
D11*
%TO.C,J11*%
X-70289999Y-33674080D03*
D10*
X-70289999Y-31134080D03*
%TD*%
D11*
%TO.C,J8*%
X-70289999Y46903681D03*
D10*
X-70289999Y49443681D03*
%TD*%
D11*
%TO.C,J39*%
X-85500000Y-105000000D03*
D10*
X-88040000Y-105000000D03*
%TD*%
D12*
%TO.C,R7*%
X-103500000Y14000000D03*
X-144140000Y14000000D03*
%TD*%
D13*
%TO.C,J3*%
X-68789999Y64385720D03*
X-68789999Y56185721D03*
X-61289999Y64385720D03*
X-61289999Y56185721D03*
%TD*%
D12*
%TO.C,R20*%
X-109000000Y-98500000D03*
X-134400000Y-98500000D03*
%TD*%
D13*
%TO.C,J5*%
X-68789999Y10533879D03*
X-68789999Y2333880D03*
X-61289999Y10533879D03*
X-61289999Y2333880D03*
%TD*%
%TO.C,J6*%
X-68789999Y-16192041D03*
X-68789999Y-24392040D03*
X-61289999Y-16192041D03*
X-61289999Y-24392040D03*
%TD*%
D11*
%TO.C,J23*%
X-85500000Y29500000D03*
D10*
X-88040000Y29500000D03*
%TD*%
D11*
%TO.C,J40*%
X-85500000Y-113500000D03*
D10*
X-88040000Y-113500000D03*
%TD*%
D11*
%TO.C,J36*%
X-85500000Y-79500000D03*
D10*
X-88040000Y-79500000D03*
%TD*%
D13*
%TO.C,J19*%
X-68789999Y-95507961D03*
X-68789999Y-103707960D03*
X-61289999Y-95507961D03*
X-61289999Y-103707960D03*
%TD*%
D14*
%TO.C,R12*%
X-127335651Y-29500000D03*
X-132415651Y-29500000D03*
%TD*%
D12*
%TO.C,R4*%
X-103680000Y38500000D03*
X-144320000Y38500000D03*
%TD*%
D15*
%TO.C,J13*%
X-181789999Y-25277238D03*
X-181789999Y-28777238D03*
X-181789999Y-32277239D03*
X-181789999Y-35777240D03*
X-181789999Y-39277240D03*
X-181789999Y-42777241D03*
X-181789999Y-46277241D03*
X-181789999Y-49777242D03*
%TD*%
D14*
%TO.C,R3*%
X-127335651Y47000000D03*
X-132415651Y47000000D03*
%TD*%
D11*
%TO.C,J31*%
X-85500000Y-37000000D03*
D10*
X-88040000Y-37000000D03*
%TD*%
D12*
%TO.C,R16*%
X-102180000Y-63500000D03*
X-142820000Y-63500000D03*
%TD*%
D11*
%TO.C,J41*%
X-85500000Y-123500000D03*
D10*
X-88040000Y-123500000D03*
%TD*%
D11*
%TO.C,J34*%
X-85500000Y-62500000D03*
D10*
X-88040000Y-62500000D03*
%TD*%
D12*
%TO.C,R8*%
X-108300000Y3500000D03*
X-133700000Y3500000D03*
%TD*%
D13*
%TO.C,J20*%
X-68789999Y-121022040D03*
X-68789999Y-129222039D03*
X-61289999Y-121022040D03*
X-61289999Y-129222039D03*
%TD*%
D11*
%TO.C,J24*%
X-85500000Y22500000D03*
D10*
X-88040000Y22500000D03*
%TD*%
D12*
%TO.C,R11*%
X-107300000Y-22000000D03*
X-132700000Y-22000000D03*
%TD*%
D11*
%TO.C,J29*%
X-85500000Y-21500000D03*
D10*
X-88040000Y-21500000D03*
%TD*%
D11*
%TO.C,J38*%
X-85500000Y-98000000D03*
D10*
X-88040000Y-98000000D03*
%TD*%
D11*
%TO.C,J37*%
X-85500000Y-88000000D03*
D10*
X-88040000Y-88000000D03*
%TD*%
D13*
%TO.C,J4*%
X-68789999Y37389800D03*
X-68789999Y29189801D03*
X-61289999Y37389800D03*
X-61289999Y29189801D03*
%TD*%
D12*
%TO.C,R13*%
X-104500000Y-37500000D03*
X-145140000Y-37500000D03*
%TD*%
D15*
%TO.C,J17*%
X-37500000Y-8499991D03*
X-37500000Y-11999999D03*
X-37500000Y-15500000D03*
X-37500000Y-19000001D03*
X-37500000Y-22500001D03*
X-37500000Y-26000002D03*
X-37500000Y-29500003D03*
X-37500000Y-33000003D03*
X-37500000Y-36500004D03*
X-37500000Y-40000004D03*
X-37500000Y-43500005D03*
X-37500000Y-47000006D03*
X-37500000Y-50500006D03*
X-37500000Y-54000007D03*
X-37500000Y-57500007D03*
X-37500000Y-61000008D03*
%TD*%
M02*
