%TF.GenerationSoftware,KiCad,Pcbnew,9.0.5*%
%TF.CreationDate,2025-11-16T19:12:02-08:00*%
%TF.ProjectId,measurementcircuit,6d656173-7572-4656-9d65-6e7463697263,rev?*%
%TF.SameCoordinates,Original*%
%TF.FileFunction,Copper,L1,Top*%
%TF.FilePolarity,Positive*%
%FSLAX46Y46*%
G04 Gerber Fmt 4.6, Leading zero omitted, Abs format (unit mm)*
G04 Created by KiCad (PCBNEW 9.0.5) date 2025-11-16 19:12:02*
%MOMM*%
%LPD*%
G01*
G04 APERTURE LIST*
G04 Aperture macros list*
%AMRoundRect*
0 Rectangle with rounded corners*
0 $1 Rounding radius*
0 $2 $3 $4 $5 $6 $7 $8 $9 X,Y pos of 4 corners*
0 Add a 4 corners polygon primitive as box body*
4,1,4,$2,$3,$4,$5,$6,$7,$8,$9,$2,$3,0*
0 Add four circle primitives for the rounded corners*
1,1,$1+$1,$2,$3*
1,1,$1+$1,$4,$5*
1,1,$1+$1,$6,$7*
1,1,$1+$1,$8,$9*
0 Add four rect primitives between the rounded corners*
20,1,$1+$1,$2,$3,$4,$5,0*
20,1,$1+$1,$4,$5,$6,$7,0*
20,1,$1+$1,$6,$7,$8,$9,0*
20,1,$1+$1,$8,$9,$2,$3,0*%
G04 Aperture macros list end*
%TA.AperFunction,SMDPad,CuDef*%
%ADD10RoundRect,0.218750X-0.381250X0.218750X-0.381250X-0.218750X0.381250X-0.218750X0.381250X0.218750X0*%
%TD*%
%TA.AperFunction,SMDPad,CuDef*%
%ADD11RoundRect,0.250000X-0.475000X0.250000X-0.475000X-0.250000X0.475000X-0.250000X0.475000X0.250000X0*%
%TD*%
%TA.AperFunction,ComponentPad*%
%ADD12C,1.700000*%
%TD*%
%TA.AperFunction,ComponentPad*%
%ADD13R,1.700000X1.700000*%
%TD*%
%TA.AperFunction,SMDPad,CuDef*%
%ADD14RoundRect,0.218750X0.381250X-0.218750X0.381250X0.218750X-0.381250X0.218750X-0.381250X-0.218750X0*%
%TD*%
%TA.AperFunction,ComponentPad*%
%ADD15C,2.400000*%
%TD*%
%TA.AperFunction,ComponentPad*%
%ADD16C,2.000000*%
%TD*%
%TA.AperFunction,ComponentPad*%
%ADD17C,1.600000*%
%TD*%
%TA.AperFunction,ComponentPad*%
%ADD18C,1.800000*%
%TD*%
%TA.AperFunction,ViaPad*%
%ADD19C,0.600000*%
%TD*%
%TA.AperFunction,Conductor*%
%ADD20C,0.200000*%
%TD*%
G04 APERTURE END LIST*
D10*
%TO.P,L1,1,1*%
%TO.N,Net-(J13-Pad1)*%
X-159000000Y54125000D03*
%TO.P,L1,2,2*%
%TO.N,Net-(C2-Pad1)*%
X-159000000Y52000000D03*
%TD*%
D11*
%TO.P,C2,1*%
%TO.N,Net-(C2-Pad1)*%
X-154789999Y54235261D03*
%TO.P,C2,2*%
%TO.N,GND*%
X-154789999Y52335261D03*
%TD*%
D12*
%TO.P,J21,2,Pin_2*%
%TO.N,Net-(J21-Pin_2)*%
X-88040000Y48000000D03*
D13*
%TO.P,J21,1,Pin_1*%
%TO.N,Net-(J1-Pin_1)*%
X-85500000Y48000000D03*
%TD*%
%TO.P,J30,1,Pin_1*%
%TO.N,Net-(J10-Pin_1)*%
X-85500000Y-28500000D03*
D12*
%TO.P,J30,2,Pin_2*%
%TO.N,Net-(J30-Pin_2)*%
X-88040000Y-28500000D03*
%TD*%
D11*
%TO.P,C3,1*%
%TO.N,Net-(C3-Pad1)*%
X-154289999Y3135261D03*
%TO.P,C3,2*%
%TO.N,GND*%
X-154289999Y1235261D03*
%TD*%
D13*
%TO.P,J22,1,Pin_1*%
%TO.N,Net-(J22-Pin_1)*%
X-85500000Y39500000D03*
D12*
%TO.P,J22,2,Pin_2*%
%TO.N,Net-(J22-Pin_2)*%
X-88040000Y39500000D03*
%TD*%
D11*
%TO.P,C5,1*%
%TO.N,Net-(C5-Pad1)*%
X-154836700Y-47860106D03*
%TO.P,C5,2*%
%TO.N,GND*%
X-154836700Y-49760106D03*
%TD*%
D13*
%TO.P,J33,1,Pin_1*%
%TO.N,Net-(J11-Pin_1)*%
X-85500000Y-54000000D03*
D12*
%TO.P,J33,2,Pin_2*%
%TO.N,Net-(J33-Pin_2)*%
X-88040000Y-54000000D03*
%TD*%
D14*
%TO.P,L8,1,1*%
%TO.N,Net-(J13-Pad8)*%
X-159266407Y-125951955D03*
%TO.P,L8,2,2*%
%TO.N,Net-(C8-Pad1)*%
X-159266407Y-123826955D03*
%TD*%
D13*
%TO.P,J16,1,Pin_1*%
%TO.N,Net-(J16-Pin_1)*%
X-69784999Y-112990000D03*
D12*
%TO.P,J16,2,Pin_2*%
%TO.N,Net-(J15-Pin_1)*%
X-69784999Y-110450000D03*
%TD*%
D14*
%TO.P,L7,1,1*%
%TO.N,Net-(J13-Pad7)*%
X-159289999Y-100877239D03*
%TO.P,L7,2,2*%
%TO.N,Net-(C7-Pad1)*%
X-159289999Y-98752239D03*
%TD*%
D15*
%TO.P,R14,1*%
%TO.N,Net-(J32-Pin_2)*%
X-108300000Y-47500000D03*
%TO.P,R14,2*%
%TO.N,Net-(C5-Pad1)*%
X-133700000Y-47500000D03*
%TD*%
D13*
%TO.P,J35,1,Pin_1*%
%TO.N,Net-(J12-Pin_1)*%
X-85500000Y-72500000D03*
D12*
%TO.P,J35,2,Pin_2*%
%TO.N,Net-(J35-Pin_2)*%
X-88040000Y-72500000D03*
%TD*%
D16*
%TO.P,J7,1,1_1*%
%TO.N,Net-(J11-Pin_1)*%
X-68789999Y-43057961D03*
%TO.P,J7,2,1_2*%
X-68789999Y-51257960D03*
%TO.P,J7,3,2_1*%
%TO.N,GND*%
X-61289999Y-43057961D03*
%TO.P,J7,4,2_2*%
X-61289999Y-51257960D03*
%TD*%
D13*
%TO.P,J42,1,Pin_1*%
%TO.N,Net-(J16-Pin_1)*%
X-85500000Y-130500000D03*
D12*
%TO.P,J42,2,Pin_2*%
%TO.N,Net-(J42-Pin_2)*%
X-88040000Y-130500000D03*
%TD*%
D13*
%TO.P,J9,1,Pin_1*%
%TO.N,Net-(J10-Pin_2)*%
X-70154999Y19907761D03*
D12*
%TO.P,J9,2,Pin_2*%
%TO.N,Net-(J22-Pin_1)*%
X-70154999Y22447761D03*
%TD*%
D15*
%TO.P,R19,1*%
%TO.N,Net-(J37-Pin_2)*%
X-102500000Y-88500000D03*
%TO.P,R19,2*%
%TO.N,Net-(C7-Pad1)*%
X-143140000Y-88500000D03*
%TD*%
D13*
%TO.P,J1,1,Pin_1*%
%TO.N,Net-(J1-Pin_1)*%
X-85500000Y64222761D03*
D12*
%TO.P,J1,2,Pin_2*%
%TO.N,Net-(J1-Pin_2)*%
X-88040000Y64222761D03*
%TD*%
D11*
%TO.P,C4,1*%
%TO.N,Net-(J10-Pin_1)*%
X-154789999Y-22364739D03*
%TO.P,C4,2*%
%TO.N,GND*%
X-154789999Y-24264739D03*
%TD*%
D15*
%TO.P,R22,1*%
%TO.N,Net-(J40-Pin_2)*%
X-102500000Y-114000000D03*
%TO.P,R22,2*%
%TO.N,Net-(C8-Pad1)*%
X-143140000Y-114000000D03*
%TD*%
D17*
%TO.P,R9,1*%
%TO.N,Net-(J27-Pin_2)*%
X-127335651Y-4000000D03*
%TO.P,R9,2*%
%TO.N,Net-(C3-Pad1)*%
X-132415651Y-4000000D03*
%TD*%
D14*
%TO.P,L5,1,1*%
%TO.N,Net-(J13-Pad5)*%
X-159336700Y-49872606D03*
%TO.P,L5,2,2*%
%TO.N,Net-(C5-Pad1)*%
X-159336700Y-47747606D03*
%TD*%
D15*
%TO.P,R1,1*%
%TO.N,Net-(J1-Pin_2)*%
X-104180000Y64000000D03*
%TO.P,R1,2*%
%TO.N,Net-(C2-Pad1)*%
X-144820000Y64000000D03*
%TD*%
D13*
%TO.P,J25,1,Pin_1*%
%TO.N,Net-(J10-Pin_2)*%
X-85500000Y14000000D03*
D12*
%TO.P,J25,2,Pin_2*%
%TO.N,Net-(J25-Pin_2)*%
X-88040000Y14000000D03*
%TD*%
D15*
%TO.P,R5,1*%
%TO.N,Net-(J23-Pin_2)*%
X-110300000Y28500000D03*
%TO.P,R5,2*%
%TO.N,Net-(J22-Pin_1)*%
X-135700000Y28500000D03*
%TD*%
D13*
%TO.P,J27,1,Pin_1*%
%TO.N,Net-(J10-Pin_2)*%
X-85500000Y-3000000D03*
D12*
%TO.P,J27,2,Pin_2*%
%TO.N,Net-(J27-Pin_2)*%
X-88040000Y-3000000D03*
%TD*%
D13*
%TO.P,J26,1,Pin_1*%
%TO.N,Net-(J10-Pin_2)*%
X-85500000Y4000000D03*
D12*
%TO.P,J26,2,Pin_2*%
%TO.N,Net-(J26-Pin_2)*%
X-88040000Y4000000D03*
%TD*%
D17*
%TO.P,R18,1*%
%TO.N,Net-(J36-Pin_2)*%
X-127335651Y-80500000D03*
%TO.P,R18,2*%
%TO.N,Net-(C6-Pad1)*%
X-132415651Y-80500000D03*
%TD*%
D11*
%TO.P,C1,1*%
%TO.N,Net-(J22-Pin_1)*%
X-154789999Y28735261D03*
%TO.P,C1,2*%
%TO.N,GND*%
X-154789999Y26835261D03*
%TD*%
D15*
%TO.P,R17,1*%
%TO.N,Net-(J35-Pin_2)*%
X-108800000Y-73500000D03*
%TO.P,R17,2*%
%TO.N,Net-(C6-Pad1)*%
X-134200000Y-73500000D03*
%TD*%
D13*
%TO.P,J28,1,Pin_1*%
%TO.N,Net-(J10-Pin_1)*%
X-85500000Y-11500000D03*
D12*
%TO.P,J28,2,Pin_2*%
%TO.N,Net-(J28-Pin_2)*%
X-88040000Y-11500000D03*
%TD*%
D16*
%TO.P,J18,1,1_1*%
%TO.N,Net-(J12-Pin_1)*%
X-68789999Y-69993882D03*
%TO.P,J18,2,1_2*%
X-68789999Y-78193881D03*
%TO.P,J18,3,2_1*%
%TO.N,GND*%
X-61289999Y-69993882D03*
%TO.P,J18,4,2_2*%
X-61289999Y-78193881D03*
%TD*%
D13*
%TO.P,J12,1,Pin_1*%
%TO.N,Net-(J12-Pin_1)*%
X-69500000Y-60540000D03*
D12*
%TO.P,J12,2,Pin_2*%
%TO.N,Net-(J11-Pin_1)*%
X-69500000Y-58000000D03*
%TD*%
D17*
%TO.P,R21,1*%
%TO.N,Net-(J39-Pin_2)*%
X-127335651Y-105500000D03*
%TO.P,R21,2*%
%TO.N,Net-(C7-Pad1)*%
X-132415651Y-105500000D03*
%TD*%
D15*
%TO.P,R2,1*%
%TO.N,Net-(J2-Pin_2)*%
X-111300000Y54500000D03*
%TO.P,R2,2*%
%TO.N,Net-(C2-Pad1)*%
X-136700000Y54500000D03*
%TD*%
D17*
%TO.P,R6,1*%
%TO.N,Net-(J24-Pin_2)*%
X-127335651Y21500000D03*
%TO.P,R6,2*%
%TO.N,Net-(J22-Pin_1)*%
X-132415651Y21500000D03*
%TD*%
D15*
%TO.P,R23,1*%
%TO.N,Net-(J41-Pin_2)*%
X-109800000Y-124000000D03*
%TO.P,R23,2*%
%TO.N,Net-(C8-Pad1)*%
X-135200000Y-124000000D03*
%TD*%
D13*
%TO.P,J15,1,Pin_1*%
%TO.N,Net-(J15-Pin_1)*%
X-70284999Y-87475921D03*
D12*
%TO.P,J15,2,Pin_2*%
%TO.N,Net-(J12-Pin_1)*%
X-70284999Y-84935921D03*
%TD*%
D13*
%TO.P,J2,1,Pin_1*%
%TO.N,Net-(J1-Pin_1)*%
X-85500000Y55000000D03*
D12*
%TO.P,J2,2,Pin_2*%
%TO.N,Net-(J2-Pin_2)*%
X-88040000Y55000000D03*
%TD*%
D13*
%TO.P,J10,1,Pin_1*%
%TO.N,Net-(J10-Pin_1)*%
X-69789999Y-6948160D03*
D12*
%TO.P,J10,2,Pin_2*%
%TO.N,Net-(J10-Pin_2)*%
X-69789999Y-4408160D03*
%TD*%
D17*
%TO.P,R24,1*%
%TO.N,Net-(J42-Pin_2)*%
X-127335651Y-131000000D03*
%TO.P,R24,2*%
%TO.N,Net-(C8-Pad1)*%
X-132415651Y-131000000D03*
%TD*%
%TO.P,R15,1*%
%TO.N,Net-(J33-Pin_2)*%
X-127335651Y-55000000D03*
%TO.P,R15,2*%
%TO.N,Net-(C5-Pad1)*%
X-132415651Y-55000000D03*
%TD*%
D13*
%TO.P,J32,1,Pin_1*%
%TO.N,Net-(J11-Pin_1)*%
X-85500000Y-47000000D03*
D12*
%TO.P,J32,2,Pin_2*%
%TO.N,Net-(J32-Pin_2)*%
X-88040000Y-47000000D03*
%TD*%
D15*
%TO.P,R10,1*%
%TO.N,Net-(J28-Pin_2)*%
X-104500000Y-12000000D03*
%TO.P,R10,2*%
%TO.N,Net-(J10-Pin_1)*%
X-145140000Y-12000000D03*
%TD*%
D13*
%TO.P,J11,1,Pin_1*%
%TO.N,Net-(J11-Pin_1)*%
X-70289999Y-33674080D03*
D12*
%TO.P,J11,2,Pin_2*%
%TO.N,Net-(J10-Pin_1)*%
X-70289999Y-31134080D03*
%TD*%
D13*
%TO.P,J8,1,Pin_1*%
%TO.N,Net-(J22-Pin_1)*%
X-70289999Y46903681D03*
D12*
%TO.P,J8,2,Pin_2*%
%TO.N,Net-(J1-Pin_1)*%
X-70289999Y49443681D03*
%TD*%
D11*
%TO.P,C6,1*%
%TO.N,Net-(C6-Pad1)*%
X-154965165Y-73359877D03*
%TO.P,C6,2*%
%TO.N,GND*%
X-154965165Y-75259877D03*
%TD*%
D13*
%TO.P,J39,1,Pin_1*%
%TO.N,Net-(J15-Pin_1)*%
X-85500000Y-105000000D03*
D12*
%TO.P,J39,2,Pin_2*%
%TO.N,Net-(J39-Pin_2)*%
X-88040000Y-105000000D03*
%TD*%
D15*
%TO.P,R7,1*%
%TO.N,Net-(J25-Pin_2)*%
X-103500000Y14000000D03*
%TO.P,R7,2*%
%TO.N,Net-(C3-Pad1)*%
X-144140000Y14000000D03*
%TD*%
D16*
%TO.P,J3,1,1_1*%
%TO.N,Net-(J1-Pin_1)*%
X-68789999Y64385720D03*
%TO.P,J3,2,1_2*%
X-68789999Y56185721D03*
%TO.P,J3,3,2_1*%
%TO.N,GND*%
X-61289999Y64385720D03*
%TO.P,J3,4,2_2*%
X-61289999Y56185721D03*
%TD*%
D14*
%TO.P,L3,1,1*%
%TO.N,Net-(J13-Pad3)*%
X-158789999Y1122761D03*
%TO.P,L3,2,2*%
%TO.N,Net-(C3-Pad1)*%
X-158789999Y3247761D03*
%TD*%
D15*
%TO.P,R20,1*%
%TO.N,Net-(J38-Pin_2)*%
X-109000000Y-98500000D03*
%TO.P,R20,2*%
%TO.N,Net-(C7-Pad1)*%
X-134400000Y-98500000D03*
%TD*%
D16*
%TO.P,J5,1,1_1*%
%TO.N,Net-(J10-Pin_2)*%
X-68789999Y10533879D03*
%TO.P,J5,2,1_2*%
X-68789999Y2333880D03*
%TO.P,J5,3,2_1*%
%TO.N,GND*%
X-61289999Y10533879D03*
%TO.P,J5,4,2_2*%
X-61289999Y2333880D03*
%TD*%
%TO.P,J6,1,1_1*%
%TO.N,Net-(J10-Pin_1)*%
X-68789999Y-16192041D03*
%TO.P,J6,2,1_2*%
X-68789999Y-24392040D03*
%TO.P,J6,3,2_1*%
%TO.N,GND*%
X-61289999Y-16192041D03*
%TO.P,J6,4,2_2*%
X-61289999Y-24392040D03*
%TD*%
D13*
%TO.P,J23,1,Pin_1*%
%TO.N,Net-(J22-Pin_1)*%
X-85500000Y29500000D03*
D12*
%TO.P,J23,2,Pin_2*%
%TO.N,Net-(J23-Pin_2)*%
X-88040000Y29500000D03*
%TD*%
D13*
%TO.P,J40,1,Pin_1*%
%TO.N,Net-(J16-Pin_1)*%
X-85500000Y-113500000D03*
D12*
%TO.P,J40,2,Pin_2*%
%TO.N,Net-(J40-Pin_2)*%
X-88040000Y-113500000D03*
%TD*%
D13*
%TO.P,J36,1,Pin_1*%
%TO.N,Net-(J12-Pin_1)*%
X-85500000Y-79500000D03*
D12*
%TO.P,J36,2,Pin_2*%
%TO.N,Net-(J36-Pin_2)*%
X-88040000Y-79500000D03*
%TD*%
D16*
%TO.P,J19,1,1_1*%
%TO.N,Net-(J15-Pin_1)*%
X-68789999Y-95507961D03*
%TO.P,J19,2,1_2*%
X-68789999Y-103707960D03*
%TO.P,J19,3,2_1*%
%TO.N,GND*%
X-61289999Y-95507961D03*
%TO.P,J19,4,2_2*%
X-61289999Y-103707960D03*
%TD*%
D11*
%TO.P,C8,1*%
%TO.N,Net-(C8-Pad1)*%
X-154766407Y-123939455D03*
%TO.P,C8,2*%
%TO.N,GND*%
X-154766407Y-125839455D03*
%TD*%
D17*
%TO.P,R12,1*%
%TO.N,Net-(J30-Pin_2)*%
X-127335651Y-29500000D03*
%TO.P,R12,2*%
%TO.N,Net-(J10-Pin_1)*%
X-132415651Y-29500000D03*
%TD*%
D14*
%TO.P,L4,1,1*%
%TO.N,Net-(J13-Pad4)*%
X-159289999Y-24377239D03*
%TO.P,L4,2,2*%
%TO.N,Net-(J10-Pin_1)*%
X-159289999Y-22252239D03*
%TD*%
D15*
%TO.P,R4,1*%
%TO.N,Net-(J22-Pin_2)*%
X-103680000Y38500000D03*
%TO.P,R4,2*%
%TO.N,Net-(J22-Pin_1)*%
X-144320000Y38500000D03*
%TD*%
D18*
%TO.P,J13,1,1*%
%TO.N,Net-(J13-Pad1)*%
X-181789999Y-25277238D03*
%TO.P,J13,2,2*%
%TO.N,Net-(J13-Pad2)*%
X-181789999Y-28777238D03*
%TO.P,J13,3,3*%
%TO.N,Net-(J13-Pad3)*%
X-181789999Y-32277239D03*
%TO.P,J13,4,4*%
%TO.N,Net-(J13-Pad4)*%
X-181789999Y-35777240D03*
%TO.P,J13,5,5*%
%TO.N,Net-(J13-Pad5)*%
X-181789999Y-39277240D03*
%TO.P,J13,6,6*%
%TO.N,Net-(J13-Pad6)*%
X-181789999Y-42777241D03*
%TO.P,J13,7,7*%
%TO.N,Net-(J13-Pad7)*%
X-181789999Y-46277241D03*
%TO.P,J13,8,8*%
%TO.N,Net-(J13-Pad8)*%
X-181789999Y-49777242D03*
%TD*%
D17*
%TO.P,R3,1*%
%TO.N,Net-(J21-Pin_2)*%
X-127335651Y47000000D03*
%TO.P,R3,2*%
%TO.N,Net-(C2-Pad1)*%
X-132415651Y47000000D03*
%TD*%
D13*
%TO.P,J31,1,Pin_1*%
%TO.N,Net-(J11-Pin_1)*%
X-85500000Y-37000000D03*
D12*
%TO.P,J31,2,Pin_2*%
%TO.N,Net-(J31-Pin_2)*%
X-88040000Y-37000000D03*
%TD*%
D15*
%TO.P,R16,1*%
%TO.N,Net-(J34-Pin_2)*%
X-102180000Y-63500000D03*
%TO.P,R16,2*%
%TO.N,Net-(C6-Pad1)*%
X-142820000Y-63500000D03*
%TD*%
D13*
%TO.P,J41,1,Pin_1*%
%TO.N,Net-(J16-Pin_1)*%
X-85500000Y-123500000D03*
D12*
%TO.P,J41,2,Pin_2*%
%TO.N,Net-(J41-Pin_2)*%
X-88040000Y-123500000D03*
%TD*%
D13*
%TO.P,J34,1,Pin_1*%
%TO.N,Net-(J12-Pin_1)*%
X-85500000Y-62500000D03*
D12*
%TO.P,J34,2,Pin_2*%
%TO.N,Net-(J34-Pin_2)*%
X-88040000Y-62500000D03*
%TD*%
D15*
%TO.P,R8,1*%
%TO.N,Net-(J26-Pin_2)*%
X-108300000Y3500000D03*
%TO.P,R8,2*%
%TO.N,Net-(C3-Pad1)*%
X-133700000Y3500000D03*
%TD*%
D14*
%TO.P,L2,1,1*%
%TO.N,Net-(J13-Pad2)*%
X-159289999Y26722761D03*
%TO.P,L2,2,2*%
%TO.N,Net-(J22-Pin_1)*%
X-159289999Y28847761D03*
%TD*%
D16*
%TO.P,J20,1,1_1*%
%TO.N,Net-(J16-Pin_1)*%
X-68789999Y-121022040D03*
%TO.P,J20,2,1_2*%
X-68789999Y-129222039D03*
%TO.P,J20,3,2_1*%
%TO.N,GND*%
X-61289999Y-121022040D03*
%TO.P,J20,4,2_2*%
X-61289999Y-129222039D03*
%TD*%
D13*
%TO.P,J24,1,Pin_1*%
%TO.N,Net-(J22-Pin_1)*%
X-85500000Y22500000D03*
D12*
%TO.P,J24,2,Pin_2*%
%TO.N,Net-(J24-Pin_2)*%
X-88040000Y22500000D03*
%TD*%
D14*
%TO.P,L6,1,1*%
%TO.N,Net-(J13-Pad6)*%
X-159465165Y-75372377D03*
%TO.P,L6,2,2*%
%TO.N,Net-(C6-Pad1)*%
X-159465165Y-73247377D03*
%TD*%
D15*
%TO.P,R11,1*%
%TO.N,Net-(J29-Pin_2)*%
X-107300000Y-22000000D03*
%TO.P,R11,2*%
%TO.N,Net-(J10-Pin_1)*%
X-132700000Y-22000000D03*
%TD*%
D13*
%TO.P,J29,1,Pin_1*%
%TO.N,Net-(J10-Pin_1)*%
X-85500000Y-21500000D03*
D12*
%TO.P,J29,2,Pin_2*%
%TO.N,Net-(J29-Pin_2)*%
X-88040000Y-21500000D03*
%TD*%
D13*
%TO.P,J38,1,Pin_1*%
%TO.N,Net-(J15-Pin_1)*%
X-85500000Y-98000000D03*
D12*
%TO.P,J38,2,Pin_2*%
%TO.N,Net-(J38-Pin_2)*%
X-88040000Y-98000000D03*
%TD*%
D13*
%TO.P,J37,1,Pin_1*%
%TO.N,Net-(J15-Pin_1)*%
X-85500000Y-88000000D03*
D12*
%TO.P,J37,2,Pin_2*%
%TO.N,Net-(J37-Pin_2)*%
X-88040000Y-88000000D03*
%TD*%
D16*
%TO.P,J4,1,1_1*%
%TO.N,Net-(J22-Pin_1)*%
X-68789999Y37389800D03*
%TO.P,J4,2,1_2*%
X-68789999Y29189801D03*
%TO.P,J4,3,2_1*%
%TO.N,GND*%
X-61289999Y37389800D03*
%TO.P,J4,4,2_2*%
X-61289999Y29189801D03*
%TD*%
D11*
%TO.P,C7,1*%
%TO.N,Net-(C7-Pad1)*%
X-154789999Y-98864739D03*
%TO.P,C7,2*%
%TO.N,GND*%
X-154789999Y-100764739D03*
%TD*%
D15*
%TO.P,R13,1*%
%TO.N,Net-(J31-Pin_2)*%
X-104500000Y-37500000D03*
%TO.P,R13,2*%
%TO.N,Net-(C5-Pad1)*%
X-145140000Y-37500000D03*
%TD*%
D18*
%TO.P,J17,1,1*%
%TO.N,Net-(C2-Pad1)*%
X-37500000Y-8499991D03*
%TO.P,J17,2,2*%
%TO.N,Net-(J1-Pin_1)*%
X-37500000Y-11999999D03*
%TO.P,J17,3,3*%
%TO.N,Net-(J22-Pin_1)*%
X-37500000Y-15500000D03*
%TO.P,J17,4,4*%
X-37500000Y-19000001D03*
%TO.P,J17,5,5*%
%TO.N,Net-(C3-Pad1)*%
X-37500000Y-22500001D03*
%TO.P,J17,6,6*%
%TO.N,Net-(J10-Pin_2)*%
X-37500000Y-26000002D03*
%TO.P,J17,7,7*%
%TO.N,Net-(J10-Pin_1)*%
X-37500000Y-29500003D03*
%TO.P,J17,8,8*%
X-37500000Y-33000003D03*
%TO.P,J17,9,9*%
%TO.N,Net-(C5-Pad1)*%
X-37500000Y-36500004D03*
%TO.P,J17,10,10*%
%TO.N,Net-(J11-Pin_1)*%
X-37500000Y-40000004D03*
%TO.P,J17,11,11*%
%TO.N,Net-(C6-Pad1)*%
X-37500000Y-43500005D03*
%TO.P,J17,12,12*%
%TO.N,Net-(J12-Pin_1)*%
X-37500000Y-47000006D03*
%TO.P,J17,13,13*%
%TO.N,Net-(C7-Pad1)*%
X-37500000Y-50500006D03*
%TO.P,J17,14,14*%
%TO.N,Net-(J15-Pin_1)*%
X-37500000Y-54000007D03*
%TO.P,J17,15,15*%
%TO.N,Net-(C8-Pad1)*%
X-37500000Y-57500007D03*
%TO.P,J17,16,16*%
%TO.N,Net-(J16-Pin_1)*%
X-37500000Y-61000008D03*
%TD*%
D19*
%TO.N,GND*%
X-154766407Y-125839455D03*
X-154789999Y-100764739D03*
X-154965165Y-75259877D03*
X-154836700Y-49760106D03*
X-154789999Y-24264739D03*
X-154289999Y1235261D03*
X-154789999Y26835261D03*
X-154789999Y52335261D03*
X-61289999Y10533879D03*
X-61289999Y29189801D03*
X-61289999Y37389800D03*
X-61289999Y56185721D03*
X-61289999Y2333880D03*
X-61289999Y-16192041D03*
X-61289999Y-24392040D03*
X-61289999Y-43057961D03*
X-61289999Y-51257960D03*
X-61289999Y-129222039D03*
X-61289999Y-121022040D03*
X-61289999Y-95507961D03*
X-61289999Y-103707960D03*
X-61289999Y-78193881D03*
X-61289999Y-69993882D03*
%TO.N,Net-(J1-Pin_2)*%
X-88789999Y64222761D03*
%TO.N,GND*%
X-61289999Y64385720D03*
%TD*%
D20*
%TO.N,Net-(J16-Pin_1)*%
X-37500000Y-61000008D02*
X-37500000Y-89732041D01*
X-37500000Y-89732041D02*
X-68789999Y-121022040D01*
%TO.N,Net-(J15-Pin_1)*%
X-37500000Y-54000007D02*
X-37500007Y-54000007D01*
X-53000000Y-79717962D02*
X-68789999Y-95507961D01*
X-37500007Y-54000007D02*
X-53000000Y-69500000D01*
X-53000000Y-69500000D02*
X-53000000Y-79717962D01*
%TO.N,Net-(J12-Pin_1)*%
X-37500000Y-47000006D02*
X-45796123Y-47000006D01*
X-45796123Y-47000006D02*
X-68789999Y-69993882D01*
%TO.N,Net-(J11-Pin_1)*%
X-37500000Y-40000004D02*
X-65732042Y-40000004D01*
X-65732042Y-40000004D02*
X-68789999Y-43057961D01*
%TO.N,Net-(J10-Pin_1)*%
X-37500000Y-33000003D02*
X-60182036Y-33000003D01*
X-60182036Y-33000003D02*
X-68789999Y-24392040D01*
%TO.N,Net-(J10-Pin_2)*%
X-37500000Y-26000002D02*
X-40456117Y-26000002D01*
X-40456117Y-26000002D02*
X-68789999Y2333880D01*
%TO.N,Net-(J22-Pin_1)*%
X-47500000Y-9000001D02*
X-47500000Y7899802D01*
X-47500000Y7899802D02*
X-68789999Y29189801D01*
X-68789999Y37389800D02*
X-68789999Y29189801D01*
X-37500000Y-19000001D02*
X-47500000Y-9000001D01*
%TO.N,Net-(J34-Pin_2)*%
X-102180000Y-63500000D02*
X-89040000Y-63500000D01*
X-89040000Y-63500000D02*
X-88040000Y-62500000D01*
%TO.N,Net-(J35-Pin_2)*%
X-108800000Y-73500000D02*
X-89040000Y-73500000D01*
X-89040000Y-73500000D02*
X-88040000Y-72500000D01*
%TO.N,Net-(J36-Pin_2)*%
X-127335651Y-80500000D02*
X-89040000Y-80500000D01*
X-89040000Y-80500000D02*
X-88040000Y-79500000D01*
%TO.N,Net-(J16-Pin_1)*%
X-85500000Y-130500000D02*
X-70067960Y-130500000D01*
X-70067960Y-130500000D02*
X-68789999Y-129222039D01*
X-85500000Y-123500000D02*
X-71267959Y-123500000D01*
X-71267959Y-123500000D02*
X-68789999Y-121022040D01*
X-85500000Y-113500000D02*
X-76312039Y-113500000D01*
X-76312039Y-113500000D02*
X-68789999Y-121022040D01*
%TO.N,Net-(J15-Pin_1)*%
X-85500000Y-105000000D02*
X-70082039Y-105000000D01*
X-70082039Y-105000000D02*
X-68789999Y-103707960D01*
X-85500000Y-98000000D02*
X-71282038Y-98000000D01*
X-71282038Y-98000000D02*
X-68789999Y-95507961D01*
X-85500000Y-88000000D02*
X-81500000Y-88000000D01*
X-73992039Y-95507961D02*
X-68789999Y-95507961D01*
X-81500000Y-88000000D02*
X-73992039Y-95507961D01*
%TO.N,Net-(J12-Pin_1)*%
X-85500000Y-79500000D02*
X-70096118Y-79500000D01*
X-70096118Y-79500000D02*
X-68789999Y-78193881D01*
X-85500000Y-72500000D02*
X-71296117Y-72500000D01*
X-71296117Y-72500000D02*
X-68789999Y-69993882D01*
X-85500000Y-62500000D02*
X-84000000Y-62500000D01*
X-84000000Y-62500000D02*
X-76506118Y-69993882D01*
X-76506118Y-69993882D02*
X-68789999Y-69993882D01*
%TO.N,Net-(J11-Pin_1)*%
X-85500000Y-54000000D02*
X-76500000Y-54000000D01*
X-76500000Y-54000000D02*
X-73757960Y-51257960D01*
X-73757960Y-51257960D02*
X-68789999Y-51257960D01*
X-85500000Y-47000000D02*
X-72732038Y-47000000D01*
X-72732038Y-47000000D02*
X-68789999Y-43057961D01*
X-85500000Y-37000000D02*
X-83000000Y-37000000D01*
X-83000000Y-37000000D02*
X-76942039Y-43057961D01*
X-76942039Y-43057961D02*
X-68789999Y-43057961D01*
%TO.N,Net-(J10-Pin_1)*%
X-85500000Y-28500000D02*
X-79000000Y-28500000D01*
X-79000000Y-28500000D02*
X-74892040Y-24392040D01*
X-74892040Y-24392040D02*
X-68789999Y-24392040D01*
X-85500000Y-21500000D02*
X-74097958Y-21500000D01*
X-74097958Y-21500000D02*
X-68789999Y-16192041D01*
X-85500000Y-11500000D02*
X-73482040Y-11500000D01*
X-73482040Y-11500000D02*
X-68789999Y-16192041D01*
%TO.N,Net-(J30-Pin_2)*%
X-127335651Y-29500000D02*
X-89040000Y-29500000D01*
X-89040000Y-29500000D02*
X-88040000Y-28500000D01*
%TO.N,Net-(J29-Pin_2)*%
X-107300000Y-22000000D02*
X-88540000Y-22000000D01*
X-88540000Y-22000000D02*
X-88040000Y-21500000D01*
%TO.N,Net-(J28-Pin_2)*%
X-104500000Y-12000000D02*
X-88540000Y-12000000D01*
X-88540000Y-12000000D02*
X-88040000Y-11500000D01*
%TO.N,Net-(J31-Pin_2)*%
X-104500000Y-37500000D02*
X-88540000Y-37500000D01*
X-88540000Y-37500000D02*
X-88040000Y-37000000D01*
%TO.N,Net-(J32-Pin_2)*%
X-108300000Y-47500000D02*
X-88540000Y-47500000D01*
X-88540000Y-47500000D02*
X-88040000Y-47000000D01*
%TO.N,Net-(J33-Pin_2)*%
X-127335651Y-55000000D02*
X-89040000Y-55000000D01*
X-89040000Y-55000000D02*
X-88040000Y-54000000D01*
%TO.N,Net-(J37-Pin_2)*%
X-102500000Y-88500000D02*
X-88540000Y-88500000D01*
X-88540000Y-88500000D02*
X-88040000Y-88000000D01*
%TO.N,Net-(J38-Pin_2)*%
X-109000000Y-98500000D02*
X-88540000Y-98500000D01*
X-88540000Y-98500000D02*
X-88040000Y-98000000D01*
%TO.N,Net-(J39-Pin_2)*%
X-127335651Y-105500000D02*
X-88540000Y-105500000D01*
X-88540000Y-105500000D02*
X-88040000Y-105000000D01*
%TO.N,Net-(J42-Pin_2)*%
X-127335651Y-131000000D02*
X-88838216Y-131000000D01*
X-88838216Y-131000000D02*
X-88338216Y-130500000D01*
%TO.N,Net-(J41-Pin_2)*%
X-109800000Y-124000000D02*
X-88540000Y-124000000D01*
X-88540000Y-124000000D02*
X-88040000Y-123500000D01*
%TO.N,Net-(J40-Pin_2)*%
X-102500000Y-114000000D02*
X-88540000Y-114000000D01*
X-88540000Y-114000000D02*
X-88040000Y-113500000D01*
%TO.N,Net-(C8-Pad1)*%
X-145560545Y-123939455D02*
X-138500000Y-131000000D01*
X-154766407Y-123939455D02*
X-145560545Y-123939455D01*
X-138500000Y-131000000D02*
X-132415651Y-131000000D01*
X-154766407Y-123939455D02*
X-135260545Y-123939455D01*
X-135260545Y-123939455D02*
X-135200000Y-124000000D01*
X-154766407Y-123939455D02*
X-153079455Y-123939455D01*
X-153079455Y-123939455D02*
X-143140000Y-114000000D01*
%TO.N,Net-(C7-Pad1)*%
X-147635261Y-98864739D02*
X-141000000Y-105500000D01*
X-154789999Y-98864739D02*
X-147635261Y-98864739D01*
X-141000000Y-105500000D02*
X-132415651Y-105500000D01*
X-154789999Y-98864739D02*
X-134764739Y-98864739D01*
X-134764739Y-98864739D02*
X-134400000Y-98500000D01*
X-154789999Y-98864739D02*
X-153504739Y-98864739D01*
X-153504739Y-98864739D02*
X-143140000Y-88500000D01*
%TO.N,Net-(C6-Pad1)*%
X-145640123Y-73359877D02*
X-138500000Y-80500000D01*
X-154965165Y-73359877D02*
X-145640123Y-73359877D01*
X-138500000Y-80500000D02*
X-132415651Y-80500000D01*
X-154965165Y-73359877D02*
X-154500000Y-73359877D01*
X-154500000Y-73359877D02*
X-154359877Y-73500000D01*
X-154359877Y-73500000D02*
X-134200000Y-73500000D01*
X-154965165Y-73359877D02*
X-152679877Y-73359877D01*
X-152679877Y-73359877D02*
X-142820000Y-63500000D01*
%TO.N,Net-(C5-Pad1)*%
X-145139894Y-47860106D02*
X-138000000Y-55000000D01*
X-154836700Y-47860106D02*
X-145139894Y-47860106D01*
X-138000000Y-55000000D02*
X-132415651Y-55000000D01*
X-154836700Y-47860106D02*
X-134060106Y-47860106D01*
X-134060106Y-47860106D02*
X-133700000Y-47500000D01*
X-154836700Y-47860106D02*
X-154836700Y-47196700D01*
X-154836700Y-47196700D02*
X-145140000Y-37500000D01*
%TO.N,Net-(J10-Pin_1)*%
X-154789999Y-22364739D02*
X-147635261Y-22364739D01*
X-147635261Y-22364739D02*
X-140500000Y-29500000D01*
X-140500000Y-29500000D02*
X-132415651Y-29500000D01*
X-154789999Y-22364739D02*
X-145140000Y-12714740D01*
X-145140000Y-12714740D02*
X-145140000Y-12000000D01*
X-154789999Y-22364739D02*
X-154377499Y-22364739D01*
X-154377499Y-22364739D02*
X-154012760Y-22000000D01*
X-154012760Y-22000000D02*
X-132700000Y-22000000D01*
%TO.N,Net-(J10-Pin_2)*%
X-85500000Y-3000000D02*
X-74123879Y-3000000D01*
X-74123879Y-3000000D02*
X-68789999Y2333880D01*
X-85500000Y4000000D02*
X-70456119Y4000000D01*
X-70456119Y4000000D02*
X-68789999Y2333880D01*
X-85500000Y14000000D02*
X-72256120Y14000000D01*
X-72256120Y14000000D02*
X-68789999Y10533879D01*
%TO.N,Net-(J27-Pin_2)*%
X-127335651Y-4000000D02*
X-89040000Y-4000000D01*
X-89040000Y-4000000D02*
X-88040000Y-3000000D01*
%TO.N,Net-(J26-Pin_2)*%
X-108300000Y3500000D02*
X-88540000Y3500000D01*
X-88540000Y3500000D02*
X-88040000Y4000000D01*
%TO.N,Net-(J25-Pin_2)*%
X-103500000Y14000000D02*
X-88040000Y14000000D01*
%TO.N,Net-(C3-Pad1)*%
X-154289999Y3135261D02*
X-151635261Y3135261D01*
X-151635261Y3135261D02*
X-144500000Y-4000000D01*
X-144500000Y-4000000D02*
X-132415651Y-4000000D01*
X-151702499Y3135261D02*
X-151337760Y3500000D01*
X-151337760Y3500000D02*
X-133700000Y3500000D01*
X-154289999Y3135261D02*
X-144140000Y13285260D01*
X-144140000Y13285260D02*
X-144140000Y14000000D01*
%TO.N,Net-(J22-Pin_1)*%
X-85500000Y22500000D02*
X-70207238Y22500000D01*
X-70207238Y22500000D02*
X-70154999Y22447761D01*
X-85500000Y29500000D02*
X-69100198Y29500000D01*
X-69100198Y29500000D02*
X-68789999Y29189801D01*
X-85500000Y39500000D02*
X-70900199Y39500000D01*
X-70900199Y39500000D02*
X-68789999Y37389800D01*
%TO.N,Net-(J24-Pin_2)*%
X-127335651Y21500000D02*
X-89040000Y21500000D01*
X-89040000Y21500000D02*
X-88040000Y22500000D01*
%TO.N,Net-(J23-Pin_2)*%
X-110300000Y28500000D02*
X-89040000Y28500000D01*
X-89040000Y28500000D02*
X-88040000Y29500000D01*
%TO.N,Net-(J22-Pin_2)*%
X-103680000Y38500000D02*
X-89040000Y38500000D01*
X-89040000Y38500000D02*
X-88040000Y39500000D01*
%TO.N,Net-(J22-Pin_1)*%
X-154789999Y28735261D02*
X-145735261Y28735261D01*
X-138500000Y21500000D02*
X-132415651Y21500000D01*
X-145735261Y28735261D02*
X-138500000Y21500000D01*
X-154789999Y28735261D02*
X-145025260Y38500000D01*
X-145025260Y38500000D02*
X-144320000Y38500000D01*
X-151802499Y28735261D02*
X-151567238Y28500000D01*
X-151567238Y28500000D02*
X-135700000Y28500000D01*
%TO.N,Net-(J1-Pin_1)*%
X-37500000Y-11999999D02*
X-39500000Y-9999999D01*
X-39500000Y-9999999D02*
X-39500000Y26895722D01*
X-68789999Y56185721D02*
X-39500000Y26895722D01*
X-85500000Y48000000D02*
X-76975720Y48000000D01*
X-76975720Y48000000D02*
X-68789999Y56185721D01*
%TO.N,Net-(J21-Pin_2)*%
X-127335651Y47000000D02*
X-89040000Y47000000D01*
X-89040000Y47000000D02*
X-88040000Y48000000D01*
%TO.N,Net-(J1-Pin_1)*%
X-85500000Y55000000D02*
X-69975720Y55000000D01*
X-69975720Y55000000D02*
X-68789999Y56185721D01*
%TO.N,Net-(J2-Pin_2)*%
X-111300000Y54500000D02*
X-88540000Y54500000D01*
X-88540000Y54500000D02*
X-88040000Y55000000D01*
%TO.N,Net-(C2-Pad1)*%
X-154789999Y54235261D02*
X-145025260Y64000000D01*
X-145025260Y64000000D02*
X-144820000Y64000000D01*
X-147735261Y54235261D02*
X-140500000Y47000000D01*
X-154789999Y54235261D02*
X-147735261Y54235261D01*
X-140500000Y47000000D02*
X-132415651Y47000000D01*
X-154789999Y54235261D02*
X-136964739Y54235261D01*
X-136964739Y54235261D02*
X-136700000Y54500000D01*
%TO.N,Net-(J1-Pin_1)*%
X-85500000Y64222761D02*
X-68952958Y64222761D01*
X-68952958Y64222761D02*
X-68789999Y64385720D01*
%TO.N,Net-(J1-Pin_2)*%
X-104180000Y64000000D02*
X-88262761Y64000000D01*
X-88262761Y64000000D02*
X-88040000Y64222761D01*
%TO.N,Net-(C2-Pad1)*%
X-154183739Y54636261D02*
X-154388999Y54636261D01*
%TO.N,Net-(J22-Pin_1)*%
X-159289999Y28847761D02*
X-154902499Y28847761D01*
X-86781250Y39500000D02*
X-86768750Y39500000D01*
X-86781250Y29512500D02*
X-86768750Y29500000D01*
X-154789999Y28735261D02*
X-151802499Y28735261D01*
X-70289999Y38889800D02*
X-68789999Y37389800D01*
X-154902499Y28847761D02*
X-154789999Y28735261D01*
X-70154999Y27824801D02*
X-70154999Y22447761D01*
X-68789999Y29189801D02*
X-70154999Y27824801D01*
X-70289999Y46903681D02*
X-70289999Y38889800D01*
%TO.N,Net-(C2-Pad1)*%
X-159289999Y54347761D02*
X-154902499Y54347761D01*
%TO.N,Net-(J1-Pin_1)*%
X-70289999Y54685721D02*
X-70289999Y49443681D01*
X-68789999Y64385720D02*
X-68789999Y56185721D01*
%TO.N,Net-(C2-Pad1)*%
X-154902499Y54347761D02*
X-154789999Y54235261D01*
%TO.N,Net-(J1-Pin_1)*%
X-85735000Y55460000D02*
X-85775000Y55500000D01*
X-85735000Y55000000D02*
X-85735000Y55460000D01*
X-68789999Y56185721D02*
X-70289999Y54685721D01*
X-85722500Y54987500D02*
X-85735000Y55000000D01*
%TO.N,Net-(C7-Pad1)*%
X-159289999Y-98752239D02*
X-154902499Y-98752239D01*
%TO.N,Net-(J15-Pin_1)*%
X-70284999Y-87475921D02*
X-70284999Y-94012961D01*
%TO.N,Net-(C7-Pad1)*%
X-154789999Y-98864739D02*
X-154789999Y-88277239D01*
X-149789999Y-83277239D02*
X-81020721Y-83277239D01*
%TO.N,Net-(J15-Pin_1)*%
X-86818750Y-98087500D02*
X-86731250Y-98000000D01*
%TO.N,Net-(C7-Pad1)*%
X-154789999Y-88277239D02*
X-149789999Y-83277239D01*
%TO.N,Net-(J15-Pin_1)*%
X-70284999Y-94012961D02*
X-68789999Y-95507961D01*
X-86775000Y-88087500D02*
X-86775000Y-88000000D01*
X-68789999Y-95507961D02*
X-68789999Y-103707960D01*
X-86795000Y-97540000D02*
X-86755000Y-97500000D01*
X-68789999Y-103707960D02*
X-68789999Y-109455000D01*
X-86775000Y-98000000D02*
X-86775000Y-97540000D01*
%TO.N,Net-(C7-Pad1)*%
X-154902499Y-98752239D02*
X-154789999Y-98864739D01*
%TO.N,Net-(J15-Pin_1)*%
X-68789999Y-109455000D02*
X-69784999Y-110450000D01*
%TO.N,Net-(J16-Pin_1)*%
X-68789999Y-121022040D02*
X-68789999Y-129222039D01*
X-86775000Y-123500000D02*
X-86775000Y-124460000D01*
%TO.N,Net-(C8-Pad1)*%
X-159266407Y-123826955D02*
X-154878907Y-123826955D01*
X-154766407Y-123939455D02*
X-153952215Y-123939455D01*
%TO.N,Net-(J16-Pin_1)*%
X-86795000Y-124460000D02*
X-86755000Y-124500000D01*
X-69784999Y-112990000D02*
X-69784999Y-120027040D01*
%TO.N,Net-(C8-Pad1)*%
X-153952215Y-123939455D02*
X-153614431Y-124277239D01*
%TO.N,Net-(J16-Pin_1)*%
X-69784999Y-120027040D02*
X-68789999Y-121022040D01*
X-87937216Y-130500000D02*
X-85612784Y-130500000D01*
%TO.N,Net-(C8-Pad1)*%
X-154878907Y-123826955D02*
X-154766407Y-123939455D01*
X-154766407Y-114300831D02*
X-154789999Y-114277239D01*
%TO.N,Net-(J22-Pin_1)*%
X-129477825Y54222761D02*
X-129473477Y54227109D01*
%TO.N,Net-(J13-Pad6)*%
X-167289999Y-67547543D02*
X-159465165Y-75372377D01*
X-181789999Y-42777241D02*
X-167289999Y-57277241D01*
X-167289999Y-57277241D02*
X-167289999Y-67547543D01*
%TO.N,Net-(C3-Pad1)*%
X-153877499Y3135261D02*
X-153789999Y3222761D01*
X-154289999Y3135261D02*
X-153877499Y3135261D01*
%TO.N,Net-(J10-Pin_2)*%
X-69789999Y1333880D02*
X-69789999Y-4408160D01*
X-70154999Y19907761D02*
X-70154999Y11898879D01*
X-86795000Y13960000D02*
X-86755000Y14000000D01*
X-68789999Y2333880D02*
X-69789999Y1333880D01*
X-68789999Y10533879D02*
X-68789999Y2333880D01*
%TO.N,Net-(C3-Pad1)*%
X-154402499Y3247761D02*
X-154289999Y3135261D01*
X-158789999Y3247761D02*
X-154402499Y3247761D01*
X-154289999Y3135261D02*
X-151702499Y3135261D01*
%TO.N,Net-(J10-Pin_2)*%
X-70154999Y11898879D02*
X-68789999Y10533879D01*
X-86775000Y13412500D02*
X-86775000Y14000000D01*
%TO.N,Net-(J10-Pin_1)*%
X-159289999Y-22252239D02*
X-154902499Y-22252239D01*
X-68789999Y-16192041D02*
X-68789999Y-24392040D01*
X-154902499Y-22252239D02*
X-154789999Y-22364739D01*
X-68789999Y-24392040D02*
X-70289999Y-25892040D01*
X-70289999Y-25892040D02*
X-70289999Y-31134080D01*
X-69789999Y-15192041D02*
X-68789999Y-16192041D01*
X-69789999Y-6948160D02*
X-69789999Y-15192041D01*
X-86775000Y-11587500D02*
X-86775000Y-11500000D01*
%TO.N,Net-(J11-Pin_1)*%
X-86816434Y-47082867D02*
X-86733567Y-47000000D01*
X-86775000Y-37036166D02*
X-86775000Y-37000000D01*
X-68789999Y-57289999D02*
X-69500000Y-58000000D01*
X-68789999Y-43057961D02*
X-68789999Y-51257960D01*
%TO.N,Net-(C5-Pad1)*%
X-154949200Y-47747606D02*
X-154836700Y-47860106D01*
%TO.N,Net-(J11-Pin_1)*%
X-70289999Y-33674080D02*
X-70289999Y-41557961D01*
X-68789999Y-51257960D02*
X-68789999Y-57289999D01*
X-70289999Y-41557961D02*
X-68789999Y-43057961D01*
%TO.N,Net-(C5-Pad1)*%
X-159336700Y-47747606D02*
X-154949200Y-47747606D01*
%TO.N,Net-(J12-Pin_1)*%
X-70284999Y-79688881D02*
X-70284999Y-84935921D01*
X-68789999Y-69993882D02*
X-68789999Y-78193881D01*
X-69500000Y-69283881D02*
X-68789999Y-69993882D01*
X-86816319Y-72582638D02*
X-86733681Y-72500000D01*
X-86795000Y-62540000D02*
X-86755000Y-62500000D01*
X-68789999Y-78193881D02*
X-70284999Y-79688881D01*
%TO.N,Net-(C6-Pad1)*%
X-155077665Y-73247377D02*
X-154965165Y-73359877D01*
%TO.N,Net-(J12-Pin_1)*%
X-86483050Y-79500000D02*
X-87066950Y-79500000D01*
X-86821264Y-62500000D02*
X-86728736Y-62500000D01*
X-69500000Y-60540000D02*
X-69500000Y-69283881D01*
%TO.N,Net-(C6-Pad1)*%
X-159465165Y-73247377D02*
X-155077665Y-73247377D01*
%TO.N,Net-(J13-Pad8)*%
X-181789999Y-49777242D02*
X-181789999Y-103428363D01*
X-181789999Y-103428363D02*
X-159266407Y-125951955D01*
%TO.N,Net-(J13-Pad4)*%
X-181789999Y-35777240D02*
X-170389998Y-24377239D01*
X-170389998Y-24377239D02*
X-159289999Y-24377239D01*
%TO.N,Net-(J13-Pad3)*%
X-158789999Y-9277239D02*
X-158789999Y1122761D01*
X-181789999Y-32277239D02*
X-158789999Y-9277239D01*
%TO.N,Net-(J13-Pad7)*%
X-170789999Y-89377239D02*
X-159289999Y-100877239D01*
X-181789999Y-46277241D02*
X-170789999Y-57277241D01*
X-170789999Y-57277241D02*
X-170789999Y-89377239D01*
%TO.N,Net-(J13-Pad2)*%
X-181789999Y-28777238D02*
X-180588999Y-27576238D01*
X-180588999Y5423761D02*
X-159289999Y26722761D01*
X-180588999Y-27576238D02*
X-180588999Y5423761D01*
%TO.N,Net-(J13-Pad5)*%
X-171194633Y-49872606D02*
X-159336700Y-49872606D01*
X-181789999Y-39277240D02*
X-171194633Y-49872606D01*
%TO.N,Net-(J13-Pad1)*%
X-181789999Y29722761D02*
X-159289999Y52222761D01*
X-181789999Y-25277238D02*
X-181789999Y29722761D01*
%TO.N,Net-(J21-Pin_2)*%
X-112461303Y47222761D02*
X-112369999Y47131457D01*
%TO.N,Net-(J22-Pin_2)*%
X-129482173Y38722761D02*
X-129469130Y38735804D01*
%TO.N,Net-(C3-Pad1)*%
X-129484347Y28722761D02*
X-129466956Y28740152D01*
%TO.N,Net-(J25-Pin_2)*%
X-142249999Y13222761D02*
X-129456086Y13222761D01*
X-129488695Y13222761D02*
X-129462608Y13248848D01*
%TO.N,Net-(J10-Pin_1)*%
X-129490869Y3222761D02*
X-129460434Y3253196D01*
%TO.N,Net-(J28-Pin_2)*%
X-129495216Y-12277239D02*
X-129456086Y-12238109D01*
%TO.N,Net-(J29-Pin_2)*%
X-87025000Y-21500000D02*
X-86525000Y-21500000D01*
X-86796739Y-21500000D02*
X-86753261Y-21456522D01*
%TO.N,Net-(J30-Pin_2)*%
X-111482173Y-29277239D02*
X-111429999Y-29329413D01*
%TO.N,Net-(J31-Pin_2)*%
X-129501738Y-37777239D02*
X-129449564Y-37725065D01*
%TO.N,Net-(C6-Pad1)*%
X-129503912Y-47777239D02*
X-129447390Y-47720717D01*
%TO.N,Net-(J33-Pin_2)*%
X-111469129Y-54777239D02*
X-111429999Y-54816369D01*
%TO.N,Net-(J34-Pin_2)*%
X-129508260Y-63277239D02*
X-129443043Y-63212022D01*
%TO.N,Net-(C7-Pad1)*%
X-129510434Y-73277239D02*
X-129440869Y-73207674D01*
%TO.N,Net-(J36-Pin_2)*%
X-111456086Y-80277239D02*
X-111429999Y-80303326D01*
%TO.N,Net-(J37-Pin_2)*%
X-129514782Y-88777239D02*
X-129436521Y-88698978D01*
%TO.N,Net-(C8-Pad1)*%
X-129516956Y-98777239D02*
X-129434347Y-98694630D01*
%TO.N,Net-(J39-Pin_2)*%
X-111443042Y-105777239D02*
X-111429999Y-105790282D01*
%TO.N,Net-(J40-Pin_2)*%
X-129521303Y-114277239D02*
X-129429999Y-114185935D01*
%TO.N,Net-(J41-Pin_2)*%
X-129523477Y-124277239D02*
X-129427825Y-124181587D01*
%TD*%
M02*
