%TF.GenerationSoftware,KiCad,Pcbnew,9.0.5*%
%TF.CreationDate,2025-11-16T19:12:02-08:00*%
%TF.ProjectId,measurementcircuit,6d656173-7572-4656-9d65-6e7463697263,rev?*%
%TF.SameCoordinates,Original*%
%TF.FileFunction,Legend,Top*%
%TF.FilePolarity,Positive*%
%FSLAX46Y46*%
G04 Gerber Fmt 4.6, Leading zero omitted, Abs format (unit mm)*
G04 Created by KiCad (PCBNEW 9.0.5) date 2025-11-16 19:12:02*
%MOMM*%
%LPD*%
G01*
G04 APERTURE LIST*
%ADD10C,0.150000*%
%ADD11C,0.120000*%
%ADD12C,0.152400*%
%ADD13C,0.508000*%
G04 APERTURE END LIST*
D10*
X-156995180Y52895833D02*
X-156995180Y52419643D01*
X-156995180Y52419643D02*
X-157995180Y52419643D01*
X-156995180Y53752976D02*
X-156995180Y53181548D01*
X-156995180Y53467262D02*
X-157995180Y53467262D01*
X-157995180Y53467262D02*
X-157852323Y53372024D01*
X-157852323Y53372024D02*
X-157757085Y53276786D01*
X-157757085Y53276786D02*
X-157709466Y53181548D01*
X-152750418Y53118594D02*
X-152702799Y53070975D01*
X-152702799Y53070975D02*
X-152655179Y52928118D01*
X-152655179Y52928118D02*
X-152655179Y52832880D01*
X-152655179Y52832880D02*
X-152702799Y52690023D01*
X-152702799Y52690023D02*
X-152798037Y52594785D01*
X-152798037Y52594785D02*
X-152893275Y52547166D01*
X-152893275Y52547166D02*
X-153083751Y52499547D01*
X-153083751Y52499547D02*
X-153226608Y52499547D01*
X-153226608Y52499547D02*
X-153417084Y52547166D01*
X-153417084Y52547166D02*
X-153512322Y52594785D01*
X-153512322Y52594785D02*
X-153607560Y52690023D01*
X-153607560Y52690023D02*
X-153655179Y52832880D01*
X-153655179Y52832880D02*
X-153655179Y52928118D01*
X-153655179Y52928118D02*
X-153607560Y53070975D01*
X-153607560Y53070975D02*
X-153559941Y53118594D01*
X-153559941Y53499547D02*
X-153607560Y53547166D01*
X-153607560Y53547166D02*
X-153655179Y53642404D01*
X-153655179Y53642404D02*
X-153655179Y53880499D01*
X-153655179Y53880499D02*
X-153607560Y53975737D01*
X-153607560Y53975737D02*
X-153559941Y54023356D01*
X-153559941Y54023356D02*
X-153464703Y54070975D01*
X-153464703Y54070975D02*
X-153369465Y54070975D01*
X-153369465Y54070975D02*
X-153226608Y54023356D01*
X-153226608Y54023356D02*
X-152655179Y53451928D01*
X-152655179Y53451928D02*
X-152655179Y54070975D01*
X-83665180Y47190476D02*
X-82950895Y47190476D01*
X-82950895Y47190476D02*
X-82808038Y47142857D01*
X-82808038Y47142857D02*
X-82712800Y47047619D01*
X-82712800Y47047619D02*
X-82665180Y46904762D01*
X-82665180Y46904762D02*
X-82665180Y46809524D01*
X-83569942Y47619048D02*
X-83617561Y47666667D01*
X-83617561Y47666667D02*
X-83665180Y47761905D01*
X-83665180Y47761905D02*
X-83665180Y48000000D01*
X-83665180Y48000000D02*
X-83617561Y48095238D01*
X-83617561Y48095238D02*
X-83569942Y48142857D01*
X-83569942Y48142857D02*
X-83474704Y48190476D01*
X-83474704Y48190476D02*
X-83379466Y48190476D01*
X-83379466Y48190476D02*
X-83236609Y48142857D01*
X-83236609Y48142857D02*
X-82665180Y47571429D01*
X-82665180Y47571429D02*
X-82665180Y48190476D01*
X-82665180Y49142857D02*
X-82665180Y48571429D01*
X-82665180Y48857143D02*
X-83665180Y48857143D01*
X-83665180Y48857143D02*
X-83522323Y48761905D01*
X-83522323Y48761905D02*
X-83427085Y48666667D01*
X-83427085Y48666667D02*
X-83379466Y48571429D01*
X-83665180Y-29309523D02*
X-82950895Y-29309523D01*
X-82950895Y-29309523D02*
X-82808038Y-29357142D01*
X-82808038Y-29357142D02*
X-82712800Y-29452380D01*
X-82712800Y-29452380D02*
X-82665180Y-29595237D01*
X-82665180Y-29595237D02*
X-82665180Y-29690475D01*
X-83665180Y-28928570D02*
X-83665180Y-28309523D01*
X-83665180Y-28309523D02*
X-83284228Y-28642856D01*
X-83284228Y-28642856D02*
X-83284228Y-28499999D01*
X-83284228Y-28499999D02*
X-83236609Y-28404761D01*
X-83236609Y-28404761D02*
X-83188990Y-28357142D01*
X-83188990Y-28357142D02*
X-83093752Y-28309523D01*
X-83093752Y-28309523D02*
X-82855657Y-28309523D01*
X-82855657Y-28309523D02*
X-82760419Y-28357142D01*
X-82760419Y-28357142D02*
X-82712800Y-28404761D01*
X-82712800Y-28404761D02*
X-82665180Y-28499999D01*
X-82665180Y-28499999D02*
X-82665180Y-28785713D01*
X-82665180Y-28785713D02*
X-82712800Y-28880951D01*
X-82712800Y-28880951D02*
X-82760419Y-28928570D01*
X-83665180Y-27690475D02*
X-83665180Y-27595237D01*
X-83665180Y-27595237D02*
X-83617561Y-27499999D01*
X-83617561Y-27499999D02*
X-83569942Y-27452380D01*
X-83569942Y-27452380D02*
X-83474704Y-27404761D01*
X-83474704Y-27404761D02*
X-83284228Y-27357142D01*
X-83284228Y-27357142D02*
X-83046133Y-27357142D01*
X-83046133Y-27357142D02*
X-82855657Y-27404761D01*
X-82855657Y-27404761D02*
X-82760419Y-27452380D01*
X-82760419Y-27452380D02*
X-82712800Y-27499999D01*
X-82712800Y-27499999D02*
X-82665180Y-27595237D01*
X-82665180Y-27595237D02*
X-82665180Y-27690475D01*
X-82665180Y-27690475D02*
X-82712800Y-27785713D01*
X-82712800Y-27785713D02*
X-82760419Y-27833332D01*
X-82760419Y-27833332D02*
X-82855657Y-27880951D01*
X-82855657Y-27880951D02*
X-83046133Y-27928570D01*
X-83046133Y-27928570D02*
X-83284228Y-27928570D01*
X-83284228Y-27928570D02*
X-83474704Y-27880951D01*
X-83474704Y-27880951D02*
X-83569942Y-27833332D01*
X-83569942Y-27833332D02*
X-83617561Y-27785713D01*
X-83617561Y-27785713D02*
X-83665180Y-27690475D01*
X-152250418Y2018594D02*
X-152202799Y1970975D01*
X-152202799Y1970975D02*
X-152155179Y1828118D01*
X-152155179Y1828118D02*
X-152155179Y1732880D01*
X-152155179Y1732880D02*
X-152202799Y1590023D01*
X-152202799Y1590023D02*
X-152298037Y1494785D01*
X-152298037Y1494785D02*
X-152393275Y1447166D01*
X-152393275Y1447166D02*
X-152583751Y1399547D01*
X-152583751Y1399547D02*
X-152726608Y1399547D01*
X-152726608Y1399547D02*
X-152917084Y1447166D01*
X-152917084Y1447166D02*
X-153012322Y1494785D01*
X-153012322Y1494785D02*
X-153107560Y1590023D01*
X-153107560Y1590023D02*
X-153155179Y1732880D01*
X-153155179Y1732880D02*
X-153155179Y1828118D01*
X-153155179Y1828118D02*
X-153107560Y1970975D01*
X-153107560Y1970975D02*
X-153059941Y2018594D01*
X-153155179Y2351928D02*
X-153155179Y2970975D01*
X-153155179Y2970975D02*
X-152774227Y2637642D01*
X-152774227Y2637642D02*
X-152774227Y2780499D01*
X-152774227Y2780499D02*
X-152726608Y2875737D01*
X-152726608Y2875737D02*
X-152678989Y2923356D01*
X-152678989Y2923356D02*
X-152583751Y2970975D01*
X-152583751Y2970975D02*
X-152345656Y2970975D01*
X-152345656Y2970975D02*
X-152250418Y2923356D01*
X-152250418Y2923356D02*
X-152202799Y2875737D01*
X-152202799Y2875737D02*
X-152155179Y2780499D01*
X-152155179Y2780499D02*
X-152155179Y2494785D01*
X-152155179Y2494785D02*
X-152202799Y2399547D01*
X-152202799Y2399547D02*
X-152250418Y2351928D01*
X-83665180Y38690476D02*
X-82950895Y38690476D01*
X-82950895Y38690476D02*
X-82808038Y38642857D01*
X-82808038Y38642857D02*
X-82712800Y38547619D01*
X-82712800Y38547619D02*
X-82665180Y38404762D01*
X-82665180Y38404762D02*
X-82665180Y38309524D01*
X-83569942Y39119048D02*
X-83617561Y39166667D01*
X-83617561Y39166667D02*
X-83665180Y39261905D01*
X-83665180Y39261905D02*
X-83665180Y39500000D01*
X-83665180Y39500000D02*
X-83617561Y39595238D01*
X-83617561Y39595238D02*
X-83569942Y39642857D01*
X-83569942Y39642857D02*
X-83474704Y39690476D01*
X-83474704Y39690476D02*
X-83379466Y39690476D01*
X-83379466Y39690476D02*
X-83236609Y39642857D01*
X-83236609Y39642857D02*
X-82665180Y39071429D01*
X-82665180Y39071429D02*
X-82665180Y39690476D01*
X-83569942Y40071429D02*
X-83617561Y40119048D01*
X-83617561Y40119048D02*
X-83665180Y40214286D01*
X-83665180Y40214286D02*
X-83665180Y40452381D01*
X-83665180Y40452381D02*
X-83617561Y40547619D01*
X-83617561Y40547619D02*
X-83569942Y40595238D01*
X-83569942Y40595238D02*
X-83474704Y40642857D01*
X-83474704Y40642857D02*
X-83379466Y40642857D01*
X-83379466Y40642857D02*
X-83236609Y40595238D01*
X-83236609Y40595238D02*
X-82665180Y40023810D01*
X-82665180Y40023810D02*
X-82665180Y40642857D01*
X-152797119Y-48976772D02*
X-152749500Y-49024391D01*
X-152749500Y-49024391D02*
X-152701880Y-49167248D01*
X-152701880Y-49167248D02*
X-152701880Y-49262486D01*
X-152701880Y-49262486D02*
X-152749500Y-49405343D01*
X-152749500Y-49405343D02*
X-152844738Y-49500581D01*
X-152844738Y-49500581D02*
X-152939976Y-49548200D01*
X-152939976Y-49548200D02*
X-153130452Y-49595819D01*
X-153130452Y-49595819D02*
X-153273309Y-49595819D01*
X-153273309Y-49595819D02*
X-153463785Y-49548200D01*
X-153463785Y-49548200D02*
X-153559023Y-49500581D01*
X-153559023Y-49500581D02*
X-153654261Y-49405343D01*
X-153654261Y-49405343D02*
X-153701880Y-49262486D01*
X-153701880Y-49262486D02*
X-153701880Y-49167248D01*
X-153701880Y-49167248D02*
X-153654261Y-49024391D01*
X-153654261Y-49024391D02*
X-153606642Y-48976772D01*
X-153701880Y-48072010D02*
X-153701880Y-48548200D01*
X-153701880Y-48548200D02*
X-153225690Y-48595819D01*
X-153225690Y-48595819D02*
X-153273309Y-48548200D01*
X-153273309Y-48548200D02*
X-153320928Y-48452962D01*
X-153320928Y-48452962D02*
X-153320928Y-48214867D01*
X-153320928Y-48214867D02*
X-153273309Y-48119629D01*
X-153273309Y-48119629D02*
X-153225690Y-48072010D01*
X-153225690Y-48072010D02*
X-153130452Y-48024391D01*
X-153130452Y-48024391D02*
X-152892357Y-48024391D01*
X-152892357Y-48024391D02*
X-152797119Y-48072010D01*
X-152797119Y-48072010D02*
X-152749500Y-48119629D01*
X-152749500Y-48119629D02*
X-152701880Y-48214867D01*
X-152701880Y-48214867D02*
X-152701880Y-48452962D01*
X-152701880Y-48452962D02*
X-152749500Y-48548200D01*
X-152749500Y-48548200D02*
X-152797119Y-48595819D01*
X-83665180Y-54809523D02*
X-82950895Y-54809523D01*
X-82950895Y-54809523D02*
X-82808038Y-54857142D01*
X-82808038Y-54857142D02*
X-82712800Y-54952380D01*
X-82712800Y-54952380D02*
X-82665180Y-55095237D01*
X-82665180Y-55095237D02*
X-82665180Y-55190475D01*
X-83665180Y-54428570D02*
X-83665180Y-53809523D01*
X-83665180Y-53809523D02*
X-83284228Y-54142856D01*
X-83284228Y-54142856D02*
X-83284228Y-53999999D01*
X-83284228Y-53999999D02*
X-83236609Y-53904761D01*
X-83236609Y-53904761D02*
X-83188990Y-53857142D01*
X-83188990Y-53857142D02*
X-83093752Y-53809523D01*
X-83093752Y-53809523D02*
X-82855657Y-53809523D01*
X-82855657Y-53809523D02*
X-82760419Y-53857142D01*
X-82760419Y-53857142D02*
X-82712800Y-53904761D01*
X-82712800Y-53904761D02*
X-82665180Y-53999999D01*
X-82665180Y-53999999D02*
X-82665180Y-54285713D01*
X-82665180Y-54285713D02*
X-82712800Y-54380951D01*
X-82712800Y-54380951D02*
X-82760419Y-54428570D01*
X-83665180Y-53476189D02*
X-83665180Y-52857142D01*
X-83665180Y-52857142D02*
X-83284228Y-53190475D01*
X-83284228Y-53190475D02*
X-83284228Y-53047618D01*
X-83284228Y-53047618D02*
X-83236609Y-52952380D01*
X-83236609Y-52952380D02*
X-83188990Y-52904761D01*
X-83188990Y-52904761D02*
X-83093752Y-52857142D01*
X-83093752Y-52857142D02*
X-82855657Y-52857142D01*
X-82855657Y-52857142D02*
X-82760419Y-52904761D01*
X-82760419Y-52904761D02*
X-82712800Y-52952380D01*
X-82712800Y-52952380D02*
X-82665180Y-53047618D01*
X-82665180Y-53047618D02*
X-82665180Y-53333332D01*
X-82665180Y-53333332D02*
X-82712800Y-53428570D01*
X-82712800Y-53428570D02*
X-82760419Y-53476189D01*
X-160361587Y-125056121D02*
X-160361587Y-125532311D01*
X-160361587Y-125532311D02*
X-161361587Y-125532311D01*
X-160933016Y-124579930D02*
X-160980635Y-124675168D01*
X-160980635Y-124675168D02*
X-161028254Y-124722787D01*
X-161028254Y-124722787D02*
X-161123492Y-124770406D01*
X-161123492Y-124770406D02*
X-161171111Y-124770406D01*
X-161171111Y-124770406D02*
X-161266349Y-124722787D01*
X-161266349Y-124722787D02*
X-161313968Y-124675168D01*
X-161313968Y-124675168D02*
X-161361587Y-124579930D01*
X-161361587Y-124579930D02*
X-161361587Y-124389454D01*
X-161361587Y-124389454D02*
X-161313968Y-124294216D01*
X-161313968Y-124294216D02*
X-161266349Y-124246597D01*
X-161266349Y-124246597D02*
X-161171111Y-124198978D01*
X-161171111Y-124198978D02*
X-161123492Y-124198978D01*
X-161123492Y-124198978D02*
X-161028254Y-124246597D01*
X-161028254Y-124246597D02*
X-160980635Y-124294216D01*
X-160980635Y-124294216D02*
X-160933016Y-124389454D01*
X-160933016Y-124389454D02*
X-160933016Y-124579930D01*
X-160933016Y-124579930D02*
X-160885397Y-124675168D01*
X-160885397Y-124675168D02*
X-160837778Y-124722787D01*
X-160837778Y-124722787D02*
X-160742540Y-124770406D01*
X-160742540Y-124770406D02*
X-160552064Y-124770406D01*
X-160552064Y-124770406D02*
X-160456826Y-124722787D01*
X-160456826Y-124722787D02*
X-160409207Y-124675168D01*
X-160409207Y-124675168D02*
X-160361587Y-124579930D01*
X-160361587Y-124579930D02*
X-160361587Y-124389454D01*
X-160361587Y-124389454D02*
X-160409207Y-124294216D01*
X-160409207Y-124294216D02*
X-160456826Y-124246597D01*
X-160456826Y-124246597D02*
X-160552064Y-124198978D01*
X-160552064Y-124198978D02*
X-160742540Y-124198978D01*
X-160742540Y-124198978D02*
X-160837778Y-124246597D01*
X-160837778Y-124246597D02*
X-160885397Y-124294216D01*
X-160885397Y-124294216D02*
X-160933016Y-124389454D01*
X-70594522Y-114824819D02*
X-70594522Y-115539104D01*
X-70594522Y-115539104D02*
X-70642141Y-115681961D01*
X-70642141Y-115681961D02*
X-70737379Y-115777200D01*
X-70737379Y-115777200D02*
X-70880236Y-115824819D01*
X-70880236Y-115824819D02*
X-70975474Y-115824819D01*
X-69594522Y-115824819D02*
X-70165950Y-115824819D01*
X-69880236Y-115824819D02*
X-69880236Y-114824819D01*
X-69880236Y-114824819D02*
X-69975474Y-114967676D01*
X-69975474Y-114967676D02*
X-70070712Y-115062914D01*
X-70070712Y-115062914D02*
X-70165950Y-115110533D01*
X-68737379Y-114824819D02*
X-68927855Y-114824819D01*
X-68927855Y-114824819D02*
X-69023093Y-114872438D01*
X-69023093Y-114872438D02*
X-69070712Y-114920057D01*
X-69070712Y-114920057D02*
X-69165950Y-115062914D01*
X-69165950Y-115062914D02*
X-69213569Y-115253390D01*
X-69213569Y-115253390D02*
X-69213569Y-115634342D01*
X-69213569Y-115634342D02*
X-69165950Y-115729580D01*
X-69165950Y-115729580D02*
X-69118331Y-115777200D01*
X-69118331Y-115777200D02*
X-69023093Y-115824819D01*
X-69023093Y-115824819D02*
X-68832617Y-115824819D01*
X-68832617Y-115824819D02*
X-68737379Y-115777200D01*
X-68737379Y-115777200D02*
X-68689760Y-115729580D01*
X-68689760Y-115729580D02*
X-68642141Y-115634342D01*
X-68642141Y-115634342D02*
X-68642141Y-115396247D01*
X-68642141Y-115396247D02*
X-68689760Y-115301009D01*
X-68689760Y-115301009D02*
X-68737379Y-115253390D01*
X-68737379Y-115253390D02*
X-68832617Y-115205771D01*
X-68832617Y-115205771D02*
X-69023093Y-115205771D01*
X-69023093Y-115205771D02*
X-69118331Y-115253390D01*
X-69118331Y-115253390D02*
X-69165950Y-115301009D01*
X-69165950Y-115301009D02*
X-69213569Y-115396247D01*
X-160385179Y-99981405D02*
X-160385179Y-100457595D01*
X-160385179Y-100457595D02*
X-161385179Y-100457595D01*
X-161385179Y-99743309D02*
X-161385179Y-99076643D01*
X-161385179Y-99076643D02*
X-160385179Y-99505214D01*
X-130118508Y-52274819D02*
X-130451841Y-51798628D01*
X-130689936Y-52274819D02*
X-130689936Y-51274819D01*
X-130689936Y-51274819D02*
X-130308984Y-51274819D01*
X-130308984Y-51274819D02*
X-130213746Y-51322438D01*
X-130213746Y-51322438D02*
X-130166127Y-51370057D01*
X-130166127Y-51370057D02*
X-130118508Y-51465295D01*
X-130118508Y-51465295D02*
X-130118508Y-51608152D01*
X-130118508Y-51608152D02*
X-130166127Y-51703390D01*
X-130166127Y-51703390D02*
X-130213746Y-51751009D01*
X-130213746Y-51751009D02*
X-130308984Y-51798628D01*
X-130308984Y-51798628D02*
X-130689936Y-51798628D01*
X-129166127Y-52274819D02*
X-129737555Y-52274819D01*
X-129451841Y-52274819D02*
X-129451841Y-51274819D01*
X-129451841Y-51274819D02*
X-129547079Y-51417676D01*
X-129547079Y-51417676D02*
X-129642317Y-51512914D01*
X-129642317Y-51512914D02*
X-129737555Y-51560533D01*
X-128308984Y-51608152D02*
X-128308984Y-52274819D01*
X-128547079Y-51227200D02*
X-128785174Y-51941485D01*
X-128785174Y-51941485D02*
X-128166127Y-51941485D01*
X-83665180Y-73972856D02*
X-82950895Y-73972856D01*
X-82950895Y-73972856D02*
X-82808038Y-74020475D01*
X-82808038Y-74020475D02*
X-82712800Y-74115713D01*
X-82712800Y-74115713D02*
X-82665180Y-74258570D01*
X-82665180Y-74258570D02*
X-82665180Y-74353808D01*
X-83665180Y-73591903D02*
X-83665180Y-72972856D01*
X-83665180Y-72972856D02*
X-83284228Y-73306189D01*
X-83284228Y-73306189D02*
X-83284228Y-73163332D01*
X-83284228Y-73163332D02*
X-83236609Y-73068094D01*
X-83236609Y-73068094D02*
X-83188990Y-73020475D01*
X-83188990Y-73020475D02*
X-83093752Y-72972856D01*
X-83093752Y-72972856D02*
X-82855657Y-72972856D01*
X-82855657Y-72972856D02*
X-82760419Y-73020475D01*
X-82760419Y-73020475D02*
X-82712800Y-73068094D01*
X-82712800Y-73068094D02*
X-82665180Y-73163332D01*
X-82665180Y-73163332D02*
X-82665180Y-73449046D01*
X-82665180Y-73449046D02*
X-82712800Y-73544284D01*
X-82712800Y-73544284D02*
X-82760419Y-73591903D01*
X-83665180Y-72068094D02*
X-83665180Y-72544284D01*
X-83665180Y-72544284D02*
X-83188990Y-72591903D01*
X-83188990Y-72591903D02*
X-83236609Y-72544284D01*
X-83236609Y-72544284D02*
X-83284228Y-72449046D01*
X-83284228Y-72449046D02*
X-83284228Y-72210951D01*
X-83284228Y-72210951D02*
X-83236609Y-72115713D01*
X-83236609Y-72115713D02*
X-83188990Y-72068094D01*
X-83188990Y-72068094D02*
X-83093752Y-72020475D01*
X-83093752Y-72020475D02*
X-82855657Y-72020475D01*
X-82855657Y-72020475D02*
X-82760419Y-72068094D01*
X-82760419Y-72068094D02*
X-82712800Y-72115713D01*
X-82712800Y-72115713D02*
X-82665180Y-72210951D01*
X-82665180Y-72210951D02*
X-82665180Y-72449046D01*
X-82665180Y-72449046D02*
X-82712800Y-72544284D01*
X-82712800Y-72544284D02*
X-82760419Y-72591903D01*
X-64823333Y-46612779D02*
X-64823333Y-47327064D01*
X-64823333Y-47327064D02*
X-64870952Y-47469921D01*
X-64870952Y-47469921D02*
X-64966190Y-47565160D01*
X-64966190Y-47565160D02*
X-65109047Y-47612779D01*
X-65109047Y-47612779D02*
X-65204285Y-47612779D01*
X-64442380Y-46612779D02*
X-63775714Y-46612779D01*
X-63775714Y-46612779D02*
X-64204285Y-47612779D01*
X-83665180Y-131309523D02*
X-82950895Y-131309523D01*
X-82950895Y-131309523D02*
X-82808038Y-131357142D01*
X-82808038Y-131357142D02*
X-82712800Y-131452380D01*
X-82712800Y-131452380D02*
X-82665180Y-131595237D01*
X-82665180Y-131595237D02*
X-82665180Y-131690475D01*
X-83331847Y-130404761D02*
X-82665180Y-130404761D01*
X-83712800Y-130642856D02*
X-82998514Y-130880951D01*
X-82998514Y-130880951D02*
X-82998514Y-130261904D01*
X-83569942Y-129928570D02*
X-83617561Y-129880951D01*
X-83617561Y-129880951D02*
X-83665180Y-129785713D01*
X-83665180Y-129785713D02*
X-83665180Y-129547618D01*
X-83665180Y-129547618D02*
X-83617561Y-129452380D01*
X-83617561Y-129452380D02*
X-83569942Y-129404761D01*
X-83569942Y-129404761D02*
X-83474704Y-129357142D01*
X-83474704Y-129357142D02*
X-83379466Y-129357142D01*
X-83379466Y-129357142D02*
X-83236609Y-129404761D01*
X-83236609Y-129404761D02*
X-82665180Y-129976189D01*
X-82665180Y-129976189D02*
X-82665180Y-129357142D01*
X-70488332Y18072941D02*
X-70488332Y17358656D01*
X-70488332Y17358656D02*
X-70535951Y17215799D01*
X-70535951Y17215799D02*
X-70631189Y17120561D01*
X-70631189Y17120561D02*
X-70774046Y17072941D01*
X-70774046Y17072941D02*
X-70869284Y17072941D01*
X-69964522Y17072941D02*
X-69774046Y17072941D01*
X-69774046Y17072941D02*
X-69678808Y17120561D01*
X-69678808Y17120561D02*
X-69631189Y17168180D01*
X-69631189Y17168180D02*
X-69535951Y17311037D01*
X-69535951Y17311037D02*
X-69488332Y17501513D01*
X-69488332Y17501513D02*
X-69488332Y17882465D01*
X-69488332Y17882465D02*
X-69535951Y17977703D01*
X-69535951Y17977703D02*
X-69583570Y18025322D01*
X-69583570Y18025322D02*
X-69678808Y18072941D01*
X-69678808Y18072941D02*
X-69869284Y18072941D01*
X-69869284Y18072941D02*
X-69964522Y18025322D01*
X-69964522Y18025322D02*
X-70012141Y17977703D01*
X-70012141Y17977703D02*
X-70059760Y17882465D01*
X-70059760Y17882465D02*
X-70059760Y17644370D01*
X-70059760Y17644370D02*
X-70012141Y17549132D01*
X-70012141Y17549132D02*
X-69964522Y17501513D01*
X-69964522Y17501513D02*
X-69869284Y17453894D01*
X-69869284Y17453894D02*
X-69678808Y17453894D01*
X-69678808Y17453894D02*
X-69583570Y17501513D01*
X-69583570Y17501513D02*
X-69535951Y17549132D01*
X-69535951Y17549132D02*
X-69488332Y17644370D01*
X-130118508Y-94574819D02*
X-130451841Y-94098628D01*
X-130689936Y-94574819D02*
X-130689936Y-93574819D01*
X-130689936Y-93574819D02*
X-130308984Y-93574819D01*
X-130308984Y-93574819D02*
X-130213746Y-93622438D01*
X-130213746Y-93622438D02*
X-130166127Y-93670057D01*
X-130166127Y-93670057D02*
X-130118508Y-93765295D01*
X-130118508Y-93765295D02*
X-130118508Y-93908152D01*
X-130118508Y-93908152D02*
X-130166127Y-94003390D01*
X-130166127Y-94003390D02*
X-130213746Y-94051009D01*
X-130213746Y-94051009D02*
X-130308984Y-94098628D01*
X-130308984Y-94098628D02*
X-130689936Y-94098628D01*
X-129166127Y-94574819D02*
X-129737555Y-94574819D01*
X-129451841Y-94574819D02*
X-129451841Y-93574819D01*
X-129451841Y-93574819D02*
X-129547079Y-93717676D01*
X-129547079Y-93717676D02*
X-129642317Y-93812914D01*
X-129642317Y-93812914D02*
X-129737555Y-93860533D01*
X-128689936Y-94574819D02*
X-128499460Y-94574819D01*
X-128499460Y-94574819D02*
X-128404222Y-94527200D01*
X-128404222Y-94527200D02*
X-128356603Y-94479580D01*
X-128356603Y-94479580D02*
X-128261365Y-94336723D01*
X-128261365Y-94336723D02*
X-128213746Y-94146247D01*
X-128213746Y-94146247D02*
X-128213746Y-93765295D01*
X-128213746Y-93765295D02*
X-128261365Y-93670057D01*
X-128261365Y-93670057D02*
X-128308984Y-93622438D01*
X-128308984Y-93622438D02*
X-128404222Y-93574819D01*
X-128404222Y-93574819D02*
X-128594698Y-93574819D01*
X-128594698Y-93574819D02*
X-128689936Y-93622438D01*
X-128689936Y-93622438D02*
X-128737555Y-93670057D01*
X-128737555Y-93670057D02*
X-128785174Y-93765295D01*
X-128785174Y-93765295D02*
X-128785174Y-94003390D01*
X-128785174Y-94003390D02*
X-128737555Y-94098628D01*
X-128737555Y-94098628D02*
X-128689936Y-94146247D01*
X-128689936Y-94146247D02*
X-128594698Y-94193866D01*
X-128594698Y-94193866D02*
X-128404222Y-94193866D01*
X-128404222Y-94193866D02*
X-128308984Y-94146247D01*
X-128308984Y-94146247D02*
X-128261365Y-94098628D01*
X-128261365Y-94098628D02*
X-128213746Y-94003390D01*
X-83665180Y63889427D02*
X-82950895Y63889427D01*
X-82950895Y63889427D02*
X-82808038Y63841808D01*
X-82808038Y63841808D02*
X-82712800Y63746570D01*
X-82712800Y63746570D02*
X-82665180Y63603713D01*
X-82665180Y63603713D02*
X-82665180Y63508475D01*
X-82665180Y64889427D02*
X-82665180Y64317999D01*
X-82665180Y64603713D02*
X-83665180Y64603713D01*
X-83665180Y64603713D02*
X-83522323Y64508475D01*
X-83522323Y64508475D02*
X-83427085Y64413237D01*
X-83427085Y64413237D02*
X-83379466Y64317999D01*
X-152750418Y-23481405D02*
X-152702799Y-23529024D01*
X-152702799Y-23529024D02*
X-152655179Y-23671881D01*
X-152655179Y-23671881D02*
X-152655179Y-23767119D01*
X-152655179Y-23767119D02*
X-152702799Y-23909976D01*
X-152702799Y-23909976D02*
X-152798037Y-24005214D01*
X-152798037Y-24005214D02*
X-152893275Y-24052833D01*
X-152893275Y-24052833D02*
X-153083751Y-24100452D01*
X-153083751Y-24100452D02*
X-153226608Y-24100452D01*
X-153226608Y-24100452D02*
X-153417084Y-24052833D01*
X-153417084Y-24052833D02*
X-153512322Y-24005214D01*
X-153512322Y-24005214D02*
X-153607560Y-23909976D01*
X-153607560Y-23909976D02*
X-153655179Y-23767119D01*
X-153655179Y-23767119D02*
X-153655179Y-23671881D01*
X-153655179Y-23671881D02*
X-153607560Y-23529024D01*
X-153607560Y-23529024D02*
X-153559941Y-23481405D01*
X-153321846Y-22624262D02*
X-152655179Y-22624262D01*
X-153702799Y-22862357D02*
X-152988513Y-23100452D01*
X-152988513Y-23100452D02*
X-152988513Y-22481405D01*
X-130118508Y-120074819D02*
X-130451841Y-119598628D01*
X-130689936Y-120074819D02*
X-130689936Y-119074819D01*
X-130689936Y-119074819D02*
X-130308984Y-119074819D01*
X-130308984Y-119074819D02*
X-130213746Y-119122438D01*
X-130213746Y-119122438D02*
X-130166127Y-119170057D01*
X-130166127Y-119170057D02*
X-130118508Y-119265295D01*
X-130118508Y-119265295D02*
X-130118508Y-119408152D01*
X-130118508Y-119408152D02*
X-130166127Y-119503390D01*
X-130166127Y-119503390D02*
X-130213746Y-119551009D01*
X-130213746Y-119551009D02*
X-130308984Y-119598628D01*
X-130308984Y-119598628D02*
X-130689936Y-119598628D01*
X-129737555Y-119170057D02*
X-129689936Y-119122438D01*
X-129689936Y-119122438D02*
X-129594698Y-119074819D01*
X-129594698Y-119074819D02*
X-129356603Y-119074819D01*
X-129356603Y-119074819D02*
X-129261365Y-119122438D01*
X-129261365Y-119122438D02*
X-129213746Y-119170057D01*
X-129213746Y-119170057D02*
X-129166127Y-119265295D01*
X-129166127Y-119265295D02*
X-129166127Y-119360533D01*
X-129166127Y-119360533D02*
X-129213746Y-119503390D01*
X-129213746Y-119503390D02*
X-129785174Y-120074819D01*
X-129785174Y-120074819D02*
X-129166127Y-120074819D01*
X-128785174Y-119170057D02*
X-128737555Y-119122438D01*
X-128737555Y-119122438D02*
X-128642317Y-119074819D01*
X-128642317Y-119074819D02*
X-128404222Y-119074819D01*
X-128404222Y-119074819D02*
X-128308984Y-119122438D01*
X-128308984Y-119122438D02*
X-128261365Y-119170057D01*
X-128261365Y-119170057D02*
X-128213746Y-119265295D01*
X-128213746Y-119265295D02*
X-128213746Y-119360533D01*
X-128213746Y-119360533D02*
X-128261365Y-119503390D01*
X-128261365Y-119503390D02*
X-128832793Y-120074819D01*
X-128832793Y-120074819D02*
X-128213746Y-120074819D01*
X-130042317Y-7174819D02*
X-130375650Y-6698628D01*
X-130613745Y-7174819D02*
X-130613745Y-6174819D01*
X-130613745Y-6174819D02*
X-130232793Y-6174819D01*
X-130232793Y-6174819D02*
X-130137555Y-6222438D01*
X-130137555Y-6222438D02*
X-130089936Y-6270057D01*
X-130089936Y-6270057D02*
X-130042317Y-6365295D01*
X-130042317Y-6365295D02*
X-130042317Y-6508152D01*
X-130042317Y-6508152D02*
X-130089936Y-6603390D01*
X-130089936Y-6603390D02*
X-130137555Y-6651009D01*
X-130137555Y-6651009D02*
X-130232793Y-6698628D01*
X-130232793Y-6698628D02*
X-130613745Y-6698628D01*
X-129566126Y-7174819D02*
X-129375650Y-7174819D01*
X-129375650Y-7174819D02*
X-129280412Y-7127200D01*
X-129280412Y-7127200D02*
X-129232793Y-7079580D01*
X-129232793Y-7079580D02*
X-129137555Y-6936723D01*
X-129137555Y-6936723D02*
X-129089936Y-6746247D01*
X-129089936Y-6746247D02*
X-129089936Y-6365295D01*
X-129089936Y-6365295D02*
X-129137555Y-6270057D01*
X-129137555Y-6270057D02*
X-129185174Y-6222438D01*
X-129185174Y-6222438D02*
X-129280412Y-6174819D01*
X-129280412Y-6174819D02*
X-129470888Y-6174819D01*
X-129470888Y-6174819D02*
X-129566126Y-6222438D01*
X-129566126Y-6222438D02*
X-129613745Y-6270057D01*
X-129613745Y-6270057D02*
X-129661364Y-6365295D01*
X-129661364Y-6365295D02*
X-129661364Y-6603390D01*
X-129661364Y-6603390D02*
X-129613745Y-6698628D01*
X-129613745Y-6698628D02*
X-129566126Y-6746247D01*
X-129566126Y-6746247D02*
X-129470888Y-6793866D01*
X-129470888Y-6793866D02*
X-129280412Y-6793866D01*
X-129280412Y-6793866D02*
X-129185174Y-6746247D01*
X-129185174Y-6746247D02*
X-129137555Y-6698628D01*
X-129137555Y-6698628D02*
X-129089936Y-6603390D01*
X-160431880Y-48976772D02*
X-160431880Y-49452962D01*
X-160431880Y-49452962D02*
X-161431880Y-49452962D01*
X-161431880Y-48167248D02*
X-161431880Y-48643438D01*
X-161431880Y-48643438D02*
X-160955690Y-48691057D01*
X-160955690Y-48691057D02*
X-161003309Y-48643438D01*
X-161003309Y-48643438D02*
X-161050928Y-48548200D01*
X-161050928Y-48548200D02*
X-161050928Y-48310105D01*
X-161050928Y-48310105D02*
X-161003309Y-48214867D01*
X-161003309Y-48214867D02*
X-160955690Y-48167248D01*
X-160955690Y-48167248D02*
X-160860452Y-48119629D01*
X-160860452Y-48119629D02*
X-160622357Y-48119629D01*
X-160622357Y-48119629D02*
X-160527119Y-48167248D01*
X-160527119Y-48167248D02*
X-160479500Y-48214867D01*
X-160479500Y-48214867D02*
X-160431880Y-48310105D01*
X-160431880Y-48310105D02*
X-160431880Y-48548200D01*
X-160431880Y-48548200D02*
X-160479500Y-48643438D01*
X-160479500Y-48643438D02*
X-160527119Y-48691057D01*
X-129642317Y57925180D02*
X-129975650Y58401371D01*
X-130213745Y57925180D02*
X-130213745Y58925180D01*
X-130213745Y58925180D02*
X-129832793Y58925180D01*
X-129832793Y58925180D02*
X-129737555Y58877561D01*
X-129737555Y58877561D02*
X-129689936Y58829942D01*
X-129689936Y58829942D02*
X-129642317Y58734704D01*
X-129642317Y58734704D02*
X-129642317Y58591847D01*
X-129642317Y58591847D02*
X-129689936Y58496609D01*
X-129689936Y58496609D02*
X-129737555Y58448990D01*
X-129737555Y58448990D02*
X-129832793Y58401371D01*
X-129832793Y58401371D02*
X-130213745Y58401371D01*
X-128689936Y57925180D02*
X-129261364Y57925180D01*
X-128975650Y57925180D02*
X-128975650Y58925180D01*
X-128975650Y58925180D02*
X-129070888Y58782323D01*
X-129070888Y58782323D02*
X-129166126Y58687085D01*
X-129166126Y58687085D02*
X-129261364Y58639466D01*
X-83665180Y13190476D02*
X-82950895Y13190476D01*
X-82950895Y13190476D02*
X-82808038Y13142857D01*
X-82808038Y13142857D02*
X-82712800Y13047619D01*
X-82712800Y13047619D02*
X-82665180Y12904762D01*
X-82665180Y12904762D02*
X-82665180Y12809524D01*
X-83569942Y13619048D02*
X-83617561Y13666667D01*
X-83617561Y13666667D02*
X-83665180Y13761905D01*
X-83665180Y13761905D02*
X-83665180Y14000000D01*
X-83665180Y14000000D02*
X-83617561Y14095238D01*
X-83617561Y14095238D02*
X-83569942Y14142857D01*
X-83569942Y14142857D02*
X-83474704Y14190476D01*
X-83474704Y14190476D02*
X-83379466Y14190476D01*
X-83379466Y14190476D02*
X-83236609Y14142857D01*
X-83236609Y14142857D02*
X-82665180Y13571429D01*
X-82665180Y13571429D02*
X-82665180Y14190476D01*
X-83665180Y15095238D02*
X-83665180Y14619048D01*
X-83665180Y14619048D02*
X-83188990Y14571429D01*
X-83188990Y14571429D02*
X-83236609Y14619048D01*
X-83236609Y14619048D02*
X-83284228Y14714286D01*
X-83284228Y14714286D02*
X-83284228Y14952381D01*
X-83284228Y14952381D02*
X-83236609Y15047619D01*
X-83236609Y15047619D02*
X-83188990Y15095238D01*
X-83188990Y15095238D02*
X-83093752Y15142857D01*
X-83093752Y15142857D02*
X-82855657Y15142857D01*
X-82855657Y15142857D02*
X-82760419Y15095238D01*
X-82760419Y15095238D02*
X-82712800Y15047619D01*
X-82712800Y15047619D02*
X-82665180Y14952381D01*
X-82665180Y14952381D02*
X-82665180Y14714286D01*
X-82665180Y14714286D02*
X-82712800Y14619048D01*
X-82712800Y14619048D02*
X-82760419Y14571429D01*
X-129642317Y23725180D02*
X-129975650Y24201371D01*
X-130213745Y23725180D02*
X-130213745Y24725180D01*
X-130213745Y24725180D02*
X-129832793Y24725180D01*
X-129832793Y24725180D02*
X-129737555Y24677561D01*
X-129737555Y24677561D02*
X-129689936Y24629942D01*
X-129689936Y24629942D02*
X-129642317Y24534704D01*
X-129642317Y24534704D02*
X-129642317Y24391847D01*
X-129642317Y24391847D02*
X-129689936Y24296609D01*
X-129689936Y24296609D02*
X-129737555Y24248990D01*
X-129737555Y24248990D02*
X-129832793Y24201371D01*
X-129832793Y24201371D02*
X-130213745Y24201371D01*
X-128737555Y24725180D02*
X-129213745Y24725180D01*
X-129213745Y24725180D02*
X-129261364Y24248990D01*
X-129261364Y24248990D02*
X-129213745Y24296609D01*
X-129213745Y24296609D02*
X-129118507Y24344228D01*
X-129118507Y24344228D02*
X-128880412Y24344228D01*
X-128880412Y24344228D02*
X-128785174Y24296609D01*
X-128785174Y24296609D02*
X-128737555Y24248990D01*
X-128737555Y24248990D02*
X-128689936Y24153752D01*
X-128689936Y24153752D02*
X-128689936Y23915657D01*
X-128689936Y23915657D02*
X-128737555Y23820419D01*
X-128737555Y23820419D02*
X-128785174Y23772800D01*
X-128785174Y23772800D02*
X-128880412Y23725180D01*
X-128880412Y23725180D02*
X-129118507Y23725180D01*
X-129118507Y23725180D02*
X-129213745Y23772800D01*
X-129213745Y23772800D02*
X-129261364Y23820419D01*
X-83665180Y-3809523D02*
X-82950895Y-3809523D01*
X-82950895Y-3809523D02*
X-82808038Y-3857142D01*
X-82808038Y-3857142D02*
X-82712800Y-3952380D01*
X-82712800Y-3952380D02*
X-82665180Y-4095237D01*
X-82665180Y-4095237D02*
X-82665180Y-4190475D01*
X-83569942Y-3380951D02*
X-83617561Y-3333332D01*
X-83617561Y-3333332D02*
X-83665180Y-3238094D01*
X-83665180Y-3238094D02*
X-83665180Y-2999999D01*
X-83665180Y-2999999D02*
X-83617561Y-2904761D01*
X-83617561Y-2904761D02*
X-83569942Y-2857142D01*
X-83569942Y-2857142D02*
X-83474704Y-2809523D01*
X-83474704Y-2809523D02*
X-83379466Y-2809523D01*
X-83379466Y-2809523D02*
X-83236609Y-2857142D01*
X-83236609Y-2857142D02*
X-82665180Y-3428570D01*
X-82665180Y-3428570D02*
X-82665180Y-2809523D01*
X-83665180Y-2476189D02*
X-83665180Y-1809523D01*
X-83665180Y-1809523D02*
X-82665180Y-2238094D01*
X-83665180Y3190476D02*
X-82950895Y3190476D01*
X-82950895Y3190476D02*
X-82808038Y3142857D01*
X-82808038Y3142857D02*
X-82712800Y3047619D01*
X-82712800Y3047619D02*
X-82665180Y2904762D01*
X-82665180Y2904762D02*
X-82665180Y2809524D01*
X-83569942Y3619048D02*
X-83617561Y3666667D01*
X-83617561Y3666667D02*
X-83665180Y3761905D01*
X-83665180Y3761905D02*
X-83665180Y4000000D01*
X-83665180Y4000000D02*
X-83617561Y4095238D01*
X-83617561Y4095238D02*
X-83569942Y4142857D01*
X-83569942Y4142857D02*
X-83474704Y4190476D01*
X-83474704Y4190476D02*
X-83379466Y4190476D01*
X-83379466Y4190476D02*
X-83236609Y4142857D01*
X-83236609Y4142857D02*
X-82665180Y3571429D01*
X-82665180Y3571429D02*
X-82665180Y4190476D01*
X-83665180Y5047619D02*
X-83665180Y4857143D01*
X-83665180Y4857143D02*
X-83617561Y4761905D01*
X-83617561Y4761905D02*
X-83569942Y4714286D01*
X-83569942Y4714286D02*
X-83427085Y4619048D01*
X-83427085Y4619048D02*
X-83236609Y4571429D01*
X-83236609Y4571429D02*
X-82855657Y4571429D01*
X-82855657Y4571429D02*
X-82760419Y4619048D01*
X-82760419Y4619048D02*
X-82712800Y4666667D01*
X-82712800Y4666667D02*
X-82665180Y4761905D01*
X-82665180Y4761905D02*
X-82665180Y4952381D01*
X-82665180Y4952381D02*
X-82712800Y5047619D01*
X-82712800Y5047619D02*
X-82760419Y5095238D01*
X-82760419Y5095238D02*
X-82855657Y5142857D01*
X-82855657Y5142857D02*
X-83093752Y5142857D01*
X-83093752Y5142857D02*
X-83188990Y5095238D01*
X-83188990Y5095238D02*
X-83236609Y5047619D01*
X-83236609Y5047619D02*
X-83284228Y4952381D01*
X-83284228Y4952381D02*
X-83284228Y4761905D01*
X-83284228Y4761905D02*
X-83236609Y4666667D01*
X-83236609Y4666667D02*
X-83188990Y4619048D01*
X-83188990Y4619048D02*
X-83093752Y4571429D01*
X-130518508Y-83674819D02*
X-130851841Y-83198628D01*
X-131089936Y-83674819D02*
X-131089936Y-82674819D01*
X-131089936Y-82674819D02*
X-130708984Y-82674819D01*
X-130708984Y-82674819D02*
X-130613746Y-82722438D01*
X-130613746Y-82722438D02*
X-130566127Y-82770057D01*
X-130566127Y-82770057D02*
X-130518508Y-82865295D01*
X-130518508Y-82865295D02*
X-130518508Y-83008152D01*
X-130518508Y-83008152D02*
X-130566127Y-83103390D01*
X-130566127Y-83103390D02*
X-130613746Y-83151009D01*
X-130613746Y-83151009D02*
X-130708984Y-83198628D01*
X-130708984Y-83198628D02*
X-131089936Y-83198628D01*
X-129566127Y-83674819D02*
X-130137555Y-83674819D01*
X-129851841Y-83674819D02*
X-129851841Y-82674819D01*
X-129851841Y-82674819D02*
X-129947079Y-82817676D01*
X-129947079Y-82817676D02*
X-130042317Y-82912914D01*
X-130042317Y-82912914D02*
X-130137555Y-82960533D01*
X-128994698Y-83103390D02*
X-129089936Y-83055771D01*
X-129089936Y-83055771D02*
X-129137555Y-83008152D01*
X-129137555Y-83008152D02*
X-129185174Y-82912914D01*
X-129185174Y-82912914D02*
X-129185174Y-82865295D01*
X-129185174Y-82865295D02*
X-129137555Y-82770057D01*
X-129137555Y-82770057D02*
X-129089936Y-82722438D01*
X-129089936Y-82722438D02*
X-128994698Y-82674819D01*
X-128994698Y-82674819D02*
X-128804222Y-82674819D01*
X-128804222Y-82674819D02*
X-128708984Y-82722438D01*
X-128708984Y-82722438D02*
X-128661365Y-82770057D01*
X-128661365Y-82770057D02*
X-128613746Y-82865295D01*
X-128613746Y-82865295D02*
X-128613746Y-82912914D01*
X-128613746Y-82912914D02*
X-128661365Y-83008152D01*
X-128661365Y-83008152D02*
X-128708984Y-83055771D01*
X-128708984Y-83055771D02*
X-128804222Y-83103390D01*
X-128804222Y-83103390D02*
X-128994698Y-83103390D01*
X-128994698Y-83103390D02*
X-129089936Y-83151009D01*
X-129089936Y-83151009D02*
X-129137555Y-83198628D01*
X-129137555Y-83198628D02*
X-129185174Y-83293866D01*
X-129185174Y-83293866D02*
X-129185174Y-83484342D01*
X-129185174Y-83484342D02*
X-129137555Y-83579580D01*
X-129137555Y-83579580D02*
X-129089936Y-83627200D01*
X-129089936Y-83627200D02*
X-128994698Y-83674819D01*
X-128994698Y-83674819D02*
X-128804222Y-83674819D01*
X-128804222Y-83674819D02*
X-128708984Y-83627200D01*
X-128708984Y-83627200D02*
X-128661365Y-83579580D01*
X-128661365Y-83579580D02*
X-128613746Y-83484342D01*
X-128613746Y-83484342D02*
X-128613746Y-83293866D01*
X-128613746Y-83293866D02*
X-128661365Y-83198628D01*
X-128661365Y-83198628D02*
X-128708984Y-83151009D01*
X-128708984Y-83151009D02*
X-128804222Y-83103390D01*
X-152750418Y27618594D02*
X-152702799Y27570975D01*
X-152702799Y27570975D02*
X-152655179Y27428118D01*
X-152655179Y27428118D02*
X-152655179Y27332880D01*
X-152655179Y27332880D02*
X-152702799Y27190023D01*
X-152702799Y27190023D02*
X-152798037Y27094785D01*
X-152798037Y27094785D02*
X-152893275Y27047166D01*
X-152893275Y27047166D02*
X-153083751Y26999547D01*
X-153083751Y26999547D02*
X-153226608Y26999547D01*
X-153226608Y26999547D02*
X-153417084Y27047166D01*
X-153417084Y27047166D02*
X-153512322Y27094785D01*
X-153512322Y27094785D02*
X-153607560Y27190023D01*
X-153607560Y27190023D02*
X-153655179Y27332880D01*
X-153655179Y27332880D02*
X-153655179Y27428118D01*
X-153655179Y27428118D02*
X-153607560Y27570975D01*
X-153607560Y27570975D02*
X-153559941Y27618594D01*
X-152655179Y28570975D02*
X-152655179Y27999547D01*
X-152655179Y28285261D02*
X-153655179Y28285261D01*
X-153655179Y28285261D02*
X-153512322Y28190023D01*
X-153512322Y28190023D02*
X-153417084Y28094785D01*
X-153417084Y28094785D02*
X-153369465Y27999547D01*
X-130118508Y-78274819D02*
X-130451841Y-77798628D01*
X-130689936Y-78274819D02*
X-130689936Y-77274819D01*
X-130689936Y-77274819D02*
X-130308984Y-77274819D01*
X-130308984Y-77274819D02*
X-130213746Y-77322438D01*
X-130213746Y-77322438D02*
X-130166127Y-77370057D01*
X-130166127Y-77370057D02*
X-130118508Y-77465295D01*
X-130118508Y-77465295D02*
X-130118508Y-77608152D01*
X-130118508Y-77608152D02*
X-130166127Y-77703390D01*
X-130166127Y-77703390D02*
X-130213746Y-77751009D01*
X-130213746Y-77751009D02*
X-130308984Y-77798628D01*
X-130308984Y-77798628D02*
X-130689936Y-77798628D01*
X-129166127Y-78274819D02*
X-129737555Y-78274819D01*
X-129451841Y-78274819D02*
X-129451841Y-77274819D01*
X-129451841Y-77274819D02*
X-129547079Y-77417676D01*
X-129547079Y-77417676D02*
X-129642317Y-77512914D01*
X-129642317Y-77512914D02*
X-129737555Y-77560533D01*
X-128832793Y-77274819D02*
X-128166127Y-77274819D01*
X-128166127Y-77274819D02*
X-128594698Y-78274819D01*
X-83665180Y-12309523D02*
X-82950895Y-12309523D01*
X-82950895Y-12309523D02*
X-82808038Y-12357142D01*
X-82808038Y-12357142D02*
X-82712800Y-12452380D01*
X-82712800Y-12452380D02*
X-82665180Y-12595237D01*
X-82665180Y-12595237D02*
X-82665180Y-12690475D01*
X-83569942Y-11880951D02*
X-83617561Y-11833332D01*
X-83617561Y-11833332D02*
X-83665180Y-11738094D01*
X-83665180Y-11738094D02*
X-83665180Y-11499999D01*
X-83665180Y-11499999D02*
X-83617561Y-11404761D01*
X-83617561Y-11404761D02*
X-83569942Y-11357142D01*
X-83569942Y-11357142D02*
X-83474704Y-11309523D01*
X-83474704Y-11309523D02*
X-83379466Y-11309523D01*
X-83379466Y-11309523D02*
X-83236609Y-11357142D01*
X-83236609Y-11357142D02*
X-82665180Y-11928570D01*
X-82665180Y-11928570D02*
X-82665180Y-11309523D01*
X-83236609Y-10738094D02*
X-83284228Y-10833332D01*
X-83284228Y-10833332D02*
X-83331847Y-10880951D01*
X-83331847Y-10880951D02*
X-83427085Y-10928570D01*
X-83427085Y-10928570D02*
X-83474704Y-10928570D01*
X-83474704Y-10928570D02*
X-83569942Y-10880951D01*
X-83569942Y-10880951D02*
X-83617561Y-10833332D01*
X-83617561Y-10833332D02*
X-83665180Y-10738094D01*
X-83665180Y-10738094D02*
X-83665180Y-10547618D01*
X-83665180Y-10547618D02*
X-83617561Y-10452380D01*
X-83617561Y-10452380D02*
X-83569942Y-10404761D01*
X-83569942Y-10404761D02*
X-83474704Y-10357142D01*
X-83474704Y-10357142D02*
X-83427085Y-10357142D01*
X-83427085Y-10357142D02*
X-83331847Y-10404761D01*
X-83331847Y-10404761D02*
X-83284228Y-10452380D01*
X-83284228Y-10452380D02*
X-83236609Y-10547618D01*
X-83236609Y-10547618D02*
X-83236609Y-10738094D01*
X-83236609Y-10738094D02*
X-83188990Y-10833332D01*
X-83188990Y-10833332D02*
X-83141371Y-10880951D01*
X-83141371Y-10880951D02*
X-83046133Y-10928570D01*
X-83046133Y-10928570D02*
X-82855657Y-10928570D01*
X-82855657Y-10928570D02*
X-82760419Y-10880951D01*
X-82760419Y-10880951D02*
X-82712800Y-10833332D01*
X-82712800Y-10833332D02*
X-82665180Y-10738094D01*
X-82665180Y-10738094D02*
X-82665180Y-10547618D01*
X-82665180Y-10547618D02*
X-82712800Y-10452380D01*
X-82712800Y-10452380D02*
X-82760419Y-10404761D01*
X-82760419Y-10404761D02*
X-82855657Y-10357142D01*
X-82855657Y-10357142D02*
X-83046133Y-10357142D01*
X-83046133Y-10357142D02*
X-83141371Y-10404761D01*
X-83141371Y-10404761D02*
X-83188990Y-10452380D01*
X-83188990Y-10452380D02*
X-83236609Y-10547618D01*
X-65299523Y-73548700D02*
X-65299523Y-74262985D01*
X-65299523Y-74262985D02*
X-65347142Y-74405842D01*
X-65347142Y-74405842D02*
X-65442380Y-74501081D01*
X-65442380Y-74501081D02*
X-65585237Y-74548700D01*
X-65585237Y-74548700D02*
X-65680475Y-74548700D01*
X-64299523Y-74548700D02*
X-64870951Y-74548700D01*
X-64585237Y-74548700D02*
X-64585237Y-73548700D01*
X-64585237Y-73548700D02*
X-64680475Y-73691557D01*
X-64680475Y-73691557D02*
X-64775713Y-73786795D01*
X-64775713Y-73786795D02*
X-64870951Y-73834414D01*
X-63728094Y-73977271D02*
X-63823332Y-73929652D01*
X-63823332Y-73929652D02*
X-63870951Y-73882033D01*
X-63870951Y-73882033D02*
X-63918570Y-73786795D01*
X-63918570Y-73786795D02*
X-63918570Y-73739176D01*
X-63918570Y-73739176D02*
X-63870951Y-73643938D01*
X-63870951Y-73643938D02*
X-63823332Y-73596319D01*
X-63823332Y-73596319D02*
X-63728094Y-73548700D01*
X-63728094Y-73548700D02*
X-63537618Y-73548700D01*
X-63537618Y-73548700D02*
X-63442380Y-73596319D01*
X-63442380Y-73596319D02*
X-63394761Y-73643938D01*
X-63394761Y-73643938D02*
X-63347142Y-73739176D01*
X-63347142Y-73739176D02*
X-63347142Y-73786795D01*
X-63347142Y-73786795D02*
X-63394761Y-73882033D01*
X-63394761Y-73882033D02*
X-63442380Y-73929652D01*
X-63442380Y-73929652D02*
X-63537618Y-73977271D01*
X-63537618Y-73977271D02*
X-63728094Y-73977271D01*
X-63728094Y-73977271D02*
X-63823332Y-74024890D01*
X-63823332Y-74024890D02*
X-63870951Y-74072509D01*
X-63870951Y-74072509D02*
X-63918570Y-74167747D01*
X-63918570Y-74167747D02*
X-63918570Y-74358223D01*
X-63918570Y-74358223D02*
X-63870951Y-74453461D01*
X-63870951Y-74453461D02*
X-63823332Y-74501081D01*
X-63823332Y-74501081D02*
X-63728094Y-74548700D01*
X-63728094Y-74548700D02*
X-63537618Y-74548700D01*
X-63537618Y-74548700D02*
X-63442380Y-74501081D01*
X-63442380Y-74501081D02*
X-63394761Y-74453461D01*
X-63394761Y-74453461D02*
X-63347142Y-74358223D01*
X-63347142Y-74358223D02*
X-63347142Y-74167747D01*
X-63347142Y-74167747D02*
X-63394761Y-74072509D01*
X-63394761Y-74072509D02*
X-63442380Y-74024890D01*
X-63442380Y-74024890D02*
X-63537618Y-73977271D01*
X-70309523Y-62374819D02*
X-70309523Y-63089104D01*
X-70309523Y-63089104D02*
X-70357142Y-63231961D01*
X-70357142Y-63231961D02*
X-70452380Y-63327200D01*
X-70452380Y-63327200D02*
X-70595237Y-63374819D01*
X-70595237Y-63374819D02*
X-70690475Y-63374819D01*
X-69309523Y-63374819D02*
X-69880951Y-63374819D01*
X-69595237Y-63374819D02*
X-69595237Y-62374819D01*
X-69595237Y-62374819D02*
X-69690475Y-62517676D01*
X-69690475Y-62517676D02*
X-69785713Y-62612914D01*
X-69785713Y-62612914D02*
X-69880951Y-62660533D01*
X-68928570Y-62470057D02*
X-68880951Y-62422438D01*
X-68880951Y-62422438D02*
X-68785713Y-62374819D01*
X-68785713Y-62374819D02*
X-68547618Y-62374819D01*
X-68547618Y-62374819D02*
X-68452380Y-62422438D01*
X-68452380Y-62422438D02*
X-68404761Y-62470057D01*
X-68404761Y-62470057D02*
X-68357142Y-62565295D01*
X-68357142Y-62565295D02*
X-68357142Y-62660533D01*
X-68357142Y-62660533D02*
X-68404761Y-62803390D01*
X-68404761Y-62803390D02*
X-68976189Y-63374819D01*
X-68976189Y-63374819D02*
X-68357142Y-63374819D01*
X-130518508Y-108674819D02*
X-130851841Y-108198628D01*
X-131089936Y-108674819D02*
X-131089936Y-107674819D01*
X-131089936Y-107674819D02*
X-130708984Y-107674819D01*
X-130708984Y-107674819D02*
X-130613746Y-107722438D01*
X-130613746Y-107722438D02*
X-130566127Y-107770057D01*
X-130566127Y-107770057D02*
X-130518508Y-107865295D01*
X-130518508Y-107865295D02*
X-130518508Y-108008152D01*
X-130518508Y-108008152D02*
X-130566127Y-108103390D01*
X-130566127Y-108103390D02*
X-130613746Y-108151009D01*
X-130613746Y-108151009D02*
X-130708984Y-108198628D01*
X-130708984Y-108198628D02*
X-131089936Y-108198628D01*
X-130137555Y-107770057D02*
X-130089936Y-107722438D01*
X-130089936Y-107722438D02*
X-129994698Y-107674819D01*
X-129994698Y-107674819D02*
X-129756603Y-107674819D01*
X-129756603Y-107674819D02*
X-129661365Y-107722438D01*
X-129661365Y-107722438D02*
X-129613746Y-107770057D01*
X-129613746Y-107770057D02*
X-129566127Y-107865295D01*
X-129566127Y-107865295D02*
X-129566127Y-107960533D01*
X-129566127Y-107960533D02*
X-129613746Y-108103390D01*
X-129613746Y-108103390D02*
X-130185174Y-108674819D01*
X-130185174Y-108674819D02*
X-129566127Y-108674819D01*
X-128613746Y-108674819D02*
X-129185174Y-108674819D01*
X-128899460Y-108674819D02*
X-128899460Y-107674819D01*
X-128899460Y-107674819D02*
X-128994698Y-107817676D01*
X-128994698Y-107817676D02*
X-129089936Y-107912914D01*
X-129089936Y-107912914D02*
X-129185174Y-107960533D01*
X-129642317Y49725180D02*
X-129975650Y50201371D01*
X-130213745Y49725180D02*
X-130213745Y50725180D01*
X-130213745Y50725180D02*
X-129832793Y50725180D01*
X-129832793Y50725180D02*
X-129737555Y50677561D01*
X-129737555Y50677561D02*
X-129689936Y50629942D01*
X-129689936Y50629942D02*
X-129642317Y50534704D01*
X-129642317Y50534704D02*
X-129642317Y50391847D01*
X-129642317Y50391847D02*
X-129689936Y50296609D01*
X-129689936Y50296609D02*
X-129737555Y50248990D01*
X-129737555Y50248990D02*
X-129832793Y50201371D01*
X-129832793Y50201371D02*
X-130213745Y50201371D01*
X-129261364Y50629942D02*
X-129213745Y50677561D01*
X-129213745Y50677561D02*
X-129118507Y50725180D01*
X-129118507Y50725180D02*
X-128880412Y50725180D01*
X-128880412Y50725180D02*
X-128785174Y50677561D01*
X-128785174Y50677561D02*
X-128737555Y50629942D01*
X-128737555Y50629942D02*
X-128689936Y50534704D01*
X-128689936Y50534704D02*
X-128689936Y50439466D01*
X-128689936Y50439466D02*
X-128737555Y50296609D01*
X-128737555Y50296609D02*
X-129308983Y49725180D01*
X-129308983Y49725180D02*
X-128689936Y49725180D01*
X-130042317Y18325180D02*
X-130375650Y18801371D01*
X-130613745Y18325180D02*
X-130613745Y19325180D01*
X-130613745Y19325180D02*
X-130232793Y19325180D01*
X-130232793Y19325180D02*
X-130137555Y19277561D01*
X-130137555Y19277561D02*
X-130089936Y19229942D01*
X-130089936Y19229942D02*
X-130042317Y19134704D01*
X-130042317Y19134704D02*
X-130042317Y18991847D01*
X-130042317Y18991847D02*
X-130089936Y18896609D01*
X-130089936Y18896609D02*
X-130137555Y18848990D01*
X-130137555Y18848990D02*
X-130232793Y18801371D01*
X-130232793Y18801371D02*
X-130613745Y18801371D01*
X-129185174Y19325180D02*
X-129375650Y19325180D01*
X-129375650Y19325180D02*
X-129470888Y19277561D01*
X-129470888Y19277561D02*
X-129518507Y19229942D01*
X-129518507Y19229942D02*
X-129613745Y19087085D01*
X-129613745Y19087085D02*
X-129661364Y18896609D01*
X-129661364Y18896609D02*
X-129661364Y18515657D01*
X-129661364Y18515657D02*
X-129613745Y18420419D01*
X-129613745Y18420419D02*
X-129566126Y18372800D01*
X-129566126Y18372800D02*
X-129470888Y18325180D01*
X-129470888Y18325180D02*
X-129280412Y18325180D01*
X-129280412Y18325180D02*
X-129185174Y18372800D01*
X-129185174Y18372800D02*
X-129137555Y18420419D01*
X-129137555Y18420419D02*
X-129089936Y18515657D01*
X-129089936Y18515657D02*
X-129089936Y18753752D01*
X-129089936Y18753752D02*
X-129137555Y18848990D01*
X-129137555Y18848990D02*
X-129185174Y18896609D01*
X-129185174Y18896609D02*
X-129280412Y18944228D01*
X-129280412Y18944228D02*
X-129470888Y18944228D01*
X-129470888Y18944228D02*
X-129566126Y18896609D01*
X-129566126Y18896609D02*
X-129613745Y18848990D01*
X-129613745Y18848990D02*
X-129661364Y18753752D01*
X-130118508Y-128774819D02*
X-130451841Y-128298628D01*
X-130689936Y-128774819D02*
X-130689936Y-127774819D01*
X-130689936Y-127774819D02*
X-130308984Y-127774819D01*
X-130308984Y-127774819D02*
X-130213746Y-127822438D01*
X-130213746Y-127822438D02*
X-130166127Y-127870057D01*
X-130166127Y-127870057D02*
X-130118508Y-127965295D01*
X-130118508Y-127965295D02*
X-130118508Y-128108152D01*
X-130118508Y-128108152D02*
X-130166127Y-128203390D01*
X-130166127Y-128203390D02*
X-130213746Y-128251009D01*
X-130213746Y-128251009D02*
X-130308984Y-128298628D01*
X-130308984Y-128298628D02*
X-130689936Y-128298628D01*
X-129737555Y-127870057D02*
X-129689936Y-127822438D01*
X-129689936Y-127822438D02*
X-129594698Y-127774819D01*
X-129594698Y-127774819D02*
X-129356603Y-127774819D01*
X-129356603Y-127774819D02*
X-129261365Y-127822438D01*
X-129261365Y-127822438D02*
X-129213746Y-127870057D01*
X-129213746Y-127870057D02*
X-129166127Y-127965295D01*
X-129166127Y-127965295D02*
X-129166127Y-128060533D01*
X-129166127Y-128060533D02*
X-129213746Y-128203390D01*
X-129213746Y-128203390D02*
X-129785174Y-128774819D01*
X-129785174Y-128774819D02*
X-129166127Y-128774819D01*
X-128832793Y-127774819D02*
X-128213746Y-127774819D01*
X-128213746Y-127774819D02*
X-128547079Y-128155771D01*
X-128547079Y-128155771D02*
X-128404222Y-128155771D01*
X-128404222Y-128155771D02*
X-128308984Y-128203390D01*
X-128308984Y-128203390D02*
X-128261365Y-128251009D01*
X-128261365Y-128251009D02*
X-128213746Y-128346247D01*
X-128213746Y-128346247D02*
X-128213746Y-128584342D01*
X-128213746Y-128584342D02*
X-128261365Y-128679580D01*
X-128261365Y-128679580D02*
X-128308984Y-128727200D01*
X-128308984Y-128727200D02*
X-128404222Y-128774819D01*
X-128404222Y-128774819D02*
X-128689936Y-128774819D01*
X-128689936Y-128774819D02*
X-128785174Y-128727200D01*
X-128785174Y-128727200D02*
X-128832793Y-128679580D01*
X-71094522Y-89310740D02*
X-71094522Y-90025025D01*
X-71094522Y-90025025D02*
X-71142141Y-90167882D01*
X-71142141Y-90167882D02*
X-71237379Y-90263121D01*
X-71237379Y-90263121D02*
X-71380236Y-90310740D01*
X-71380236Y-90310740D02*
X-71475474Y-90310740D01*
X-70094522Y-90310740D02*
X-70665950Y-90310740D01*
X-70380236Y-90310740D02*
X-70380236Y-89310740D01*
X-70380236Y-89310740D02*
X-70475474Y-89453597D01*
X-70475474Y-89453597D02*
X-70570712Y-89548835D01*
X-70570712Y-89548835D02*
X-70665950Y-89596454D01*
X-69189760Y-89310740D02*
X-69665950Y-89310740D01*
X-69665950Y-89310740D02*
X-69713569Y-89786930D01*
X-69713569Y-89786930D02*
X-69665950Y-89739311D01*
X-69665950Y-89739311D02*
X-69570712Y-89691692D01*
X-69570712Y-89691692D02*
X-69332617Y-89691692D01*
X-69332617Y-89691692D02*
X-69237379Y-89739311D01*
X-69237379Y-89739311D02*
X-69189760Y-89786930D01*
X-69189760Y-89786930D02*
X-69142141Y-89882168D01*
X-69142141Y-89882168D02*
X-69142141Y-90120263D01*
X-69142141Y-90120263D02*
X-69189760Y-90215501D01*
X-69189760Y-90215501D02*
X-69237379Y-90263121D01*
X-69237379Y-90263121D02*
X-69332617Y-90310740D01*
X-69332617Y-90310740D02*
X-69570712Y-90310740D01*
X-69570712Y-90310740D02*
X-69665950Y-90263121D01*
X-69665950Y-90263121D02*
X-69713569Y-90215501D01*
X-83665180Y54666666D02*
X-82950895Y54666666D01*
X-82950895Y54666666D02*
X-82808038Y54619047D01*
X-82808038Y54619047D02*
X-82712800Y54523809D01*
X-82712800Y54523809D02*
X-82665180Y54380952D01*
X-82665180Y54380952D02*
X-82665180Y54285714D01*
X-83569942Y55095238D02*
X-83617561Y55142857D01*
X-83617561Y55142857D02*
X-83665180Y55238095D01*
X-83665180Y55238095D02*
X-83665180Y55476190D01*
X-83665180Y55476190D02*
X-83617561Y55571428D01*
X-83617561Y55571428D02*
X-83569942Y55619047D01*
X-83569942Y55619047D02*
X-83474704Y55666666D01*
X-83474704Y55666666D02*
X-83379466Y55666666D01*
X-83379466Y55666666D02*
X-83236609Y55619047D01*
X-83236609Y55619047D02*
X-82665180Y55047619D01*
X-82665180Y55047619D02*
X-82665180Y55666666D01*
X-70599522Y-8782979D02*
X-70599522Y-9497264D01*
X-70599522Y-9497264D02*
X-70647141Y-9640121D01*
X-70647141Y-9640121D02*
X-70742379Y-9735360D01*
X-70742379Y-9735360D02*
X-70885236Y-9782979D01*
X-70885236Y-9782979D02*
X-70980474Y-9782979D01*
X-69599522Y-9782979D02*
X-70170950Y-9782979D01*
X-69885236Y-9782979D02*
X-69885236Y-8782979D01*
X-69885236Y-8782979D02*
X-69980474Y-8925836D01*
X-69980474Y-8925836D02*
X-70075712Y-9021074D01*
X-70075712Y-9021074D02*
X-70170950Y-9068693D01*
X-68980474Y-8782979D02*
X-68885236Y-8782979D01*
X-68885236Y-8782979D02*
X-68789998Y-8830598D01*
X-68789998Y-8830598D02*
X-68742379Y-8878217D01*
X-68742379Y-8878217D02*
X-68694760Y-8973455D01*
X-68694760Y-8973455D02*
X-68647141Y-9163931D01*
X-68647141Y-9163931D02*
X-68647141Y-9402026D01*
X-68647141Y-9402026D02*
X-68694760Y-9592502D01*
X-68694760Y-9592502D02*
X-68742379Y-9687740D01*
X-68742379Y-9687740D02*
X-68789998Y-9735360D01*
X-68789998Y-9735360D02*
X-68885236Y-9782979D01*
X-68885236Y-9782979D02*
X-68980474Y-9782979D01*
X-68980474Y-9782979D02*
X-69075712Y-9735360D01*
X-69075712Y-9735360D02*
X-69123331Y-9687740D01*
X-69123331Y-9687740D02*
X-69170950Y-9592502D01*
X-69170950Y-9592502D02*
X-69218569Y-9402026D01*
X-69218569Y-9402026D02*
X-69218569Y-9163931D01*
X-69218569Y-9163931D02*
X-69170950Y-8973455D01*
X-69170950Y-8973455D02*
X-69123331Y-8878217D01*
X-69123331Y-8878217D02*
X-69075712Y-8830598D01*
X-69075712Y-8830598D02*
X-68980474Y-8782979D01*
X-130518508Y-134174819D02*
X-130851841Y-133698628D01*
X-131089936Y-134174819D02*
X-131089936Y-133174819D01*
X-131089936Y-133174819D02*
X-130708984Y-133174819D01*
X-130708984Y-133174819D02*
X-130613746Y-133222438D01*
X-130613746Y-133222438D02*
X-130566127Y-133270057D01*
X-130566127Y-133270057D02*
X-130518508Y-133365295D01*
X-130518508Y-133365295D02*
X-130518508Y-133508152D01*
X-130518508Y-133508152D02*
X-130566127Y-133603390D01*
X-130566127Y-133603390D02*
X-130613746Y-133651009D01*
X-130613746Y-133651009D02*
X-130708984Y-133698628D01*
X-130708984Y-133698628D02*
X-131089936Y-133698628D01*
X-130137555Y-133270057D02*
X-130089936Y-133222438D01*
X-130089936Y-133222438D02*
X-129994698Y-133174819D01*
X-129994698Y-133174819D02*
X-129756603Y-133174819D01*
X-129756603Y-133174819D02*
X-129661365Y-133222438D01*
X-129661365Y-133222438D02*
X-129613746Y-133270057D01*
X-129613746Y-133270057D02*
X-129566127Y-133365295D01*
X-129566127Y-133365295D02*
X-129566127Y-133460533D01*
X-129566127Y-133460533D02*
X-129613746Y-133603390D01*
X-129613746Y-133603390D02*
X-130185174Y-134174819D01*
X-130185174Y-134174819D02*
X-129566127Y-134174819D01*
X-128708984Y-133508152D02*
X-128708984Y-134174819D01*
X-128947079Y-133127200D02*
X-129185174Y-133841485D01*
X-129185174Y-133841485D02*
X-128566127Y-133841485D01*
X-130518508Y-58174819D02*
X-130851841Y-57698628D01*
X-131089936Y-58174819D02*
X-131089936Y-57174819D01*
X-131089936Y-57174819D02*
X-130708984Y-57174819D01*
X-130708984Y-57174819D02*
X-130613746Y-57222438D01*
X-130613746Y-57222438D02*
X-130566127Y-57270057D01*
X-130566127Y-57270057D02*
X-130518508Y-57365295D01*
X-130518508Y-57365295D02*
X-130518508Y-57508152D01*
X-130518508Y-57508152D02*
X-130566127Y-57603390D01*
X-130566127Y-57603390D02*
X-130613746Y-57651009D01*
X-130613746Y-57651009D02*
X-130708984Y-57698628D01*
X-130708984Y-57698628D02*
X-131089936Y-57698628D01*
X-129566127Y-58174819D02*
X-130137555Y-58174819D01*
X-129851841Y-58174819D02*
X-129851841Y-57174819D01*
X-129851841Y-57174819D02*
X-129947079Y-57317676D01*
X-129947079Y-57317676D02*
X-130042317Y-57412914D01*
X-130042317Y-57412914D02*
X-130137555Y-57460533D01*
X-128661365Y-57174819D02*
X-129137555Y-57174819D01*
X-129137555Y-57174819D02*
X-129185174Y-57651009D01*
X-129185174Y-57651009D02*
X-129137555Y-57603390D01*
X-129137555Y-57603390D02*
X-129042317Y-57555771D01*
X-129042317Y-57555771D02*
X-128804222Y-57555771D01*
X-128804222Y-57555771D02*
X-128708984Y-57603390D01*
X-128708984Y-57603390D02*
X-128661365Y-57651009D01*
X-128661365Y-57651009D02*
X-128613746Y-57746247D01*
X-128613746Y-57746247D02*
X-128613746Y-57984342D01*
X-128613746Y-57984342D02*
X-128661365Y-58079580D01*
X-128661365Y-58079580D02*
X-128708984Y-58127200D01*
X-128708984Y-58127200D02*
X-128804222Y-58174819D01*
X-128804222Y-58174819D02*
X-129042317Y-58174819D01*
X-129042317Y-58174819D02*
X-129137555Y-58127200D01*
X-129137555Y-58127200D02*
X-129185174Y-58079580D01*
X-83665180Y-47809523D02*
X-82950895Y-47809523D01*
X-82950895Y-47809523D02*
X-82808038Y-47857142D01*
X-82808038Y-47857142D02*
X-82712800Y-47952380D01*
X-82712800Y-47952380D02*
X-82665180Y-48095237D01*
X-82665180Y-48095237D02*
X-82665180Y-48190475D01*
X-83665180Y-47428570D02*
X-83665180Y-46809523D01*
X-83665180Y-46809523D02*
X-83284228Y-47142856D01*
X-83284228Y-47142856D02*
X-83284228Y-46999999D01*
X-83284228Y-46999999D02*
X-83236609Y-46904761D01*
X-83236609Y-46904761D02*
X-83188990Y-46857142D01*
X-83188990Y-46857142D02*
X-83093752Y-46809523D01*
X-83093752Y-46809523D02*
X-82855657Y-46809523D01*
X-82855657Y-46809523D02*
X-82760419Y-46857142D01*
X-82760419Y-46857142D02*
X-82712800Y-46904761D01*
X-82712800Y-46904761D02*
X-82665180Y-46999999D01*
X-82665180Y-46999999D02*
X-82665180Y-47285713D01*
X-82665180Y-47285713D02*
X-82712800Y-47380951D01*
X-82712800Y-47380951D02*
X-82760419Y-47428570D01*
X-83569942Y-46428570D02*
X-83617561Y-46380951D01*
X-83617561Y-46380951D02*
X-83665180Y-46285713D01*
X-83665180Y-46285713D02*
X-83665180Y-46047618D01*
X-83665180Y-46047618D02*
X-83617561Y-45952380D01*
X-83617561Y-45952380D02*
X-83569942Y-45904761D01*
X-83569942Y-45904761D02*
X-83474704Y-45857142D01*
X-83474704Y-45857142D02*
X-83379466Y-45857142D01*
X-83379466Y-45857142D02*
X-83236609Y-45904761D01*
X-83236609Y-45904761D02*
X-82665180Y-46476189D01*
X-82665180Y-46476189D02*
X-82665180Y-45857142D01*
X-130118508Y-18074819D02*
X-130451841Y-17598628D01*
X-130689936Y-18074819D02*
X-130689936Y-17074819D01*
X-130689936Y-17074819D02*
X-130308984Y-17074819D01*
X-130308984Y-17074819D02*
X-130213746Y-17122438D01*
X-130213746Y-17122438D02*
X-130166127Y-17170057D01*
X-130166127Y-17170057D02*
X-130118508Y-17265295D01*
X-130118508Y-17265295D02*
X-130118508Y-17408152D01*
X-130118508Y-17408152D02*
X-130166127Y-17503390D01*
X-130166127Y-17503390D02*
X-130213746Y-17551009D01*
X-130213746Y-17551009D02*
X-130308984Y-17598628D01*
X-130308984Y-17598628D02*
X-130689936Y-17598628D01*
X-129166127Y-18074819D02*
X-129737555Y-18074819D01*
X-129451841Y-18074819D02*
X-129451841Y-17074819D01*
X-129451841Y-17074819D02*
X-129547079Y-17217676D01*
X-129547079Y-17217676D02*
X-129642317Y-17312914D01*
X-129642317Y-17312914D02*
X-129737555Y-17360533D01*
X-128547079Y-17074819D02*
X-128451841Y-17074819D01*
X-128451841Y-17074819D02*
X-128356603Y-17122438D01*
X-128356603Y-17122438D02*
X-128308984Y-17170057D01*
X-128308984Y-17170057D02*
X-128261365Y-17265295D01*
X-128261365Y-17265295D02*
X-128213746Y-17455771D01*
X-128213746Y-17455771D02*
X-128213746Y-17693866D01*
X-128213746Y-17693866D02*
X-128261365Y-17884342D01*
X-128261365Y-17884342D02*
X-128308984Y-17979580D01*
X-128308984Y-17979580D02*
X-128356603Y-18027200D01*
X-128356603Y-18027200D02*
X-128451841Y-18074819D01*
X-128451841Y-18074819D02*
X-128547079Y-18074819D01*
X-128547079Y-18074819D02*
X-128642317Y-18027200D01*
X-128642317Y-18027200D02*
X-128689936Y-17979580D01*
X-128689936Y-17979580D02*
X-128737555Y-17884342D01*
X-128737555Y-17884342D02*
X-128785174Y-17693866D01*
X-128785174Y-17693866D02*
X-128785174Y-17455771D01*
X-128785174Y-17455771D02*
X-128737555Y-17265295D01*
X-128737555Y-17265295D02*
X-128689936Y-17170057D01*
X-128689936Y-17170057D02*
X-128642317Y-17122438D01*
X-128642317Y-17122438D02*
X-128547079Y-17074819D01*
X-71099522Y-35508899D02*
X-71099522Y-36223184D01*
X-71099522Y-36223184D02*
X-71147141Y-36366041D01*
X-71147141Y-36366041D02*
X-71242379Y-36461280D01*
X-71242379Y-36461280D02*
X-71385236Y-36508899D01*
X-71385236Y-36508899D02*
X-71480474Y-36508899D01*
X-70099522Y-36508899D02*
X-70670950Y-36508899D01*
X-70385236Y-36508899D02*
X-70385236Y-35508899D01*
X-70385236Y-35508899D02*
X-70480474Y-35651756D01*
X-70480474Y-35651756D02*
X-70575712Y-35746994D01*
X-70575712Y-35746994D02*
X-70670950Y-35794613D01*
X-69147141Y-36508899D02*
X-69718569Y-36508899D01*
X-69432855Y-36508899D02*
X-69432855Y-35508899D01*
X-69432855Y-35508899D02*
X-69528093Y-35651756D01*
X-69528093Y-35651756D02*
X-69623331Y-35746994D01*
X-69623331Y-35746994D02*
X-69718569Y-35794613D01*
X-70623332Y45068861D02*
X-70623332Y44354576D01*
X-70623332Y44354576D02*
X-70670951Y44211719D01*
X-70670951Y44211719D02*
X-70766189Y44116481D01*
X-70766189Y44116481D02*
X-70909046Y44068861D01*
X-70909046Y44068861D02*
X-71004284Y44068861D01*
X-70004284Y44640290D02*
X-70099522Y44687909D01*
X-70099522Y44687909D02*
X-70147141Y44735528D01*
X-70147141Y44735528D02*
X-70194760Y44830766D01*
X-70194760Y44830766D02*
X-70194760Y44878385D01*
X-70194760Y44878385D02*
X-70147141Y44973623D01*
X-70147141Y44973623D02*
X-70099522Y45021242D01*
X-70099522Y45021242D02*
X-70004284Y45068861D01*
X-70004284Y45068861D02*
X-69813808Y45068861D01*
X-69813808Y45068861D02*
X-69718570Y45021242D01*
X-69718570Y45021242D02*
X-69670951Y44973623D01*
X-69670951Y44973623D02*
X-69623332Y44878385D01*
X-69623332Y44878385D02*
X-69623332Y44830766D01*
X-69623332Y44830766D02*
X-69670951Y44735528D01*
X-69670951Y44735528D02*
X-69718570Y44687909D01*
X-69718570Y44687909D02*
X-69813808Y44640290D01*
X-69813808Y44640290D02*
X-70004284Y44640290D01*
X-70004284Y44640290D02*
X-70099522Y44592671D01*
X-70099522Y44592671D02*
X-70147141Y44545052D01*
X-70147141Y44545052D02*
X-70194760Y44449814D01*
X-70194760Y44449814D02*
X-70194760Y44259338D01*
X-70194760Y44259338D02*
X-70147141Y44164100D01*
X-70147141Y44164100D02*
X-70099522Y44116481D01*
X-70099522Y44116481D02*
X-70004284Y44068861D01*
X-70004284Y44068861D02*
X-69813808Y44068861D01*
X-69813808Y44068861D02*
X-69718570Y44116481D01*
X-69718570Y44116481D02*
X-69670951Y44164100D01*
X-69670951Y44164100D02*
X-69623332Y44259338D01*
X-69623332Y44259338D02*
X-69623332Y44449814D01*
X-69623332Y44449814D02*
X-69670951Y44545052D01*
X-69670951Y44545052D02*
X-69718570Y44592671D01*
X-69718570Y44592671D02*
X-69813808Y44640290D01*
X-152925584Y-74476543D02*
X-152877965Y-74524162D01*
X-152877965Y-74524162D02*
X-152830345Y-74667019D01*
X-152830345Y-74667019D02*
X-152830345Y-74762257D01*
X-152830345Y-74762257D02*
X-152877965Y-74905114D01*
X-152877965Y-74905114D02*
X-152973203Y-75000352D01*
X-152973203Y-75000352D02*
X-153068441Y-75047971D01*
X-153068441Y-75047971D02*
X-153258917Y-75095590D01*
X-153258917Y-75095590D02*
X-153401774Y-75095590D01*
X-153401774Y-75095590D02*
X-153592250Y-75047971D01*
X-153592250Y-75047971D02*
X-153687488Y-75000352D01*
X-153687488Y-75000352D02*
X-153782726Y-74905114D01*
X-153782726Y-74905114D02*
X-153830345Y-74762257D01*
X-153830345Y-74762257D02*
X-153830345Y-74667019D01*
X-153830345Y-74667019D02*
X-153782726Y-74524162D01*
X-153782726Y-74524162D02*
X-153735107Y-74476543D01*
X-153830345Y-73619400D02*
X-153830345Y-73809876D01*
X-153830345Y-73809876D02*
X-153782726Y-73905114D01*
X-153782726Y-73905114D02*
X-153735107Y-73952733D01*
X-153735107Y-73952733D02*
X-153592250Y-74047971D01*
X-153592250Y-74047971D02*
X-153401774Y-74095590D01*
X-153401774Y-74095590D02*
X-153020822Y-74095590D01*
X-153020822Y-74095590D02*
X-152925584Y-74047971D01*
X-152925584Y-74047971D02*
X-152877965Y-74000352D01*
X-152877965Y-74000352D02*
X-152830345Y-73905114D01*
X-152830345Y-73905114D02*
X-152830345Y-73714638D01*
X-152830345Y-73714638D02*
X-152877965Y-73619400D01*
X-152877965Y-73619400D02*
X-152925584Y-73571781D01*
X-152925584Y-73571781D02*
X-153020822Y-73524162D01*
X-153020822Y-73524162D02*
X-153258917Y-73524162D01*
X-153258917Y-73524162D02*
X-153354155Y-73571781D01*
X-153354155Y-73571781D02*
X-153401774Y-73619400D01*
X-153401774Y-73619400D02*
X-153449393Y-73714638D01*
X-153449393Y-73714638D02*
X-153449393Y-73905114D01*
X-153449393Y-73905114D02*
X-153401774Y-74000352D01*
X-153401774Y-74000352D02*
X-153354155Y-74047971D01*
X-153354155Y-74047971D02*
X-153258917Y-74095590D01*
X-83665180Y-105809523D02*
X-82950895Y-105809523D01*
X-82950895Y-105809523D02*
X-82808038Y-105857142D01*
X-82808038Y-105857142D02*
X-82712800Y-105952380D01*
X-82712800Y-105952380D02*
X-82665180Y-106095237D01*
X-82665180Y-106095237D02*
X-82665180Y-106190475D01*
X-83665180Y-105428570D02*
X-83665180Y-104809523D01*
X-83665180Y-104809523D02*
X-83284228Y-105142856D01*
X-83284228Y-105142856D02*
X-83284228Y-104999999D01*
X-83284228Y-104999999D02*
X-83236609Y-104904761D01*
X-83236609Y-104904761D02*
X-83188990Y-104857142D01*
X-83188990Y-104857142D02*
X-83093752Y-104809523D01*
X-83093752Y-104809523D02*
X-82855657Y-104809523D01*
X-82855657Y-104809523D02*
X-82760419Y-104857142D01*
X-82760419Y-104857142D02*
X-82712800Y-104904761D01*
X-82712800Y-104904761D02*
X-82665180Y-104999999D01*
X-82665180Y-104999999D02*
X-82665180Y-105285713D01*
X-82665180Y-105285713D02*
X-82712800Y-105380951D01*
X-82712800Y-105380951D02*
X-82760419Y-105428570D01*
X-82665180Y-104333332D02*
X-82665180Y-104142856D01*
X-82665180Y-104142856D02*
X-82712800Y-104047618D01*
X-82712800Y-104047618D02*
X-82760419Y-103999999D01*
X-82760419Y-103999999D02*
X-82903276Y-103904761D01*
X-82903276Y-103904761D02*
X-83093752Y-103857142D01*
X-83093752Y-103857142D02*
X-83474704Y-103857142D01*
X-83474704Y-103857142D02*
X-83569942Y-103904761D01*
X-83569942Y-103904761D02*
X-83617561Y-103952380D01*
X-83617561Y-103952380D02*
X-83665180Y-104047618D01*
X-83665180Y-104047618D02*
X-83665180Y-104238094D01*
X-83665180Y-104238094D02*
X-83617561Y-104333332D01*
X-83617561Y-104333332D02*
X-83569942Y-104380951D01*
X-83569942Y-104380951D02*
X-83474704Y-104428570D01*
X-83474704Y-104428570D02*
X-83236609Y-104428570D01*
X-83236609Y-104428570D02*
X-83141371Y-104380951D01*
X-83141371Y-104380951D02*
X-83093752Y-104333332D01*
X-83093752Y-104333332D02*
X-83046133Y-104238094D01*
X-83046133Y-104238094D02*
X-83046133Y-104047618D01*
X-83046133Y-104047618D02*
X-83093752Y-103952380D01*
X-83093752Y-103952380D02*
X-83141371Y-103904761D01*
X-83141371Y-103904761D02*
X-83236609Y-103857142D01*
X-129642317Y7925180D02*
X-129975650Y8401371D01*
X-130213745Y7925180D02*
X-130213745Y8925180D01*
X-130213745Y8925180D02*
X-129832793Y8925180D01*
X-129832793Y8925180D02*
X-129737555Y8877561D01*
X-129737555Y8877561D02*
X-129689936Y8829942D01*
X-129689936Y8829942D02*
X-129642317Y8734704D01*
X-129642317Y8734704D02*
X-129642317Y8591847D01*
X-129642317Y8591847D02*
X-129689936Y8496609D01*
X-129689936Y8496609D02*
X-129737555Y8448990D01*
X-129737555Y8448990D02*
X-129832793Y8401371D01*
X-129832793Y8401371D02*
X-130213745Y8401371D01*
X-129308983Y8925180D02*
X-128642317Y8925180D01*
X-128642317Y8925180D02*
X-129070888Y7925180D01*
X-64823333Y60830901D02*
X-64823333Y60116616D01*
X-64823333Y60116616D02*
X-64870952Y59973759D01*
X-64870952Y59973759D02*
X-64966190Y59878521D01*
X-64966190Y59878521D02*
X-65109047Y59830901D01*
X-65109047Y59830901D02*
X-65204285Y59830901D01*
X-64442380Y60830901D02*
X-63823333Y60830901D01*
X-63823333Y60830901D02*
X-64156666Y60449949D01*
X-64156666Y60449949D02*
X-64013809Y60449949D01*
X-64013809Y60449949D02*
X-63918571Y60402330D01*
X-63918571Y60402330D02*
X-63870952Y60354711D01*
X-63870952Y60354711D02*
X-63823333Y60259473D01*
X-63823333Y60259473D02*
X-63823333Y60021378D01*
X-63823333Y60021378D02*
X-63870952Y59926140D01*
X-63870952Y59926140D02*
X-63918571Y59878521D01*
X-63918571Y59878521D02*
X-64013809Y59830901D01*
X-64013809Y59830901D02*
X-64299523Y59830901D01*
X-64299523Y59830901D02*
X-64394761Y59878521D01*
X-64394761Y59878521D02*
X-64442380Y59926140D01*
X-159885179Y2018594D02*
X-159885179Y1542404D01*
X-159885179Y1542404D02*
X-160885179Y1542404D01*
X-160885179Y2256690D02*
X-160885179Y2875737D01*
X-160885179Y2875737D02*
X-160504227Y2542404D01*
X-160504227Y2542404D02*
X-160504227Y2685261D01*
X-160504227Y2685261D02*
X-160456608Y2780499D01*
X-160456608Y2780499D02*
X-160408989Y2828118D01*
X-160408989Y2828118D02*
X-160313751Y2875737D01*
X-160313751Y2875737D02*
X-160075656Y2875737D01*
X-160075656Y2875737D02*
X-159980418Y2828118D01*
X-159980418Y2828118D02*
X-159932799Y2780499D01*
X-159932799Y2780499D02*
X-159885179Y2685261D01*
X-159885179Y2685261D02*
X-159885179Y2399547D01*
X-159885179Y2399547D02*
X-159932799Y2304309D01*
X-159932799Y2304309D02*
X-159980418Y2256690D01*
X-130118508Y-103274819D02*
X-130451841Y-102798628D01*
X-130689936Y-103274819D02*
X-130689936Y-102274819D01*
X-130689936Y-102274819D02*
X-130308984Y-102274819D01*
X-130308984Y-102274819D02*
X-130213746Y-102322438D01*
X-130213746Y-102322438D02*
X-130166127Y-102370057D01*
X-130166127Y-102370057D02*
X-130118508Y-102465295D01*
X-130118508Y-102465295D02*
X-130118508Y-102608152D01*
X-130118508Y-102608152D02*
X-130166127Y-102703390D01*
X-130166127Y-102703390D02*
X-130213746Y-102751009D01*
X-130213746Y-102751009D02*
X-130308984Y-102798628D01*
X-130308984Y-102798628D02*
X-130689936Y-102798628D01*
X-129737555Y-102370057D02*
X-129689936Y-102322438D01*
X-129689936Y-102322438D02*
X-129594698Y-102274819D01*
X-129594698Y-102274819D02*
X-129356603Y-102274819D01*
X-129356603Y-102274819D02*
X-129261365Y-102322438D01*
X-129261365Y-102322438D02*
X-129213746Y-102370057D01*
X-129213746Y-102370057D02*
X-129166127Y-102465295D01*
X-129166127Y-102465295D02*
X-129166127Y-102560533D01*
X-129166127Y-102560533D02*
X-129213746Y-102703390D01*
X-129213746Y-102703390D02*
X-129785174Y-103274819D01*
X-129785174Y-103274819D02*
X-129166127Y-103274819D01*
X-128547079Y-102274819D02*
X-128451841Y-102274819D01*
X-128451841Y-102274819D02*
X-128356603Y-102322438D01*
X-128356603Y-102322438D02*
X-128308984Y-102370057D01*
X-128308984Y-102370057D02*
X-128261365Y-102465295D01*
X-128261365Y-102465295D02*
X-128213746Y-102655771D01*
X-128213746Y-102655771D02*
X-128213746Y-102893866D01*
X-128213746Y-102893866D02*
X-128261365Y-103084342D01*
X-128261365Y-103084342D02*
X-128308984Y-103179580D01*
X-128308984Y-103179580D02*
X-128356603Y-103227200D01*
X-128356603Y-103227200D02*
X-128451841Y-103274819D01*
X-128451841Y-103274819D02*
X-128547079Y-103274819D01*
X-128547079Y-103274819D02*
X-128642317Y-103227200D01*
X-128642317Y-103227200D02*
X-128689936Y-103179580D01*
X-128689936Y-103179580D02*
X-128737555Y-103084342D01*
X-128737555Y-103084342D02*
X-128785174Y-102893866D01*
X-128785174Y-102893866D02*
X-128785174Y-102655771D01*
X-128785174Y-102655771D02*
X-128737555Y-102465295D01*
X-128737555Y-102465295D02*
X-128689936Y-102370057D01*
X-128689936Y-102370057D02*
X-128642317Y-102322438D01*
X-128642317Y-102322438D02*
X-128547079Y-102274819D01*
X-64823333Y6979060D02*
X-64823333Y6264775D01*
X-64823333Y6264775D02*
X-64870952Y6121918D01*
X-64870952Y6121918D02*
X-64966190Y6026680D01*
X-64966190Y6026680D02*
X-65109047Y5979060D01*
X-65109047Y5979060D02*
X-65204285Y5979060D01*
X-63870952Y6979060D02*
X-64347142Y6979060D01*
X-64347142Y6979060D02*
X-64394761Y6502870D01*
X-64394761Y6502870D02*
X-64347142Y6550489D01*
X-64347142Y6550489D02*
X-64251904Y6598108D01*
X-64251904Y6598108D02*
X-64013809Y6598108D01*
X-64013809Y6598108D02*
X-63918571Y6550489D01*
X-63918571Y6550489D02*
X-63870952Y6502870D01*
X-63870952Y6502870D02*
X-63823333Y6407632D01*
X-63823333Y6407632D02*
X-63823333Y6169537D01*
X-63823333Y6169537D02*
X-63870952Y6074299D01*
X-63870952Y6074299D02*
X-63918571Y6026680D01*
X-63918571Y6026680D02*
X-64013809Y5979060D01*
X-64013809Y5979060D02*
X-64251904Y5979060D01*
X-64251904Y5979060D02*
X-64347142Y6026680D01*
X-64347142Y6026680D02*
X-64394761Y6074299D01*
X-64823333Y-19746859D02*
X-64823333Y-20461144D01*
X-64823333Y-20461144D02*
X-64870952Y-20604001D01*
X-64870952Y-20604001D02*
X-64966190Y-20699240D01*
X-64966190Y-20699240D02*
X-65109047Y-20746859D01*
X-65109047Y-20746859D02*
X-65204285Y-20746859D01*
X-63918571Y-19746859D02*
X-64109047Y-19746859D01*
X-64109047Y-19746859D02*
X-64204285Y-19794478D01*
X-64204285Y-19794478D02*
X-64251904Y-19842097D01*
X-64251904Y-19842097D02*
X-64347142Y-19984954D01*
X-64347142Y-19984954D02*
X-64394761Y-20175430D01*
X-64394761Y-20175430D02*
X-64394761Y-20556382D01*
X-64394761Y-20556382D02*
X-64347142Y-20651620D01*
X-64347142Y-20651620D02*
X-64299523Y-20699240D01*
X-64299523Y-20699240D02*
X-64204285Y-20746859D01*
X-64204285Y-20746859D02*
X-64013809Y-20746859D01*
X-64013809Y-20746859D02*
X-63918571Y-20699240D01*
X-63918571Y-20699240D02*
X-63870952Y-20651620D01*
X-63870952Y-20651620D02*
X-63823333Y-20556382D01*
X-63823333Y-20556382D02*
X-63823333Y-20318287D01*
X-63823333Y-20318287D02*
X-63870952Y-20223049D01*
X-63870952Y-20223049D02*
X-63918571Y-20175430D01*
X-63918571Y-20175430D02*
X-64013809Y-20127811D01*
X-64013809Y-20127811D02*
X-64204285Y-20127811D01*
X-64204285Y-20127811D02*
X-64299523Y-20175430D01*
X-64299523Y-20175430D02*
X-64347142Y-20223049D01*
X-64347142Y-20223049D02*
X-64394761Y-20318287D01*
X-83665180Y28690476D02*
X-82950895Y28690476D01*
X-82950895Y28690476D02*
X-82808038Y28642857D01*
X-82808038Y28642857D02*
X-82712800Y28547619D01*
X-82712800Y28547619D02*
X-82665180Y28404762D01*
X-82665180Y28404762D02*
X-82665180Y28309524D01*
X-83569942Y29119048D02*
X-83617561Y29166667D01*
X-83617561Y29166667D02*
X-83665180Y29261905D01*
X-83665180Y29261905D02*
X-83665180Y29500000D01*
X-83665180Y29500000D02*
X-83617561Y29595238D01*
X-83617561Y29595238D02*
X-83569942Y29642857D01*
X-83569942Y29642857D02*
X-83474704Y29690476D01*
X-83474704Y29690476D02*
X-83379466Y29690476D01*
X-83379466Y29690476D02*
X-83236609Y29642857D01*
X-83236609Y29642857D02*
X-82665180Y29071429D01*
X-82665180Y29071429D02*
X-82665180Y29690476D01*
X-83665180Y30023810D02*
X-83665180Y30642857D01*
X-83665180Y30642857D02*
X-83284228Y30309524D01*
X-83284228Y30309524D02*
X-83284228Y30452381D01*
X-83284228Y30452381D02*
X-83236609Y30547619D01*
X-83236609Y30547619D02*
X-83188990Y30595238D01*
X-83188990Y30595238D02*
X-83093752Y30642857D01*
X-83093752Y30642857D02*
X-82855657Y30642857D01*
X-82855657Y30642857D02*
X-82760419Y30595238D01*
X-82760419Y30595238D02*
X-82712800Y30547619D01*
X-82712800Y30547619D02*
X-82665180Y30452381D01*
X-82665180Y30452381D02*
X-82665180Y30166667D01*
X-82665180Y30166667D02*
X-82712800Y30071429D01*
X-82712800Y30071429D02*
X-82760419Y30023810D01*
X-84820180Y-114309523D02*
X-84105895Y-114309523D01*
X-84105895Y-114309523D02*
X-83963038Y-114357142D01*
X-83963038Y-114357142D02*
X-83867800Y-114452380D01*
X-83867800Y-114452380D02*
X-83820180Y-114595237D01*
X-83820180Y-114595237D02*
X-83820180Y-114690475D01*
X-84486847Y-113404761D02*
X-83820180Y-113404761D01*
X-84867800Y-113642856D02*
X-84153514Y-113880951D01*
X-84153514Y-113880951D02*
X-84153514Y-113261904D01*
X-84820180Y-112690475D02*
X-84820180Y-112595237D01*
X-84820180Y-112595237D02*
X-84772561Y-112499999D01*
X-84772561Y-112499999D02*
X-84724942Y-112452380D01*
X-84724942Y-112452380D02*
X-84629704Y-112404761D01*
X-84629704Y-112404761D02*
X-84439228Y-112357142D01*
X-84439228Y-112357142D02*
X-84201133Y-112357142D01*
X-84201133Y-112357142D02*
X-84010657Y-112404761D01*
X-84010657Y-112404761D02*
X-83915419Y-112452380D01*
X-83915419Y-112452380D02*
X-83867800Y-112499999D01*
X-83867800Y-112499999D02*
X-83820180Y-112595237D01*
X-83820180Y-112595237D02*
X-83820180Y-112690475D01*
X-83820180Y-112690475D02*
X-83867800Y-112785713D01*
X-83867800Y-112785713D02*
X-83915419Y-112833332D01*
X-83915419Y-112833332D02*
X-84010657Y-112880951D01*
X-84010657Y-112880951D02*
X-84201133Y-112928570D01*
X-84201133Y-112928570D02*
X-84439228Y-112928570D01*
X-84439228Y-112928570D02*
X-84629704Y-112880951D01*
X-84629704Y-112880951D02*
X-84724942Y-112833332D01*
X-84724942Y-112833332D02*
X-84772561Y-112785713D01*
X-84772561Y-112785713D02*
X-84820180Y-112690475D01*
X-83665180Y-80309523D02*
X-82950895Y-80309523D01*
X-82950895Y-80309523D02*
X-82808038Y-80357142D01*
X-82808038Y-80357142D02*
X-82712800Y-80452380D01*
X-82712800Y-80452380D02*
X-82665180Y-80595237D01*
X-82665180Y-80595237D02*
X-82665180Y-80690475D01*
X-83665180Y-79928570D02*
X-83665180Y-79309523D01*
X-83665180Y-79309523D02*
X-83284228Y-79642856D01*
X-83284228Y-79642856D02*
X-83284228Y-79499999D01*
X-83284228Y-79499999D02*
X-83236609Y-79404761D01*
X-83236609Y-79404761D02*
X-83188990Y-79357142D01*
X-83188990Y-79357142D02*
X-83093752Y-79309523D01*
X-83093752Y-79309523D02*
X-82855657Y-79309523D01*
X-82855657Y-79309523D02*
X-82760419Y-79357142D01*
X-82760419Y-79357142D02*
X-82712800Y-79404761D01*
X-82712800Y-79404761D02*
X-82665180Y-79499999D01*
X-82665180Y-79499999D02*
X-82665180Y-79785713D01*
X-82665180Y-79785713D02*
X-82712800Y-79880951D01*
X-82712800Y-79880951D02*
X-82760419Y-79928570D01*
X-83665180Y-78452380D02*
X-83665180Y-78642856D01*
X-83665180Y-78642856D02*
X-83617561Y-78738094D01*
X-83617561Y-78738094D02*
X-83569942Y-78785713D01*
X-83569942Y-78785713D02*
X-83427085Y-78880951D01*
X-83427085Y-78880951D02*
X-83236609Y-78928570D01*
X-83236609Y-78928570D02*
X-82855657Y-78928570D01*
X-82855657Y-78928570D02*
X-82760419Y-78880951D01*
X-82760419Y-78880951D02*
X-82712800Y-78833332D01*
X-82712800Y-78833332D02*
X-82665180Y-78738094D01*
X-82665180Y-78738094D02*
X-82665180Y-78547618D01*
X-82665180Y-78547618D02*
X-82712800Y-78452380D01*
X-82712800Y-78452380D02*
X-82760419Y-78404761D01*
X-82760419Y-78404761D02*
X-82855657Y-78357142D01*
X-82855657Y-78357142D02*
X-83093752Y-78357142D01*
X-83093752Y-78357142D02*
X-83188990Y-78404761D01*
X-83188990Y-78404761D02*
X-83236609Y-78452380D01*
X-83236609Y-78452380D02*
X-83284228Y-78547618D01*
X-83284228Y-78547618D02*
X-83284228Y-78738094D01*
X-83284228Y-78738094D02*
X-83236609Y-78833332D01*
X-83236609Y-78833332D02*
X-83188990Y-78880951D01*
X-83188990Y-78880951D02*
X-83093752Y-78928570D01*
X-65299523Y-99062779D02*
X-65299523Y-99777064D01*
X-65299523Y-99777064D02*
X-65347142Y-99919921D01*
X-65347142Y-99919921D02*
X-65442380Y-100015160D01*
X-65442380Y-100015160D02*
X-65585237Y-100062779D01*
X-65585237Y-100062779D02*
X-65680475Y-100062779D01*
X-64299523Y-100062779D02*
X-64870951Y-100062779D01*
X-64585237Y-100062779D02*
X-64585237Y-99062779D01*
X-64585237Y-99062779D02*
X-64680475Y-99205636D01*
X-64680475Y-99205636D02*
X-64775713Y-99300874D01*
X-64775713Y-99300874D02*
X-64870951Y-99348493D01*
X-63823332Y-100062779D02*
X-63632856Y-100062779D01*
X-63632856Y-100062779D02*
X-63537618Y-100015160D01*
X-63537618Y-100015160D02*
X-63489999Y-99967540D01*
X-63489999Y-99967540D02*
X-63394761Y-99824683D01*
X-63394761Y-99824683D02*
X-63347142Y-99634207D01*
X-63347142Y-99634207D02*
X-63347142Y-99253255D01*
X-63347142Y-99253255D02*
X-63394761Y-99158017D01*
X-63394761Y-99158017D02*
X-63442380Y-99110398D01*
X-63442380Y-99110398D02*
X-63537618Y-99062779D01*
X-63537618Y-99062779D02*
X-63728094Y-99062779D01*
X-63728094Y-99062779D02*
X-63823332Y-99110398D01*
X-63823332Y-99110398D02*
X-63870951Y-99158017D01*
X-63870951Y-99158017D02*
X-63918570Y-99253255D01*
X-63918570Y-99253255D02*
X-63918570Y-99491350D01*
X-63918570Y-99491350D02*
X-63870951Y-99586588D01*
X-63870951Y-99586588D02*
X-63823332Y-99634207D01*
X-63823332Y-99634207D02*
X-63728094Y-99681826D01*
X-63728094Y-99681826D02*
X-63537618Y-99681826D01*
X-63537618Y-99681826D02*
X-63442380Y-99634207D01*
X-63442380Y-99634207D02*
X-63394761Y-99586588D01*
X-63394761Y-99586588D02*
X-63347142Y-99491350D01*
X-152726826Y-125056121D02*
X-152679207Y-125103740D01*
X-152679207Y-125103740D02*
X-152631587Y-125246597D01*
X-152631587Y-125246597D02*
X-152631587Y-125341835D01*
X-152631587Y-125341835D02*
X-152679207Y-125484692D01*
X-152679207Y-125484692D02*
X-152774445Y-125579930D01*
X-152774445Y-125579930D02*
X-152869683Y-125627549D01*
X-152869683Y-125627549D02*
X-153060159Y-125675168D01*
X-153060159Y-125675168D02*
X-153203016Y-125675168D01*
X-153203016Y-125675168D02*
X-153393492Y-125627549D01*
X-153393492Y-125627549D02*
X-153488730Y-125579930D01*
X-153488730Y-125579930D02*
X-153583968Y-125484692D01*
X-153583968Y-125484692D02*
X-153631587Y-125341835D01*
X-153631587Y-125341835D02*
X-153631587Y-125246597D01*
X-153631587Y-125246597D02*
X-153583968Y-125103740D01*
X-153583968Y-125103740D02*
X-153536349Y-125056121D01*
X-153203016Y-124484692D02*
X-153250635Y-124579930D01*
X-153250635Y-124579930D02*
X-153298254Y-124627549D01*
X-153298254Y-124627549D02*
X-153393492Y-124675168D01*
X-153393492Y-124675168D02*
X-153441111Y-124675168D01*
X-153441111Y-124675168D02*
X-153536349Y-124627549D01*
X-153536349Y-124627549D02*
X-153583968Y-124579930D01*
X-153583968Y-124579930D02*
X-153631587Y-124484692D01*
X-153631587Y-124484692D02*
X-153631587Y-124294216D01*
X-153631587Y-124294216D02*
X-153583968Y-124198978D01*
X-153583968Y-124198978D02*
X-153536349Y-124151359D01*
X-153536349Y-124151359D02*
X-153441111Y-124103740D01*
X-153441111Y-124103740D02*
X-153393492Y-124103740D01*
X-153393492Y-124103740D02*
X-153298254Y-124151359D01*
X-153298254Y-124151359D02*
X-153250635Y-124198978D01*
X-153250635Y-124198978D02*
X-153203016Y-124294216D01*
X-153203016Y-124294216D02*
X-153203016Y-124484692D01*
X-153203016Y-124484692D02*
X-153155397Y-124579930D01*
X-153155397Y-124579930D02*
X-153107778Y-124627549D01*
X-153107778Y-124627549D02*
X-153012540Y-124675168D01*
X-153012540Y-124675168D02*
X-152822064Y-124675168D01*
X-152822064Y-124675168D02*
X-152726826Y-124627549D01*
X-152726826Y-124627549D02*
X-152679207Y-124579930D01*
X-152679207Y-124579930D02*
X-152631587Y-124484692D01*
X-152631587Y-124484692D02*
X-152631587Y-124294216D01*
X-152631587Y-124294216D02*
X-152679207Y-124198978D01*
X-152679207Y-124198978D02*
X-152726826Y-124151359D01*
X-152726826Y-124151359D02*
X-152822064Y-124103740D01*
X-152822064Y-124103740D02*
X-153012540Y-124103740D01*
X-153012540Y-124103740D02*
X-153107778Y-124151359D01*
X-153107778Y-124151359D02*
X-153155397Y-124198978D01*
X-153155397Y-124198978D02*
X-153203016Y-124294216D01*
X-130518508Y-32674819D02*
X-130851841Y-32198628D01*
X-131089936Y-32674819D02*
X-131089936Y-31674819D01*
X-131089936Y-31674819D02*
X-130708984Y-31674819D01*
X-130708984Y-31674819D02*
X-130613746Y-31722438D01*
X-130613746Y-31722438D02*
X-130566127Y-31770057D01*
X-130566127Y-31770057D02*
X-130518508Y-31865295D01*
X-130518508Y-31865295D02*
X-130518508Y-32008152D01*
X-130518508Y-32008152D02*
X-130566127Y-32103390D01*
X-130566127Y-32103390D02*
X-130613746Y-32151009D01*
X-130613746Y-32151009D02*
X-130708984Y-32198628D01*
X-130708984Y-32198628D02*
X-131089936Y-32198628D01*
X-129566127Y-32674819D02*
X-130137555Y-32674819D01*
X-129851841Y-32674819D02*
X-129851841Y-31674819D01*
X-129851841Y-31674819D02*
X-129947079Y-31817676D01*
X-129947079Y-31817676D02*
X-130042317Y-31912914D01*
X-130042317Y-31912914D02*
X-130137555Y-31960533D01*
X-129185174Y-31770057D02*
X-129137555Y-31722438D01*
X-129137555Y-31722438D02*
X-129042317Y-31674819D01*
X-129042317Y-31674819D02*
X-128804222Y-31674819D01*
X-128804222Y-31674819D02*
X-128708984Y-31722438D01*
X-128708984Y-31722438D02*
X-128661365Y-31770057D01*
X-128661365Y-31770057D02*
X-128613746Y-31865295D01*
X-128613746Y-31865295D02*
X-128613746Y-31960533D01*
X-128613746Y-31960533D02*
X-128661365Y-32103390D01*
X-128661365Y-32103390D02*
X-129232793Y-32674819D01*
X-129232793Y-32674819D02*
X-128613746Y-32674819D01*
X-160385179Y-23481405D02*
X-160385179Y-23957595D01*
X-160385179Y-23957595D02*
X-161385179Y-23957595D01*
X-161051846Y-22719500D02*
X-160385179Y-22719500D01*
X-161432799Y-22957595D02*
X-160718513Y-23195690D01*
X-160718513Y-23195690D02*
X-160718513Y-22576643D01*
X-129642317Y32425180D02*
X-129975650Y32901371D01*
X-130213745Y32425180D02*
X-130213745Y33425180D01*
X-130213745Y33425180D02*
X-129832793Y33425180D01*
X-129832793Y33425180D02*
X-129737555Y33377561D01*
X-129737555Y33377561D02*
X-129689936Y33329942D01*
X-129689936Y33329942D02*
X-129642317Y33234704D01*
X-129642317Y33234704D02*
X-129642317Y33091847D01*
X-129642317Y33091847D02*
X-129689936Y32996609D01*
X-129689936Y32996609D02*
X-129737555Y32948990D01*
X-129737555Y32948990D02*
X-129832793Y32901371D01*
X-129832793Y32901371D02*
X-130213745Y32901371D01*
X-128785174Y33091847D02*
X-128785174Y32425180D01*
X-129023269Y33472800D02*
X-129261364Y32758514D01*
X-129261364Y32758514D02*
X-128642317Y32758514D01*
X-181244818Y-35967907D02*
X-181959103Y-35967907D01*
X-181959103Y-35967907D02*
X-182101960Y-35920288D01*
X-182101960Y-35920288D02*
X-182197199Y-35825050D01*
X-182197199Y-35825050D02*
X-182244818Y-35682193D01*
X-182244818Y-35682193D02*
X-182244818Y-35586955D01*
X-182244818Y-36967907D02*
X-182244818Y-36396479D01*
X-182244818Y-36682193D02*
X-181244818Y-36682193D01*
X-181244818Y-36682193D02*
X-181387675Y-36586955D01*
X-181387675Y-36586955D02*
X-181482913Y-36491717D01*
X-181482913Y-36491717D02*
X-181530532Y-36396479D01*
X-181244818Y-37301241D02*
X-181244818Y-37920288D01*
X-181244818Y-37920288D02*
X-181625770Y-37586955D01*
X-181625770Y-37586955D02*
X-181625770Y-37729812D01*
X-181625770Y-37729812D02*
X-181673389Y-37825050D01*
X-181673389Y-37825050D02*
X-181721008Y-37872669D01*
X-181721008Y-37872669D02*
X-181816246Y-37920288D01*
X-181816246Y-37920288D02*
X-182054341Y-37920288D01*
X-182054341Y-37920288D02*
X-182149579Y-37872669D01*
X-182149579Y-37872669D02*
X-182197199Y-37825050D01*
X-182197199Y-37825050D02*
X-182244818Y-37729812D01*
X-182244818Y-37729812D02*
X-182244818Y-37444098D01*
X-182244818Y-37444098D02*
X-182197199Y-37348860D01*
X-182197199Y-37348860D02*
X-182149579Y-37301241D01*
X-130042317Y43825180D02*
X-130375650Y44301371D01*
X-130613745Y43825180D02*
X-130613745Y44825180D01*
X-130613745Y44825180D02*
X-130232793Y44825180D01*
X-130232793Y44825180D02*
X-130137555Y44777561D01*
X-130137555Y44777561D02*
X-130089936Y44729942D01*
X-130089936Y44729942D02*
X-130042317Y44634704D01*
X-130042317Y44634704D02*
X-130042317Y44491847D01*
X-130042317Y44491847D02*
X-130089936Y44396609D01*
X-130089936Y44396609D02*
X-130137555Y44348990D01*
X-130137555Y44348990D02*
X-130232793Y44301371D01*
X-130232793Y44301371D02*
X-130613745Y44301371D01*
X-129708983Y44825180D02*
X-129089936Y44825180D01*
X-129089936Y44825180D02*
X-129423269Y44444228D01*
X-129423269Y44444228D02*
X-129280412Y44444228D01*
X-129280412Y44444228D02*
X-129185174Y44396609D01*
X-129185174Y44396609D02*
X-129137555Y44348990D01*
X-129137555Y44348990D02*
X-129089936Y44253752D01*
X-129089936Y44253752D02*
X-129089936Y44015657D01*
X-129089936Y44015657D02*
X-129137555Y43920419D01*
X-129137555Y43920419D02*
X-129185174Y43872800D01*
X-129185174Y43872800D02*
X-129280412Y43825180D01*
X-129280412Y43825180D02*
X-129566126Y43825180D01*
X-129566126Y43825180D02*
X-129661364Y43872800D01*
X-129661364Y43872800D02*
X-129708983Y43920419D01*
X-83665180Y-37809523D02*
X-82950895Y-37809523D01*
X-82950895Y-37809523D02*
X-82808038Y-37857142D01*
X-82808038Y-37857142D02*
X-82712800Y-37952380D01*
X-82712800Y-37952380D02*
X-82665180Y-38095237D01*
X-82665180Y-38095237D02*
X-82665180Y-38190475D01*
X-83665180Y-37428570D02*
X-83665180Y-36809523D01*
X-83665180Y-36809523D02*
X-83284228Y-37142856D01*
X-83284228Y-37142856D02*
X-83284228Y-36999999D01*
X-83284228Y-36999999D02*
X-83236609Y-36904761D01*
X-83236609Y-36904761D02*
X-83188990Y-36857142D01*
X-83188990Y-36857142D02*
X-83093752Y-36809523D01*
X-83093752Y-36809523D02*
X-82855657Y-36809523D01*
X-82855657Y-36809523D02*
X-82760419Y-36857142D01*
X-82760419Y-36857142D02*
X-82712800Y-36904761D01*
X-82712800Y-36904761D02*
X-82665180Y-36999999D01*
X-82665180Y-36999999D02*
X-82665180Y-37285713D01*
X-82665180Y-37285713D02*
X-82712800Y-37380951D01*
X-82712800Y-37380951D02*
X-82760419Y-37428570D01*
X-82665180Y-35857142D02*
X-82665180Y-36428570D01*
X-82665180Y-36142856D02*
X-83665180Y-36142856D01*
X-83665180Y-36142856D02*
X-83522323Y-36238094D01*
X-83522323Y-36238094D02*
X-83427085Y-36333332D01*
X-83427085Y-36333332D02*
X-83379466Y-36428570D01*
X-130118508Y-69574819D02*
X-130451841Y-69098628D01*
X-130689936Y-69574819D02*
X-130689936Y-68574819D01*
X-130689936Y-68574819D02*
X-130308984Y-68574819D01*
X-130308984Y-68574819D02*
X-130213746Y-68622438D01*
X-130213746Y-68622438D02*
X-130166127Y-68670057D01*
X-130166127Y-68670057D02*
X-130118508Y-68765295D01*
X-130118508Y-68765295D02*
X-130118508Y-68908152D01*
X-130118508Y-68908152D02*
X-130166127Y-69003390D01*
X-130166127Y-69003390D02*
X-130213746Y-69051009D01*
X-130213746Y-69051009D02*
X-130308984Y-69098628D01*
X-130308984Y-69098628D02*
X-130689936Y-69098628D01*
X-129166127Y-69574819D02*
X-129737555Y-69574819D01*
X-129451841Y-69574819D02*
X-129451841Y-68574819D01*
X-129451841Y-68574819D02*
X-129547079Y-68717676D01*
X-129547079Y-68717676D02*
X-129642317Y-68812914D01*
X-129642317Y-68812914D02*
X-129737555Y-68860533D01*
X-128308984Y-68574819D02*
X-128499460Y-68574819D01*
X-128499460Y-68574819D02*
X-128594698Y-68622438D01*
X-128594698Y-68622438D02*
X-128642317Y-68670057D01*
X-128642317Y-68670057D02*
X-128737555Y-68812914D01*
X-128737555Y-68812914D02*
X-128785174Y-69003390D01*
X-128785174Y-69003390D02*
X-128785174Y-69384342D01*
X-128785174Y-69384342D02*
X-128737555Y-69479580D01*
X-128737555Y-69479580D02*
X-128689936Y-69527200D01*
X-128689936Y-69527200D02*
X-128594698Y-69574819D01*
X-128594698Y-69574819D02*
X-128404222Y-69574819D01*
X-128404222Y-69574819D02*
X-128308984Y-69527200D01*
X-128308984Y-69527200D02*
X-128261365Y-69479580D01*
X-128261365Y-69479580D02*
X-128213746Y-69384342D01*
X-128213746Y-69384342D02*
X-128213746Y-69146247D01*
X-128213746Y-69146247D02*
X-128261365Y-69051009D01*
X-128261365Y-69051009D02*
X-128308984Y-69003390D01*
X-128308984Y-69003390D02*
X-128404222Y-68955771D01*
X-128404222Y-68955771D02*
X-128594698Y-68955771D01*
X-128594698Y-68955771D02*
X-128689936Y-69003390D01*
X-128689936Y-69003390D02*
X-128737555Y-69051009D01*
X-128737555Y-69051009D02*
X-128785174Y-69146247D01*
X-83665180Y-124309523D02*
X-82950895Y-124309523D01*
X-82950895Y-124309523D02*
X-82808038Y-124357142D01*
X-82808038Y-124357142D02*
X-82712800Y-124452380D01*
X-82712800Y-124452380D02*
X-82665180Y-124595237D01*
X-82665180Y-124595237D02*
X-82665180Y-124690475D01*
X-83331847Y-123404761D02*
X-82665180Y-123404761D01*
X-83712800Y-123642856D02*
X-82998514Y-123880951D01*
X-82998514Y-123880951D02*
X-82998514Y-123261904D01*
X-82665180Y-122357142D02*
X-82665180Y-122928570D01*
X-82665180Y-122642856D02*
X-83665180Y-122642856D01*
X-83665180Y-122642856D02*
X-83522323Y-122738094D01*
X-83522323Y-122738094D02*
X-83427085Y-122833332D01*
X-83427085Y-122833332D02*
X-83379466Y-122928570D01*
X-83665180Y-63309523D02*
X-82950895Y-63309523D01*
X-82950895Y-63309523D02*
X-82808038Y-63357142D01*
X-82808038Y-63357142D02*
X-82712800Y-63452380D01*
X-82712800Y-63452380D02*
X-82665180Y-63595237D01*
X-82665180Y-63595237D02*
X-82665180Y-63690475D01*
X-83665180Y-62928570D02*
X-83665180Y-62309523D01*
X-83665180Y-62309523D02*
X-83284228Y-62642856D01*
X-83284228Y-62642856D02*
X-83284228Y-62499999D01*
X-83284228Y-62499999D02*
X-83236609Y-62404761D01*
X-83236609Y-62404761D02*
X-83188990Y-62357142D01*
X-83188990Y-62357142D02*
X-83093752Y-62309523D01*
X-83093752Y-62309523D02*
X-82855657Y-62309523D01*
X-82855657Y-62309523D02*
X-82760419Y-62357142D01*
X-82760419Y-62357142D02*
X-82712800Y-62404761D01*
X-82712800Y-62404761D02*
X-82665180Y-62499999D01*
X-82665180Y-62499999D02*
X-82665180Y-62785713D01*
X-82665180Y-62785713D02*
X-82712800Y-62880951D01*
X-82712800Y-62880951D02*
X-82760419Y-62928570D01*
X-83331847Y-61452380D02*
X-82665180Y-61452380D01*
X-83712800Y-61690475D02*
X-82998514Y-61928570D01*
X-82998514Y-61928570D02*
X-82998514Y-61309523D01*
X-129642317Y-1274819D02*
X-129975650Y-798628D01*
X-130213745Y-1274819D02*
X-130213745Y-274819D01*
X-130213745Y-274819D02*
X-129832793Y-274819D01*
X-129832793Y-274819D02*
X-129737555Y-322438D01*
X-129737555Y-322438D02*
X-129689936Y-370057D01*
X-129689936Y-370057D02*
X-129642317Y-465295D01*
X-129642317Y-465295D02*
X-129642317Y-608152D01*
X-129642317Y-608152D02*
X-129689936Y-703390D01*
X-129689936Y-703390D02*
X-129737555Y-751009D01*
X-129737555Y-751009D02*
X-129832793Y-798628D01*
X-129832793Y-798628D02*
X-130213745Y-798628D01*
X-129070888Y-703390D02*
X-129166126Y-655771D01*
X-129166126Y-655771D02*
X-129213745Y-608152D01*
X-129213745Y-608152D02*
X-129261364Y-512914D01*
X-129261364Y-512914D02*
X-129261364Y-465295D01*
X-129261364Y-465295D02*
X-129213745Y-370057D01*
X-129213745Y-370057D02*
X-129166126Y-322438D01*
X-129166126Y-322438D02*
X-129070888Y-274819D01*
X-129070888Y-274819D02*
X-128880412Y-274819D01*
X-128880412Y-274819D02*
X-128785174Y-322438D01*
X-128785174Y-322438D02*
X-128737555Y-370057D01*
X-128737555Y-370057D02*
X-128689936Y-465295D01*
X-128689936Y-465295D02*
X-128689936Y-512914D01*
X-128689936Y-512914D02*
X-128737555Y-608152D01*
X-128737555Y-608152D02*
X-128785174Y-655771D01*
X-128785174Y-655771D02*
X-128880412Y-703390D01*
X-128880412Y-703390D02*
X-129070888Y-703390D01*
X-129070888Y-703390D02*
X-129166126Y-751009D01*
X-129166126Y-751009D02*
X-129213745Y-798628D01*
X-129213745Y-798628D02*
X-129261364Y-893866D01*
X-129261364Y-893866D02*
X-129261364Y-1084342D01*
X-129261364Y-1084342D02*
X-129213745Y-1179580D01*
X-129213745Y-1179580D02*
X-129166126Y-1227200D01*
X-129166126Y-1227200D02*
X-129070888Y-1274819D01*
X-129070888Y-1274819D02*
X-128880412Y-1274819D01*
X-128880412Y-1274819D02*
X-128785174Y-1227200D01*
X-128785174Y-1227200D02*
X-128737555Y-1179580D01*
X-128737555Y-1179580D02*
X-128689936Y-1084342D01*
X-128689936Y-1084342D02*
X-128689936Y-893866D01*
X-128689936Y-893866D02*
X-128737555Y-798628D01*
X-128737555Y-798628D02*
X-128785174Y-751009D01*
X-128785174Y-751009D02*
X-128880412Y-703390D01*
X-160385179Y27618594D02*
X-160385179Y27142404D01*
X-160385179Y27142404D02*
X-161385179Y27142404D01*
X-161289941Y27904309D02*
X-161337560Y27951928D01*
X-161337560Y27951928D02*
X-161385179Y28047166D01*
X-161385179Y28047166D02*
X-161385179Y28285261D01*
X-161385179Y28285261D02*
X-161337560Y28380499D01*
X-161337560Y28380499D02*
X-161289941Y28428118D01*
X-161289941Y28428118D02*
X-161194703Y28475737D01*
X-161194703Y28475737D02*
X-161099465Y28475737D01*
X-161099465Y28475737D02*
X-160956608Y28428118D01*
X-160956608Y28428118D02*
X-160385179Y27856690D01*
X-160385179Y27856690D02*
X-160385179Y28475737D01*
X-65299523Y-124576858D02*
X-65299523Y-125291143D01*
X-65299523Y-125291143D02*
X-65347142Y-125434000D01*
X-65347142Y-125434000D02*
X-65442380Y-125529239D01*
X-65442380Y-125529239D02*
X-65585237Y-125576858D01*
X-65585237Y-125576858D02*
X-65680475Y-125576858D01*
X-64870951Y-124672096D02*
X-64823332Y-124624477D01*
X-64823332Y-124624477D02*
X-64728094Y-124576858D01*
X-64728094Y-124576858D02*
X-64489999Y-124576858D01*
X-64489999Y-124576858D02*
X-64394761Y-124624477D01*
X-64394761Y-124624477D02*
X-64347142Y-124672096D01*
X-64347142Y-124672096D02*
X-64299523Y-124767334D01*
X-64299523Y-124767334D02*
X-64299523Y-124862572D01*
X-64299523Y-124862572D02*
X-64347142Y-125005429D01*
X-64347142Y-125005429D02*
X-64918570Y-125576858D01*
X-64918570Y-125576858D02*
X-64299523Y-125576858D01*
X-63680475Y-124576858D02*
X-63585237Y-124576858D01*
X-63585237Y-124576858D02*
X-63489999Y-124624477D01*
X-63489999Y-124624477D02*
X-63442380Y-124672096D01*
X-63442380Y-124672096D02*
X-63394761Y-124767334D01*
X-63394761Y-124767334D02*
X-63347142Y-124957810D01*
X-63347142Y-124957810D02*
X-63347142Y-125195905D01*
X-63347142Y-125195905D02*
X-63394761Y-125386381D01*
X-63394761Y-125386381D02*
X-63442380Y-125481619D01*
X-63442380Y-125481619D02*
X-63489999Y-125529239D01*
X-63489999Y-125529239D02*
X-63585237Y-125576858D01*
X-63585237Y-125576858D02*
X-63680475Y-125576858D01*
X-63680475Y-125576858D02*
X-63775713Y-125529239D01*
X-63775713Y-125529239D02*
X-63823332Y-125481619D01*
X-63823332Y-125481619D02*
X-63870951Y-125386381D01*
X-63870951Y-125386381D02*
X-63918570Y-125195905D01*
X-63918570Y-125195905D02*
X-63918570Y-124957810D01*
X-63918570Y-124957810D02*
X-63870951Y-124767334D01*
X-63870951Y-124767334D02*
X-63823332Y-124672096D01*
X-63823332Y-124672096D02*
X-63775713Y-124624477D01*
X-63775713Y-124624477D02*
X-63680475Y-124576858D01*
X-83665180Y21690476D02*
X-82950895Y21690476D01*
X-82950895Y21690476D02*
X-82808038Y21642857D01*
X-82808038Y21642857D02*
X-82712800Y21547619D01*
X-82712800Y21547619D02*
X-82665180Y21404762D01*
X-82665180Y21404762D02*
X-82665180Y21309524D01*
X-83569942Y22119048D02*
X-83617561Y22166667D01*
X-83617561Y22166667D02*
X-83665180Y22261905D01*
X-83665180Y22261905D02*
X-83665180Y22500000D01*
X-83665180Y22500000D02*
X-83617561Y22595238D01*
X-83617561Y22595238D02*
X-83569942Y22642857D01*
X-83569942Y22642857D02*
X-83474704Y22690476D01*
X-83474704Y22690476D02*
X-83379466Y22690476D01*
X-83379466Y22690476D02*
X-83236609Y22642857D01*
X-83236609Y22642857D02*
X-82665180Y22071429D01*
X-82665180Y22071429D02*
X-82665180Y22690476D01*
X-83331847Y23547619D02*
X-82665180Y23547619D01*
X-83712800Y23309524D02*
X-82998514Y23071429D01*
X-82998514Y23071429D02*
X-82998514Y23690476D01*
X-160872846Y-74581254D02*
X-160872846Y-75057444D01*
X-160872846Y-75057444D02*
X-161872846Y-75057444D01*
X-161872846Y-73819349D02*
X-161872846Y-74009825D01*
X-161872846Y-74009825D02*
X-161825227Y-74105063D01*
X-161825227Y-74105063D02*
X-161777608Y-74152682D01*
X-161777608Y-74152682D02*
X-161634751Y-74247920D01*
X-161634751Y-74247920D02*
X-161444275Y-74295539D01*
X-161444275Y-74295539D02*
X-161063323Y-74295539D01*
X-161063323Y-74295539D02*
X-160968085Y-74247920D01*
X-160968085Y-74247920D02*
X-160920466Y-74200301D01*
X-160920466Y-74200301D02*
X-160872846Y-74105063D01*
X-160872846Y-74105063D02*
X-160872846Y-73914587D01*
X-160872846Y-73914587D02*
X-160920466Y-73819349D01*
X-160920466Y-73819349D02*
X-160968085Y-73771730D01*
X-160968085Y-73771730D02*
X-161063323Y-73724111D01*
X-161063323Y-73724111D02*
X-161301418Y-73724111D01*
X-161301418Y-73724111D02*
X-161396656Y-73771730D01*
X-161396656Y-73771730D02*
X-161444275Y-73819349D01*
X-161444275Y-73819349D02*
X-161491894Y-73914587D01*
X-161491894Y-73914587D02*
X-161491894Y-74105063D01*
X-161491894Y-74105063D02*
X-161444275Y-74200301D01*
X-161444275Y-74200301D02*
X-161396656Y-74247920D01*
X-161396656Y-74247920D02*
X-161301418Y-74295539D01*
X-130118508Y-26774819D02*
X-130451841Y-26298628D01*
X-130689936Y-26774819D02*
X-130689936Y-25774819D01*
X-130689936Y-25774819D02*
X-130308984Y-25774819D01*
X-130308984Y-25774819D02*
X-130213746Y-25822438D01*
X-130213746Y-25822438D02*
X-130166127Y-25870057D01*
X-130166127Y-25870057D02*
X-130118508Y-25965295D01*
X-130118508Y-25965295D02*
X-130118508Y-26108152D01*
X-130118508Y-26108152D02*
X-130166127Y-26203390D01*
X-130166127Y-26203390D02*
X-130213746Y-26251009D01*
X-130213746Y-26251009D02*
X-130308984Y-26298628D01*
X-130308984Y-26298628D02*
X-130689936Y-26298628D01*
X-129166127Y-26774819D02*
X-129737555Y-26774819D01*
X-129451841Y-26774819D02*
X-129451841Y-25774819D01*
X-129451841Y-25774819D02*
X-129547079Y-25917676D01*
X-129547079Y-25917676D02*
X-129642317Y-26012914D01*
X-129642317Y-26012914D02*
X-129737555Y-26060533D01*
X-128213746Y-26774819D02*
X-128785174Y-26774819D01*
X-128499460Y-26774819D02*
X-128499460Y-25774819D01*
X-128499460Y-25774819D02*
X-128594698Y-25917676D01*
X-128594698Y-25917676D02*
X-128689936Y-26012914D01*
X-128689936Y-26012914D02*
X-128785174Y-26060533D01*
X-83665180Y-22309523D02*
X-82950895Y-22309523D01*
X-82950895Y-22309523D02*
X-82808038Y-22357142D01*
X-82808038Y-22357142D02*
X-82712800Y-22452380D01*
X-82712800Y-22452380D02*
X-82665180Y-22595237D01*
X-82665180Y-22595237D02*
X-82665180Y-22690475D01*
X-83569942Y-21880951D02*
X-83617561Y-21833332D01*
X-83617561Y-21833332D02*
X-83665180Y-21738094D01*
X-83665180Y-21738094D02*
X-83665180Y-21499999D01*
X-83665180Y-21499999D02*
X-83617561Y-21404761D01*
X-83617561Y-21404761D02*
X-83569942Y-21357142D01*
X-83569942Y-21357142D02*
X-83474704Y-21309523D01*
X-83474704Y-21309523D02*
X-83379466Y-21309523D01*
X-83379466Y-21309523D02*
X-83236609Y-21357142D01*
X-83236609Y-21357142D02*
X-82665180Y-21928570D01*
X-82665180Y-21928570D02*
X-82665180Y-21309523D01*
X-82665180Y-20833332D02*
X-82665180Y-20642856D01*
X-82665180Y-20642856D02*
X-82712800Y-20547618D01*
X-82712800Y-20547618D02*
X-82760419Y-20499999D01*
X-82760419Y-20499999D02*
X-82903276Y-20404761D01*
X-82903276Y-20404761D02*
X-83093752Y-20357142D01*
X-83093752Y-20357142D02*
X-83474704Y-20357142D01*
X-83474704Y-20357142D02*
X-83569942Y-20404761D01*
X-83569942Y-20404761D02*
X-83617561Y-20452380D01*
X-83617561Y-20452380D02*
X-83665180Y-20547618D01*
X-83665180Y-20547618D02*
X-83665180Y-20738094D01*
X-83665180Y-20738094D02*
X-83617561Y-20833332D01*
X-83617561Y-20833332D02*
X-83569942Y-20880951D01*
X-83569942Y-20880951D02*
X-83474704Y-20928570D01*
X-83474704Y-20928570D02*
X-83236609Y-20928570D01*
X-83236609Y-20928570D02*
X-83141371Y-20880951D01*
X-83141371Y-20880951D02*
X-83093752Y-20833332D01*
X-83093752Y-20833332D02*
X-83046133Y-20738094D01*
X-83046133Y-20738094D02*
X-83046133Y-20547618D01*
X-83046133Y-20547618D02*
X-83093752Y-20452380D01*
X-83093752Y-20452380D02*
X-83141371Y-20404761D01*
X-83141371Y-20404761D02*
X-83236609Y-20357142D01*
X-83665180Y-98809523D02*
X-82950895Y-98809523D01*
X-82950895Y-98809523D02*
X-82808038Y-98857142D01*
X-82808038Y-98857142D02*
X-82712800Y-98952380D01*
X-82712800Y-98952380D02*
X-82665180Y-99095237D01*
X-82665180Y-99095237D02*
X-82665180Y-99190475D01*
X-83665180Y-98428570D02*
X-83665180Y-97809523D01*
X-83665180Y-97809523D02*
X-83284228Y-98142856D01*
X-83284228Y-98142856D02*
X-83284228Y-97999999D01*
X-83284228Y-97999999D02*
X-83236609Y-97904761D01*
X-83236609Y-97904761D02*
X-83188990Y-97857142D01*
X-83188990Y-97857142D02*
X-83093752Y-97809523D01*
X-83093752Y-97809523D02*
X-82855657Y-97809523D01*
X-82855657Y-97809523D02*
X-82760419Y-97857142D01*
X-82760419Y-97857142D02*
X-82712800Y-97904761D01*
X-82712800Y-97904761D02*
X-82665180Y-97999999D01*
X-82665180Y-97999999D02*
X-82665180Y-98285713D01*
X-82665180Y-98285713D02*
X-82712800Y-98380951D01*
X-82712800Y-98380951D02*
X-82760419Y-98428570D01*
X-83236609Y-97238094D02*
X-83284228Y-97333332D01*
X-83284228Y-97333332D02*
X-83331847Y-97380951D01*
X-83331847Y-97380951D02*
X-83427085Y-97428570D01*
X-83427085Y-97428570D02*
X-83474704Y-97428570D01*
X-83474704Y-97428570D02*
X-83569942Y-97380951D01*
X-83569942Y-97380951D02*
X-83617561Y-97333332D01*
X-83617561Y-97333332D02*
X-83665180Y-97238094D01*
X-83665180Y-97238094D02*
X-83665180Y-97047618D01*
X-83665180Y-97047618D02*
X-83617561Y-96952380D01*
X-83617561Y-96952380D02*
X-83569942Y-96904761D01*
X-83569942Y-96904761D02*
X-83474704Y-96857142D01*
X-83474704Y-96857142D02*
X-83427085Y-96857142D01*
X-83427085Y-96857142D02*
X-83331847Y-96904761D01*
X-83331847Y-96904761D02*
X-83284228Y-96952380D01*
X-83284228Y-96952380D02*
X-83236609Y-97047618D01*
X-83236609Y-97047618D02*
X-83236609Y-97238094D01*
X-83236609Y-97238094D02*
X-83188990Y-97333332D01*
X-83188990Y-97333332D02*
X-83141371Y-97380951D01*
X-83141371Y-97380951D02*
X-83046133Y-97428570D01*
X-83046133Y-97428570D02*
X-82855657Y-97428570D01*
X-82855657Y-97428570D02*
X-82760419Y-97380951D01*
X-82760419Y-97380951D02*
X-82712800Y-97333332D01*
X-82712800Y-97333332D02*
X-82665180Y-97238094D01*
X-82665180Y-97238094D02*
X-82665180Y-97047618D01*
X-82665180Y-97047618D02*
X-82712800Y-96952380D01*
X-82712800Y-96952380D02*
X-82760419Y-96904761D01*
X-82760419Y-96904761D02*
X-82855657Y-96857142D01*
X-82855657Y-96857142D02*
X-83046133Y-96857142D01*
X-83046133Y-96857142D02*
X-83141371Y-96904761D01*
X-83141371Y-96904761D02*
X-83188990Y-96952380D01*
X-83188990Y-96952380D02*
X-83236609Y-97047618D01*
X-83665180Y-88809523D02*
X-82950895Y-88809523D01*
X-82950895Y-88809523D02*
X-82808038Y-88857142D01*
X-82808038Y-88857142D02*
X-82712800Y-88952380D01*
X-82712800Y-88952380D02*
X-82665180Y-89095237D01*
X-82665180Y-89095237D02*
X-82665180Y-89190475D01*
X-83665180Y-88428570D02*
X-83665180Y-87809523D01*
X-83665180Y-87809523D02*
X-83284228Y-88142856D01*
X-83284228Y-88142856D02*
X-83284228Y-87999999D01*
X-83284228Y-87999999D02*
X-83236609Y-87904761D01*
X-83236609Y-87904761D02*
X-83188990Y-87857142D01*
X-83188990Y-87857142D02*
X-83093752Y-87809523D01*
X-83093752Y-87809523D02*
X-82855657Y-87809523D01*
X-82855657Y-87809523D02*
X-82760419Y-87857142D01*
X-82760419Y-87857142D02*
X-82712800Y-87904761D01*
X-82712800Y-87904761D02*
X-82665180Y-87999999D01*
X-82665180Y-87999999D02*
X-82665180Y-88285713D01*
X-82665180Y-88285713D02*
X-82712800Y-88380951D01*
X-82712800Y-88380951D02*
X-82760419Y-88428570D01*
X-83665180Y-87476189D02*
X-83665180Y-86809523D01*
X-83665180Y-86809523D02*
X-82665180Y-87238094D01*
X-64823333Y33834981D02*
X-64823333Y33120696D01*
X-64823333Y33120696D02*
X-64870952Y32977839D01*
X-64870952Y32977839D02*
X-64966190Y32882601D01*
X-64966190Y32882601D02*
X-65109047Y32834981D01*
X-65109047Y32834981D02*
X-65204285Y32834981D01*
X-63918571Y33501648D02*
X-63918571Y32834981D01*
X-64156666Y33882601D02*
X-64394761Y33168315D01*
X-64394761Y33168315D02*
X-63775714Y33168315D01*
X-152750418Y-99981405D02*
X-152702799Y-100029024D01*
X-152702799Y-100029024D02*
X-152655179Y-100171881D01*
X-152655179Y-100171881D02*
X-152655179Y-100267119D01*
X-152655179Y-100267119D02*
X-152702799Y-100409976D01*
X-152702799Y-100409976D02*
X-152798037Y-100505214D01*
X-152798037Y-100505214D02*
X-152893275Y-100552833D01*
X-152893275Y-100552833D02*
X-153083751Y-100600452D01*
X-153083751Y-100600452D02*
X-153226608Y-100600452D01*
X-153226608Y-100600452D02*
X-153417084Y-100552833D01*
X-153417084Y-100552833D02*
X-153512322Y-100505214D01*
X-153512322Y-100505214D02*
X-153607560Y-100409976D01*
X-153607560Y-100409976D02*
X-153655179Y-100267119D01*
X-153655179Y-100267119D02*
X-153655179Y-100171881D01*
X-153655179Y-100171881D02*
X-153607560Y-100029024D01*
X-153607560Y-100029024D02*
X-153559941Y-99981405D01*
X-153655179Y-99648071D02*
X-153655179Y-98981405D01*
X-153655179Y-98981405D02*
X-152655179Y-99409976D01*
X-130118508Y-43574819D02*
X-130451841Y-43098628D01*
X-130689936Y-43574819D02*
X-130689936Y-42574819D01*
X-130689936Y-42574819D02*
X-130308984Y-42574819D01*
X-130308984Y-42574819D02*
X-130213746Y-42622438D01*
X-130213746Y-42622438D02*
X-130166127Y-42670057D01*
X-130166127Y-42670057D02*
X-130118508Y-42765295D01*
X-130118508Y-42765295D02*
X-130118508Y-42908152D01*
X-130118508Y-42908152D02*
X-130166127Y-43003390D01*
X-130166127Y-43003390D02*
X-130213746Y-43051009D01*
X-130213746Y-43051009D02*
X-130308984Y-43098628D01*
X-130308984Y-43098628D02*
X-130689936Y-43098628D01*
X-129166127Y-43574819D02*
X-129737555Y-43574819D01*
X-129451841Y-43574819D02*
X-129451841Y-42574819D01*
X-129451841Y-42574819D02*
X-129547079Y-42717676D01*
X-129547079Y-42717676D02*
X-129642317Y-42812914D01*
X-129642317Y-42812914D02*
X-129737555Y-42860533D01*
X-128832793Y-42574819D02*
X-128213746Y-42574819D01*
X-128213746Y-42574819D02*
X-128547079Y-42955771D01*
X-128547079Y-42955771D02*
X-128404222Y-42955771D01*
X-128404222Y-42955771D02*
X-128308984Y-43003390D01*
X-128308984Y-43003390D02*
X-128261365Y-43051009D01*
X-128261365Y-43051009D02*
X-128213746Y-43146247D01*
X-128213746Y-43146247D02*
X-128213746Y-43384342D01*
X-128213746Y-43384342D02*
X-128261365Y-43479580D01*
X-128261365Y-43479580D02*
X-128308984Y-43527200D01*
X-128308984Y-43527200D02*
X-128404222Y-43574819D01*
X-128404222Y-43574819D02*
X-128689936Y-43574819D01*
X-128689936Y-43574819D02*
X-128785174Y-43527200D01*
X-128785174Y-43527200D02*
X-128832793Y-43479580D01*
X-36954819Y-33190670D02*
X-37669104Y-33190670D01*
X-37669104Y-33190670D02*
X-37811961Y-33143051D01*
X-37811961Y-33143051D02*
X-37907200Y-33047813D01*
X-37907200Y-33047813D02*
X-37954819Y-32904956D01*
X-37954819Y-32904956D02*
X-37954819Y-32809718D01*
X-37954819Y-34190670D02*
X-37954819Y-33619242D01*
X-37954819Y-33904956D02*
X-36954819Y-33904956D01*
X-36954819Y-33904956D02*
X-37097676Y-33809718D01*
X-37097676Y-33809718D02*
X-37192914Y-33714480D01*
X-37192914Y-33714480D02*
X-37240533Y-33619242D01*
X-36954819Y-34524004D02*
X-36954819Y-35190670D01*
X-36954819Y-35190670D02*
X-37954819Y-34762099D01*
D11*
%TO.C,L1*%
X-158440000Y53462122D02*
X-158440000Y52662878D01*
X-159560000Y53462122D02*
X-159560000Y52662878D01*
%TO.C,C2*%
X-154054999Y53546513D02*
X-154054999Y53024009D01*
X-155524999Y53546513D02*
X-155524999Y53024009D01*
%TO.C,J21*%
X-89420000Y49380000D02*
X-89420000Y46620000D01*
X-86770000Y49380000D02*
X-89420000Y49380000D01*
X-86770000Y49380000D02*
X-86770000Y46620000D01*
X-86770000Y46620000D02*
X-89420000Y46620000D01*
X-85500000Y49380000D02*
X-84120000Y49380000D01*
X-84120000Y49380000D02*
X-84120000Y48000000D01*
%TO.C,J30*%
X-84120000Y-27120000D02*
X-84120000Y-28500000D01*
X-85500000Y-27120000D02*
X-84120000Y-27120000D01*
X-86770000Y-29880000D02*
X-89420000Y-29880000D01*
X-86770000Y-27120000D02*
X-86770000Y-29880000D01*
X-86770000Y-27120000D02*
X-89420000Y-27120000D01*
X-89420000Y-27120000D02*
X-89420000Y-29880000D01*
%TO.C,C3*%
X-155024999Y2446513D02*
X-155024999Y1924009D01*
X-153554999Y2446513D02*
X-153554999Y1924009D01*
%TO.C,J22*%
X-84120000Y40880000D02*
X-84120000Y39500000D01*
X-85500000Y40880000D02*
X-84120000Y40880000D01*
X-86770000Y38120000D02*
X-89420000Y38120000D01*
X-86770000Y40880000D02*
X-86770000Y38120000D01*
X-86770000Y40880000D02*
X-89420000Y40880000D01*
X-89420000Y40880000D02*
X-89420000Y38120000D01*
%TO.C,C5*%
X-155571700Y-48548854D02*
X-155571700Y-49071358D01*
X-154101700Y-48548854D02*
X-154101700Y-49071358D01*
%TO.C,J33*%
X-84120000Y-52620000D02*
X-84120000Y-54000000D01*
X-85500000Y-52620000D02*
X-84120000Y-52620000D01*
X-86770000Y-55380000D02*
X-89420000Y-55380000D01*
X-86770000Y-52620000D02*
X-86770000Y-55380000D01*
X-86770000Y-52620000D02*
X-89420000Y-52620000D01*
X-89420000Y-52620000D02*
X-89420000Y-55380000D01*
%TO.C,L8*%
X-159826407Y-125289077D02*
X-159826407Y-124489833D01*
X-158706407Y-125289077D02*
X-158706407Y-124489833D01*
%TO.C,J16*%
X-71164999Y-111720000D02*
X-71164999Y-109070000D01*
X-68404999Y-109070000D02*
X-71164999Y-109070000D01*
X-68404999Y-111720000D02*
X-71164999Y-111720000D01*
X-68404999Y-111720000D02*
X-68404999Y-109070000D01*
X-68404999Y-112990000D02*
X-68404999Y-114370000D01*
X-68404999Y-114370000D02*
X-69784999Y-114370000D01*
%TO.C,L7*%
X-159849999Y-100214361D02*
X-159849999Y-99415117D01*
X-158729999Y-100214361D02*
X-158729999Y-99415117D01*
%TO.C,R14*%
X-109740000Y-47500000D02*
X-110880000Y-47500000D01*
X-132260000Y-47500000D02*
X-131120000Y-47500000D01*
X-110880000Y-50820000D02*
X-131120000Y-50820000D01*
X-131120000Y-44180000D01*
X-110880000Y-44180000D01*
X-110880000Y-50820000D01*
%TO.C,J35*%
X-84120000Y-71120000D02*
X-84120000Y-72500000D01*
X-85500000Y-71120000D02*
X-84120000Y-71120000D01*
X-86770000Y-73880000D02*
X-89420000Y-73880000D01*
X-86770000Y-71120000D02*
X-86770000Y-73880000D01*
X-86770000Y-71120000D02*
X-89420000Y-71120000D01*
X-89420000Y-71120000D02*
X-89420000Y-73880000D01*
D12*
%TO.C,J7*%
X-72389999Y-50457961D02*
X-72389999Y-45057962D01*
X-71489999Y-38157961D02*
X-57490001Y-38157961D01*
X-71489999Y-45057962D02*
X-72389999Y-45057962D01*
X-71489999Y-50457961D02*
X-72389999Y-50457961D01*
X-71489999Y-54857960D02*
X-71489999Y-38157961D01*
X-71489999Y-54857960D02*
X-57490001Y-54857960D01*
X-57490001Y-38157961D02*
X-57490001Y-54857960D01*
D13*
X-73014000Y-43057961D02*
G75*
G02*
X-73776000Y-43057961I-381000J0D01*
G01*
X-73776000Y-43057961D02*
G75*
G02*
X-73014000Y-43057961I381000J0D01*
G01*
D11*
%TO.C,J42*%
X-84120000Y-129120000D02*
X-84120000Y-130500000D01*
X-85500000Y-129120000D02*
X-84120000Y-129120000D01*
X-86770000Y-131880000D02*
X-89420000Y-131880000D01*
X-86770000Y-129120000D02*
X-86770000Y-131880000D01*
X-86770000Y-129120000D02*
X-89420000Y-129120000D01*
X-89420000Y-129120000D02*
X-89420000Y-131880000D01*
%TO.C,J9*%
X-71534999Y21177761D02*
X-71534999Y23827761D01*
X-68774999Y23827761D02*
X-71534999Y23827761D01*
X-68774999Y21177761D02*
X-71534999Y21177761D01*
X-68774999Y21177761D02*
X-68774999Y23827761D01*
X-68774999Y19907761D02*
X-68774999Y18527761D01*
X-68774999Y18527761D02*
X-70154999Y18527761D01*
%TO.C,R19*%
X-103700000Y-93120000D02*
X-141940000Y-93120000D01*
X-103700000Y-89940000D02*
X-103700000Y-93120000D01*
X-103700000Y-87060000D02*
X-103700000Y-83880000D01*
X-103700000Y-83880000D02*
X-141940000Y-83880000D01*
X-141940000Y-93120000D02*
X-141940000Y-89940000D01*
X-141940000Y-83880000D02*
X-141940000Y-87060000D01*
%TO.C,J1*%
X-84120000Y65602761D02*
X-84120000Y64222761D01*
X-85500000Y65602761D02*
X-84120000Y65602761D01*
X-86770000Y62842761D02*
X-89420000Y62842761D01*
X-86770000Y65602761D02*
X-86770000Y62842761D01*
X-86770000Y65602761D02*
X-89420000Y65602761D01*
X-89420000Y65602761D02*
X-89420000Y62842761D01*
%TO.C,C4*%
X-155524999Y-23053487D02*
X-155524999Y-23575991D01*
X-154054999Y-23053487D02*
X-154054999Y-23575991D01*
%TO.C,R22*%
X-103700000Y-118620000D02*
X-141940000Y-118620000D01*
X-103700000Y-115440000D02*
X-103700000Y-118620000D01*
X-103700000Y-112560000D02*
X-103700000Y-109380000D01*
X-103700000Y-109380000D02*
X-141940000Y-109380000D01*
X-141940000Y-118620000D02*
X-141940000Y-115440000D01*
X-141940000Y-109380000D02*
X-141940000Y-112560000D01*
%TO.C,R9*%
X-129055651Y-4000000D02*
X-131315651Y-4000000D01*
X-125615651Y-4000000D02*
G75*
G02*
X-129055651Y-4000000I-1720000J0D01*
G01*
X-129055651Y-4000000D02*
G75*
G02*
X-125615651Y-4000000I1720000J0D01*
G01*
%TO.C,L5*%
X-159896700Y-49209728D02*
X-159896700Y-48410484D01*
X-158776700Y-49209728D02*
X-158776700Y-48410484D01*
%TO.C,R1*%
X-105380000Y59380000D02*
X-143620000Y59380000D01*
X-105380000Y62560000D02*
X-105380000Y59380000D01*
X-105380000Y65440000D02*
X-105380000Y68620000D01*
X-105380000Y68620000D02*
X-143620000Y68620000D01*
X-143620000Y59380000D02*
X-143620000Y62560000D01*
X-143620000Y68620000D02*
X-143620000Y65440000D01*
%TO.C,J25*%
X-84120000Y15380000D02*
X-84120000Y14000000D01*
X-85500000Y15380000D02*
X-84120000Y15380000D01*
X-86770000Y12620000D02*
X-89420000Y12620000D01*
X-86770000Y15380000D02*
X-86770000Y12620000D01*
X-86770000Y15380000D02*
X-89420000Y15380000D01*
X-89420000Y15380000D02*
X-89420000Y12620000D01*
%TO.C,R5*%
X-111740000Y28500000D02*
X-112880000Y28500000D01*
X-134260000Y28500000D02*
X-133120000Y28500000D01*
X-112880000Y25180000D02*
X-133120000Y25180000D01*
X-133120000Y31820000D01*
X-112880000Y31820000D01*
X-112880000Y25180000D01*
%TO.C,J27*%
X-84120000Y-1620000D02*
X-84120000Y-3000000D01*
X-85500000Y-1620000D02*
X-84120000Y-1620000D01*
X-86770000Y-4380000D02*
X-89420000Y-4380000D01*
X-86770000Y-1620000D02*
X-86770000Y-4380000D01*
X-86770000Y-1620000D02*
X-89420000Y-1620000D01*
X-89420000Y-1620000D02*
X-89420000Y-4380000D01*
%TO.C,J26*%
X-84120000Y5380000D02*
X-84120000Y4000000D01*
X-85500000Y5380000D02*
X-84120000Y5380000D01*
X-86770000Y2620000D02*
X-89420000Y2620000D01*
X-86770000Y5380000D02*
X-86770000Y2620000D01*
X-86770000Y5380000D02*
X-89420000Y5380000D01*
X-89420000Y5380000D02*
X-89420000Y2620000D01*
%TO.C,R18*%
X-129055651Y-80500000D02*
X-131315651Y-80500000D01*
X-125615651Y-80500000D02*
G75*
G02*
X-129055651Y-80500000I-1720000J0D01*
G01*
X-129055651Y-80500000D02*
G75*
G02*
X-125615651Y-80500000I1720000J0D01*
G01*
%TO.C,C1*%
X-155524999Y28046513D02*
X-155524999Y27524009D01*
X-154054999Y28046513D02*
X-154054999Y27524009D01*
%TO.C,R17*%
X-110240000Y-73500000D02*
X-111380000Y-73500000D01*
X-132760000Y-73500000D02*
X-131620000Y-73500000D01*
X-111380000Y-76820000D02*
X-131620000Y-76820000D01*
X-131620000Y-70180000D01*
X-111380000Y-70180000D01*
X-111380000Y-76820000D01*
%TO.C,J28*%
X-84120000Y-10120000D02*
X-84120000Y-11500000D01*
X-85500000Y-10120000D02*
X-84120000Y-10120000D01*
X-86770000Y-12880000D02*
X-89420000Y-12880000D01*
X-86770000Y-10120000D02*
X-86770000Y-12880000D01*
X-86770000Y-10120000D02*
X-89420000Y-10120000D01*
X-89420000Y-10120000D02*
X-89420000Y-12880000D01*
D12*
%TO.C,J18*%
X-72389999Y-77393882D02*
X-72389999Y-71993883D01*
X-71489999Y-65093882D02*
X-57490001Y-65093882D01*
X-71489999Y-71993883D02*
X-72389999Y-71993883D01*
X-71489999Y-77393882D02*
X-72389999Y-77393882D01*
X-71489999Y-81793881D02*
X-71489999Y-65093882D01*
X-71489999Y-81793881D02*
X-57490001Y-81793881D01*
X-57490001Y-65093882D02*
X-57490001Y-81793881D01*
D13*
X-73014000Y-69993882D02*
G75*
G02*
X-73776000Y-69993882I-381000J0D01*
G01*
X-73776000Y-69993882D02*
G75*
G02*
X-73014000Y-69993882I381000J0D01*
G01*
D11*
%TO.C,J12*%
X-70880000Y-59270000D02*
X-70880000Y-56620000D01*
X-68120000Y-56620000D02*
X-70880000Y-56620000D01*
X-68120000Y-59270000D02*
X-70880000Y-59270000D01*
X-68120000Y-59270000D02*
X-68120000Y-56620000D01*
X-68120000Y-60540000D02*
X-68120000Y-61920000D01*
X-68120000Y-61920000D02*
X-69500000Y-61920000D01*
%TO.C,R21*%
X-129055651Y-105500000D02*
X-131315651Y-105500000D01*
X-125615651Y-105500000D02*
G75*
G02*
X-129055651Y-105500000I-1720000J0D01*
G01*
X-129055651Y-105500000D02*
G75*
G02*
X-125615651Y-105500000I1720000J0D01*
G01*
%TO.C,R2*%
X-112740000Y54500000D02*
X-113880000Y54500000D01*
X-135260000Y54500000D02*
X-134120000Y54500000D01*
X-113880000Y51180000D02*
X-134120000Y51180000D01*
X-134120000Y57820000D01*
X-113880000Y57820000D01*
X-113880000Y51180000D01*
%TO.C,R6*%
X-129055651Y21500000D02*
X-131315651Y21500000D01*
X-125615651Y21500000D02*
G75*
G02*
X-129055651Y21500000I-1720000J0D01*
G01*
X-129055651Y21500000D02*
G75*
G02*
X-125615651Y21500000I1720000J0D01*
G01*
%TO.C,R23*%
X-111240000Y-124000000D02*
X-112380000Y-124000000D01*
X-133760000Y-124000000D02*
X-132620000Y-124000000D01*
X-112380000Y-127320000D02*
X-132620000Y-127320000D01*
X-132620000Y-120680000D01*
X-112380000Y-120680000D01*
X-112380000Y-127320000D01*
%TO.C,J15*%
X-71664999Y-86205921D02*
X-71664999Y-83555921D01*
X-68904999Y-83555921D02*
X-71664999Y-83555921D01*
X-68904999Y-86205921D02*
X-71664999Y-86205921D01*
X-68904999Y-86205921D02*
X-68904999Y-83555921D01*
X-68904999Y-87475921D02*
X-68904999Y-88855921D01*
X-68904999Y-88855921D02*
X-70284999Y-88855921D01*
%TO.C,J2*%
X-84120000Y56380000D02*
X-84120000Y55000000D01*
X-85500000Y56380000D02*
X-84120000Y56380000D01*
X-86770000Y53620000D02*
X-89420000Y53620000D01*
X-86770000Y56380000D02*
X-86770000Y53620000D01*
X-86770000Y56380000D02*
X-89420000Y56380000D01*
X-89420000Y56380000D02*
X-89420000Y53620000D01*
%TO.C,J10*%
X-71169999Y-5678160D02*
X-71169999Y-3028160D01*
X-68409999Y-3028160D02*
X-71169999Y-3028160D01*
X-68409999Y-5678160D02*
X-71169999Y-5678160D01*
X-68409999Y-5678160D02*
X-68409999Y-3028160D01*
X-68409999Y-6948160D02*
X-68409999Y-8328160D01*
X-68409999Y-8328160D02*
X-69789999Y-8328160D01*
%TO.C,R24*%
X-129055651Y-131000000D02*
X-131315651Y-131000000D01*
X-125615651Y-131000000D02*
G75*
G02*
X-129055651Y-131000000I-1720000J0D01*
G01*
X-129055651Y-131000000D02*
G75*
G02*
X-125615651Y-131000000I1720000J0D01*
G01*
%TO.C,R15*%
X-129055651Y-55000000D02*
X-131315651Y-55000000D01*
X-125615651Y-55000000D02*
G75*
G02*
X-129055651Y-55000000I-1720000J0D01*
G01*
X-129055651Y-55000000D02*
G75*
G02*
X-125615651Y-55000000I1720000J0D01*
G01*
%TO.C,J32*%
X-84120000Y-45620000D02*
X-84120000Y-47000000D01*
X-85500000Y-45620000D02*
X-84120000Y-45620000D01*
X-86770000Y-48380000D02*
X-89420000Y-48380000D01*
X-86770000Y-45620000D02*
X-86770000Y-48380000D01*
X-86770000Y-45620000D02*
X-89420000Y-45620000D01*
X-89420000Y-45620000D02*
X-89420000Y-48380000D01*
%TO.C,R10*%
X-105700000Y-16620000D02*
X-143940000Y-16620000D01*
X-105700000Y-13440000D02*
X-105700000Y-16620000D01*
X-105700000Y-10560000D02*
X-105700000Y-7380000D01*
X-105700000Y-7380000D02*
X-143940000Y-7380000D01*
X-143940000Y-16620000D02*
X-143940000Y-13440000D01*
X-143940000Y-7380000D02*
X-143940000Y-10560000D01*
%TO.C,J11*%
X-71669999Y-32404080D02*
X-71669999Y-29754080D01*
X-68909999Y-29754080D02*
X-71669999Y-29754080D01*
X-68909999Y-32404080D02*
X-71669999Y-32404080D01*
X-68909999Y-32404080D02*
X-68909999Y-29754080D01*
X-68909999Y-33674080D02*
X-68909999Y-35054080D01*
X-68909999Y-35054080D02*
X-70289999Y-35054080D01*
%TO.C,J8*%
X-71669999Y48173681D02*
X-71669999Y50823681D01*
X-68909999Y50823681D02*
X-71669999Y50823681D01*
X-68909999Y48173681D02*
X-71669999Y48173681D01*
X-68909999Y48173681D02*
X-68909999Y50823681D01*
X-68909999Y46903681D02*
X-68909999Y45523681D01*
X-68909999Y45523681D02*
X-70289999Y45523681D01*
%TO.C,C6*%
X-155700165Y-74048625D02*
X-155700165Y-74571129D01*
X-154230165Y-74048625D02*
X-154230165Y-74571129D01*
%TO.C,J39*%
X-84120000Y-103620000D02*
X-84120000Y-105000000D01*
X-85500000Y-103620000D02*
X-84120000Y-103620000D01*
X-86770000Y-106380000D02*
X-89420000Y-106380000D01*
X-86770000Y-103620000D02*
X-86770000Y-106380000D01*
X-86770000Y-103620000D02*
X-89420000Y-103620000D01*
X-89420000Y-103620000D02*
X-89420000Y-106380000D01*
%TO.C,R7*%
X-104700000Y9380000D02*
X-142940000Y9380000D01*
X-104700000Y12560000D02*
X-104700000Y9380000D01*
X-104700000Y15440000D02*
X-104700000Y18620000D01*
X-104700000Y18620000D02*
X-142940000Y18620000D01*
X-142940000Y9380000D02*
X-142940000Y12560000D01*
X-142940000Y18620000D02*
X-142940000Y15440000D01*
D12*
%TO.C,J3*%
X-72389999Y56985720D02*
X-72389999Y62385719D01*
X-71489999Y69285720D02*
X-57490001Y69285720D01*
X-71489999Y62385719D02*
X-72389999Y62385719D01*
X-71489999Y56985720D02*
X-72389999Y56985720D01*
X-71489999Y52585721D02*
X-71489999Y69285720D01*
X-71489999Y52585721D02*
X-57490001Y52585721D01*
X-57490001Y69285720D02*
X-57490001Y52585721D01*
D13*
X-73014000Y64385720D02*
G75*
G02*
X-73776000Y64385720I-381000J0D01*
G01*
X-73776000Y64385720D02*
G75*
G02*
X-73014000Y64385720I381000J0D01*
G01*
D11*
%TO.C,L3*%
X-159349999Y1785639D02*
X-159349999Y2584883D01*
X-158229999Y1785639D02*
X-158229999Y2584883D01*
%TO.C,R20*%
X-110440000Y-98500000D02*
X-111580000Y-98500000D01*
X-132960000Y-98500000D02*
X-131820000Y-98500000D01*
X-111580000Y-101820000D02*
X-131820000Y-101820000D01*
X-131820000Y-95180000D01*
X-111580000Y-95180000D01*
X-111580000Y-101820000D01*
D12*
%TO.C,J5*%
X-72389999Y3133879D02*
X-72389999Y8533878D01*
X-71489999Y15433879D02*
X-57490001Y15433879D01*
X-71489999Y8533878D02*
X-72389999Y8533878D01*
X-71489999Y3133879D02*
X-72389999Y3133879D01*
X-71489999Y-1266120D02*
X-71489999Y15433879D01*
X-71489999Y-1266120D02*
X-57490001Y-1266120D01*
X-57490001Y15433879D02*
X-57490001Y-1266120D01*
D13*
X-73014000Y10533879D02*
G75*
G02*
X-73776000Y10533879I-381000J0D01*
G01*
X-73776000Y10533879D02*
G75*
G02*
X-73014000Y10533879I381000J0D01*
G01*
D12*
%TO.C,J6*%
X-72389999Y-23592041D02*
X-72389999Y-18192042D01*
X-71489999Y-11292041D02*
X-57490001Y-11292041D01*
X-71489999Y-18192042D02*
X-72389999Y-18192042D01*
X-71489999Y-23592041D02*
X-72389999Y-23592041D01*
X-71489999Y-27992040D02*
X-71489999Y-11292041D01*
X-71489999Y-27992040D02*
X-57490001Y-27992040D01*
X-57490001Y-11292041D02*
X-57490001Y-27992040D01*
D13*
X-73014000Y-16192041D02*
G75*
G02*
X-73776000Y-16192041I-381000J0D01*
G01*
X-73776000Y-16192041D02*
G75*
G02*
X-73014000Y-16192041I381000J0D01*
G01*
D11*
%TO.C,J23*%
X-84120000Y30880000D02*
X-84120000Y29500000D01*
X-85500000Y30880000D02*
X-84120000Y30880000D01*
X-86770000Y28120000D02*
X-89420000Y28120000D01*
X-86770000Y30880000D02*
X-86770000Y28120000D01*
X-86770000Y30880000D02*
X-89420000Y30880000D01*
X-89420000Y30880000D02*
X-89420000Y28120000D01*
%TO.C,J40*%
X-84120000Y-112120000D02*
X-84120000Y-113500000D01*
X-85500000Y-112120000D02*
X-84120000Y-112120000D01*
X-86770000Y-114880000D02*
X-89420000Y-114880000D01*
X-86770000Y-112120000D02*
X-86770000Y-114880000D01*
X-86770000Y-112120000D02*
X-89420000Y-112120000D01*
X-89420000Y-112120000D02*
X-89420000Y-114880000D01*
%TO.C,J36*%
X-84120000Y-78120000D02*
X-84120000Y-79500000D01*
X-85500000Y-78120000D02*
X-84120000Y-78120000D01*
X-86770000Y-80880000D02*
X-89420000Y-80880000D01*
X-86770000Y-78120000D02*
X-86770000Y-80880000D01*
X-86770000Y-78120000D02*
X-89420000Y-78120000D01*
X-89420000Y-78120000D02*
X-89420000Y-80880000D01*
D12*
%TO.C,J19*%
X-72389999Y-102907961D02*
X-72389999Y-97507962D01*
X-71489999Y-90607961D02*
X-57490001Y-90607961D01*
X-71489999Y-97507962D02*
X-72389999Y-97507962D01*
X-71489999Y-102907961D02*
X-72389999Y-102907961D01*
X-71489999Y-107307960D02*
X-71489999Y-90607961D01*
X-71489999Y-107307960D02*
X-57490001Y-107307960D01*
X-57490001Y-90607961D02*
X-57490001Y-107307960D01*
D13*
X-73014000Y-95507961D02*
G75*
G02*
X-73776000Y-95507961I-381000J0D01*
G01*
X-73776000Y-95507961D02*
G75*
G02*
X-73014000Y-95507961I381000J0D01*
G01*
D11*
%TO.C,C8*%
X-155501407Y-124628203D02*
X-155501407Y-125150707D01*
X-154031407Y-124628203D02*
X-154031407Y-125150707D01*
%TO.C,R12*%
X-129055651Y-29500000D02*
X-131315651Y-29500000D01*
X-125615651Y-29500000D02*
G75*
G02*
X-129055651Y-29500000I-1720000J0D01*
G01*
X-129055651Y-29500000D02*
G75*
G02*
X-125615651Y-29500000I1720000J0D01*
G01*
%TO.C,L4*%
X-159849999Y-23714361D02*
X-159849999Y-22915117D01*
X-158729999Y-23714361D02*
X-158729999Y-22915117D01*
%TO.C,R4*%
X-104880000Y33880000D02*
X-143120000Y33880000D01*
X-104880000Y37060000D02*
X-104880000Y33880000D01*
X-104880000Y39940000D02*
X-104880000Y43120000D01*
X-104880000Y43120000D02*
X-143120000Y43120000D01*
X-143120000Y33880000D02*
X-143120000Y37060000D01*
X-143120000Y43120000D02*
X-143120000Y39940000D01*
D12*
%TO.C,J13*%
X-186616997Y-21900435D02*
X-186616997Y-51654426D01*
X-186616997Y-51654426D02*
X-174362998Y-51654426D01*
X-174362998Y-21900435D02*
X-186616997Y-21900435D01*
X-174362998Y-51654426D02*
X-174362998Y-21900435D01*
D13*
X-181408999Y-20122435D02*
G75*
G02*
X-182170999Y-20122435I-381000J0D01*
G01*
X-182170999Y-20122435D02*
G75*
G02*
X-181408999Y-20122435I381000J0D01*
G01*
D11*
%TO.C,R3*%
X-129055651Y47000000D02*
X-131315651Y47000000D01*
X-125615651Y47000000D02*
G75*
G02*
X-129055651Y47000000I-1720000J0D01*
G01*
X-129055651Y47000000D02*
G75*
G02*
X-125615651Y47000000I1720000J0D01*
G01*
%TO.C,J31*%
X-84120000Y-35620000D02*
X-84120000Y-37000000D01*
X-85500000Y-35620000D02*
X-84120000Y-35620000D01*
X-86770000Y-38380000D02*
X-89420000Y-38380000D01*
X-86770000Y-35620000D02*
X-86770000Y-38380000D01*
X-86770000Y-35620000D02*
X-89420000Y-35620000D01*
X-89420000Y-35620000D02*
X-89420000Y-38380000D01*
%TO.C,R16*%
X-103380000Y-68120000D02*
X-141620000Y-68120000D01*
X-103380000Y-64940000D02*
X-103380000Y-68120000D01*
X-103380000Y-62060000D02*
X-103380000Y-58880000D01*
X-103380000Y-58880000D02*
X-141620000Y-58880000D01*
X-141620000Y-68120000D02*
X-141620000Y-64940000D01*
X-141620000Y-58880000D02*
X-141620000Y-62060000D01*
%TO.C,J41*%
X-84120000Y-122120000D02*
X-84120000Y-123500000D01*
X-85500000Y-122120000D02*
X-84120000Y-122120000D01*
X-86770000Y-124880000D02*
X-89420000Y-124880000D01*
X-86770000Y-122120000D02*
X-86770000Y-124880000D01*
X-86770000Y-122120000D02*
X-89420000Y-122120000D01*
X-89420000Y-122120000D02*
X-89420000Y-124880000D01*
%TO.C,J34*%
X-84120000Y-61120000D02*
X-84120000Y-62500000D01*
X-85500000Y-61120000D02*
X-84120000Y-61120000D01*
X-86770000Y-63880000D02*
X-89420000Y-63880000D01*
X-86770000Y-61120000D02*
X-86770000Y-63880000D01*
X-86770000Y-61120000D02*
X-89420000Y-61120000D01*
X-89420000Y-61120000D02*
X-89420000Y-63880000D01*
%TO.C,R8*%
X-109740000Y3500000D02*
X-110880000Y3500000D01*
X-132260000Y3500000D02*
X-131120000Y3500000D01*
X-110880000Y180000D02*
X-131120000Y180000D01*
X-131120000Y6820000D01*
X-110880000Y6820000D01*
X-110880000Y180000D01*
%TO.C,L2*%
X-159849999Y27385639D02*
X-159849999Y28184883D01*
X-158729999Y27385639D02*
X-158729999Y28184883D01*
D12*
%TO.C,J20*%
X-72389999Y-128422040D02*
X-72389999Y-123022041D01*
X-71489999Y-116122040D02*
X-57490001Y-116122040D01*
X-71489999Y-123022041D02*
X-72389999Y-123022041D01*
X-71489999Y-128422040D02*
X-72389999Y-128422040D01*
X-71489999Y-132822039D02*
X-71489999Y-116122040D01*
X-71489999Y-132822039D02*
X-57490001Y-132822039D01*
X-57490001Y-116122040D02*
X-57490001Y-132822039D01*
D13*
X-73014000Y-121022040D02*
G75*
G02*
X-73776000Y-121022040I-381000J0D01*
G01*
X-73776000Y-121022040D02*
G75*
G02*
X-73014000Y-121022040I381000J0D01*
G01*
D11*
%TO.C,J24*%
X-84120000Y23880000D02*
X-84120000Y22500000D01*
X-85500000Y23880000D02*
X-84120000Y23880000D01*
X-86770000Y21120000D02*
X-89420000Y21120000D01*
X-86770000Y23880000D02*
X-86770000Y21120000D01*
X-86770000Y23880000D02*
X-89420000Y23880000D01*
X-89420000Y23880000D02*
X-89420000Y21120000D01*
%TO.C,L6*%
X-160025165Y-74709499D02*
X-160025165Y-73910255D01*
X-158905165Y-74709499D02*
X-158905165Y-73910255D01*
%TO.C,R11*%
X-108740000Y-22000000D02*
X-109880000Y-22000000D01*
X-131260000Y-22000000D02*
X-130120000Y-22000000D01*
X-109880000Y-25320000D02*
X-130120000Y-25320000D01*
X-130120000Y-18680000D01*
X-109880000Y-18680000D01*
X-109880000Y-25320000D01*
%TO.C,J29*%
X-84120000Y-20120000D02*
X-84120000Y-21500000D01*
X-85500000Y-20120000D02*
X-84120000Y-20120000D01*
X-86770000Y-22880000D02*
X-89420000Y-22880000D01*
X-86770000Y-20120000D02*
X-86770000Y-22880000D01*
X-86770000Y-20120000D02*
X-89420000Y-20120000D01*
X-89420000Y-20120000D02*
X-89420000Y-22880000D01*
%TO.C,J38*%
X-84120000Y-96620000D02*
X-84120000Y-98000000D01*
X-85500000Y-96620000D02*
X-84120000Y-96620000D01*
X-86770000Y-99380000D02*
X-89420000Y-99380000D01*
X-86770000Y-96620000D02*
X-86770000Y-99380000D01*
X-86770000Y-96620000D02*
X-89420000Y-96620000D01*
X-89420000Y-96620000D02*
X-89420000Y-99380000D01*
%TO.C,J37*%
X-84120000Y-86620000D02*
X-84120000Y-88000000D01*
X-85500000Y-86620000D02*
X-84120000Y-86620000D01*
X-86770000Y-89380000D02*
X-89420000Y-89380000D01*
X-86770000Y-86620000D02*
X-86770000Y-89380000D01*
X-86770000Y-86620000D02*
X-89420000Y-86620000D01*
X-89420000Y-86620000D02*
X-89420000Y-89380000D01*
D12*
%TO.C,J4*%
X-72389999Y29989800D02*
X-72389999Y35389799D01*
X-71489999Y42289800D02*
X-57490001Y42289800D01*
X-71489999Y35389799D02*
X-72389999Y35389799D01*
X-71489999Y29989800D02*
X-72389999Y29989800D01*
X-71489999Y25589801D02*
X-71489999Y42289800D01*
X-71489999Y25589801D02*
X-57490001Y25589801D01*
X-57490001Y42289800D02*
X-57490001Y25589801D01*
D13*
X-73014000Y37389800D02*
G75*
G02*
X-73776000Y37389800I-381000J0D01*
G01*
X-73776000Y37389800D02*
G75*
G02*
X-73014000Y37389800I381000J0D01*
G01*
D11*
%TO.C,C7*%
X-155524999Y-99553487D02*
X-155524999Y-100075991D01*
X-154054999Y-99553487D02*
X-154054999Y-100075991D01*
%TO.C,R13*%
X-105700000Y-42120000D02*
X-143940000Y-42120000D01*
X-105700000Y-38940000D02*
X-105700000Y-42120000D01*
X-105700000Y-36060000D02*
X-105700000Y-32880000D01*
X-105700000Y-32880000D02*
X-143940000Y-32880000D01*
X-143940000Y-42120000D02*
X-143940000Y-38940000D01*
X-143940000Y-32880000D02*
X-143940000Y-36060000D01*
D12*
%TO.C,J17*%
X-42326998Y-5123188D02*
X-42326998Y-62877201D01*
X-42326998Y-62877201D02*
X-30072999Y-62877201D01*
X-30072999Y-5123188D02*
X-42326998Y-5123188D01*
X-30072999Y-62877201D02*
X-30072999Y-5123188D01*
D13*
X-37119000Y-3345188D02*
G75*
G02*
X-37881000Y-3345188I-381000J0D01*
G01*
X-37881000Y-3345188D02*
G75*
G02*
X-37119000Y-3345188I381000J0D01*
G01*
%TD*%
M02*
